
<svg fill="none" xmlns="http://www.w3.org/2000/svg">
<g opacity="0.15">
<path d="M121.173 646.885L-5.75342 774.505C-10.1084 778.766 -15.9594 781.153 -22.0526 781.153C-28.1459 781.153 -33.9968 778.766 -38.3519 774.505C-42.6135 770.15 -45 764.299 -45 758.206C-45 752.112 -42.6135 746.261 -38.3519 741.906L88.4353 614.287C92.7904 610.025 98.6413 607.639 104.735 607.639C110.828 607.639 116.679 610.025 121.034 614.287C125.314 618.624 127.725 624.464 127.751 630.558C127.777 636.651 125.416 642.512 121.173 646.885Z" fill="white"/>
<path d="M616.761 222.683L743.548 95.8959C745.687 93.7527 748.228 92.0523 751.025 90.8921C753.821 89.7319 756.82 89.1348 759.848 89.1348C762.876 89.1348 765.874 89.7319 768.671 90.8921C771.467 92.0523 774.008 93.7527 776.147 95.8959C778.29 98.0348 779.99 100.575 781.151 103.372C782.311 106.169 782.908 109.167 782.908 112.195C782.908 115.223 782.311 118.221 781.151 121.018C779.99 123.815 778.29 126.356 776.147 128.494L649.36 255.282C647.221 257.425 644.68 259.125 641.883 260.285C639.086 261.446 636.088 262.043 633.06 262.043C630.032 262.043 627.034 261.446 624.237 260.285C621.441 259.125 618.9 257.425 616.761 255.282C614.618 253.143 612.918 250.602 611.757 247.805C610.597 245.008 610 242.01 610 238.982C610 235.954 610.597 232.956 611.757 230.159C612.918 227.363 614.618 224.822 616.761 222.683Z" fill="#5F0F4E" style="mix-blend-mode:multiply"/>
<path d="M1130.54 107.759L1040.79 197.37C1039.28 198.888 1037.48 200.093 1035.51 200.915C1033.53 201.738 1031.41 202.161 1029.27 202.161C1027.13 202.161 1025.01 201.738 1023.04 200.915C1021.06 200.093 1019.27 198.888 1017.76 197.37C1016.24 195.862 1015.04 194.068 1014.21 192.092C1013.39 190.116 1012.97 187.997 1012.97 185.856C1012.97 183.716 1013.39 181.597 1014.21 179.621C1015.04 177.645 1016.24 175.851 1017.76 174.343L1108.2 84.5931C1111.29 81.5935 1115.42 79.915 1119.72 79.915C1124.02 79.915 1128.15 81.5935 1131.23 84.5931C1132.71 86.1585 1133.86 88.0001 1134.63 90.0123C1135.39 92.0246 1135.75 94.168 1135.69 96.3199C1135.62 98.4717 1135.14 100.59 1134.25 102.553C1133.37 104.515 1132.11 106.285 1130.54 107.759Z" fill="white"/>
<path d="M1359.16 24.9527L1269.41 114.564C1267.9 116.082 1266.11 117.287 1264.13 118.109C1262.16 118.932 1260.04 119.355 1257.9 119.355C1255.76 119.355 1253.64 118.932 1251.66 118.109C1249.69 117.287 1247.89 116.082 1246.38 114.564C1244.87 113.055 1243.66 111.262 1242.84 109.286C1242.02 107.31 1241.59 105.191 1241.59 103.05C1241.59 100.91 1242.02 98.791 1242.84 96.8151C1243.66 94.8391 1244.87 93.0453 1246.38 91.5368L1336.13 1.92575C1337.64 0.40748 1339.44 -0.79746 1341.41 -1.6197C1343.39 -2.44194 1345.51 -2.86523 1347.65 -2.86523C1349.79 -2.86523 1351.91 -2.44194 1353.88 -1.6197C1355.86 -0.79746 1357.65 0.40748 1359.16 1.92575C1362.16 5.00766 1363.84 9.13855 1363.84 13.4393C1363.84 17.7399 1362.16 21.8708 1359.16 24.9527Z" fill="#A8DAD2"/>
<path d="M664.828 611.006L597.412 678.423C595.101 680.702 591.987 681.979 588.742 681.979C585.497 681.979 582.382 680.702 580.072 678.423C577.793 676.113 576.516 672.998 576.516 669.753C576.516 666.508 577.793 663.393 580.072 661.083L647.488 593.667C649.799 591.388 652.913 590.11 656.158 590.11C659.403 590.11 662.518 591.388 664.828 593.667C667.107 595.977 668.384 599.092 668.384 602.337C668.384 605.582 667.107 608.696 664.828 611.006Z" fill="white"/>
<path d="M443.706 5.36892L316.918 132.295C312.563 136.557 306.713 138.943 300.619 138.943C294.526 138.943 288.675 136.557 284.32 132.295C280.058 127.94 277.672 122.089 277.672 115.996C277.672 109.902 280.058 104.051 284.32 99.6964L411.246 -27.2295C415.578 -31.4825 421.405 -33.8652 427.476 -33.8652C433.546 -33.8652 439.374 -31.4825 443.706 -27.2295C445.849 -25.0907 447.549 -22.5501 448.709 -19.7533C449.87 -16.9564 450.467 -13.9582 450.467 -10.9303C450.467 -7.90239 449.87 -4.9042 448.709 -2.10736C447.549 0.689484 445.849 3.23005 443.706 5.36892Z" fill="#5F0F4E" style="mix-blend-mode:multiply"/>
<path d="M396.841 2.1785L214.29 184.73C208.054 190.914 199.628 194.383 190.847 194.383C182.065 194.383 173.639 190.914 167.404 184.73C161.22 178.495 157.75 170.068 157.75 161.287C157.75 152.505 161.22 144.079 167.404 137.844L350.094 -44.7078C356.329 -50.8916 364.755 -54.3613 373.537 -54.3613C382.319 -54.3613 390.745 -50.8916 396.98 -44.7078C403.145 -38.4542 406.59 -30.0178 406.564 -21.2361C406.538 -12.4543 403.044 -4.03852 396.841 2.1785Z" fill="#A8DAD2"/>
<path d="M538.091 499.163L355.54 681.714C349.305 687.898 340.878 691.368 332.097 691.368C323.315 691.368 314.889 687.898 308.654 681.714C302.47 675.479 299 667.053 299 658.271C299 649.489 302.47 641.063 308.654 634.828L491.205 452.277C497.44 446.093 505.866 442.623 514.648 442.623C523.43 442.623 531.856 446.093 538.091 452.277C544.275 458.512 547.745 466.938 547.745 475.72C547.745 484.501 544.275 492.928 538.091 499.163Z" fill="#5F0F4E" style="mix-blend-mode:multiply"/>
<path d="M484.832 482.239L361.374 605.697C359.3 607.778 356.835 609.428 354.121 610.554C351.408 611.681 348.498 612.26 345.56 612.26C342.622 612.26 339.713 611.681 337 610.554C334.286 609.428 331.821 607.778 329.747 605.697C325.537 601.484 323.172 595.771 323.172 589.814C323.172 583.858 325.537 578.145 329.747 573.931L453.066 450.751C457.28 446.541 462.993 444.176 468.949 444.176C474.906 444.176 480.618 446.541 484.832 450.751C488.991 454.935 491.326 460.595 491.326 466.495C491.326 472.395 488.991 478.055 484.832 482.239Z" fill="#A8DAD2"/>
<path d="M183.656 362.704L85.3062 460.916C83.4616 462.745 80.9686 463.772 78.3704 463.772C75.7722 463.772 73.2792 462.745 71.4345 460.916C69.6048 459.071 68.5781 456.578 68.5781 453.98C68.5781 451.382 69.6048 448.889 71.4345 447.044L169.646 348.694C171.508 346.897 173.994 345.893 176.582 345.893C179.169 345.893 181.656 346.897 183.518 348.694C185.375 350.544 186.43 353.049 186.456 355.67C186.482 358.292 185.476 360.818 183.656 362.704Z" fill="#A8DAD2"/>
<path d="M596.473 564.814L638.088 523.199C639.514 521.801 641.431 521.018 643.428 521.018C645.425 521.018 647.343 521.801 648.769 523.199C650.167 524.625 650.95 526.542 650.95 528.539C650.95 530.536 650.167 532.454 648.769 533.88L607.154 575.495C605.728 576.893 603.81 577.676 601.813 577.676C599.816 577.676 597.899 576.893 596.473 575.495C595.764 574.798 595.201 573.966 594.817 573.049C594.432 572.133 594.234 571.148 594.234 570.154C594.234 569.16 594.432 568.176 594.817 567.259C595.201 566.342 595.764 565.511 596.473 564.814Z" fill="#7191AA"/>
<path d="M315.106 228.98L339.937 204.15C341.339 202.761 343.234 201.981 345.208 201.981C347.182 201.981 349.076 202.761 350.479 204.15C351.877 205.576 352.66 207.494 352.66 209.491C352.66 211.488 351.877 213.405 350.479 214.831L325.788 240.216C324.361 241.614 322.444 242.397 320.447 242.397C318.45 242.397 316.533 241.614 315.106 240.216C314.309 239.513 313.671 238.649 313.234 237.68C312.796 236.712 312.57 235.661 312.57 234.598C312.57 233.536 312.796 232.485 313.234 231.516C313.671 230.548 314.309 229.683 315.106 228.98Z" fill="#A8DAD2"/>
<path d="M950.764 58.9308L992.379 17.3157C993.805 15.9178 995.722 15.1348 997.719 15.1348C999.716 15.1348 1001.63 15.9178 1003.06 17.3157C1004.46 18.7419 1005.24 20.6593 1005.24 22.6563C1005.24 24.6533 1004.46 26.5708 1003.06 27.9969L961.445 69.612C960.042 71.0012 958.148 71.7806 956.173 71.7806C954.199 71.7806 952.305 71.0012 950.902 69.612C950.184 68.9241 949.61 68.1002 949.214 67.1882C948.818 66.2763 948.607 65.2946 948.594 64.3004C948.581 63.3062 948.767 62.3194 949.139 61.3975C949.511 60.4756 950.064 59.637 950.764 58.9308Z" fill="white"/>
<path d="M567.692 298.682L669.371 197.002C670.485 195.917 671.978 195.311 673.533 195.311C675.087 195.311 676.58 195.917 677.694 197.002C678.779 198.116 679.386 199.609 679.386 201.164C679.386 202.718 678.779 204.211 677.694 205.325L576.015 307.005C574.885 308.058 573.398 308.643 571.853 308.643C570.309 308.643 568.821 308.058 567.692 307.005C566.607 305.891 566 304.398 566 302.843C566 301.288 566.607 299.795 567.692 298.682Z" fill="#A8DAD2"/>
<path d="M1309.69 362.682L1208.01 464.362C1206.9 465.446 1205.41 466.053 1203.85 466.053C1202.3 466.053 1200.81 465.446 1199.69 464.362C1198.61 463.248 1198 461.755 1198 460.2C1198 458.646 1198.61 457.153 1199.69 456.039L1301.37 354.359C1302.5 353.306 1303.99 352.721 1305.53 352.721C1307.08 352.721 1308.56 353.306 1309.69 354.359C1310.78 355.473 1311.39 356.966 1311.39 358.521C1311.39 360.075 1310.78 361.569 1309.69 362.682Z" fill="white"/>
<path d="M263.555 514.321C276.732 514.321 287.414 503.639 287.414 490.462C287.414 477.285 276.732 466.603 263.555 466.603C250.378 466.603 239.695 477.285 239.695 490.462C239.695 503.639 250.378 514.321 263.555 514.321Z" fill="white"/>
<path d="M999.267 232.605C1008.61 232.605 1016.19 225.028 1016.19 215.681C1016.19 206.335 1008.61 198.758 999.267 198.758C989.921 198.758 982.344 206.335 982.344 215.681C982.344 225.028 989.921 232.605 999.267 232.605Z" fill="white"/>
<path d="M1219.92 157.844C1229.27 157.844 1236.85 150.267 1236.85 140.921C1236.85 131.574 1229.27 123.997 1219.92 123.997C1210.58 123.997 1203 131.574 1203 140.921C1203 150.267 1210.58 157.844 1219.92 157.844Z" fill="#A8DAD2"/>
<path d="M1333.42 337.852C1333.42 339.279 1333 340.673 1332.2 341.859C1331.41 343.046 1330.28 343.97 1328.97 344.516C1327.65 345.062 1326.2 345.205 1324.8 344.927C1323.4 344.648 1322.11 343.961 1321.1 342.953C1320.1 341.944 1319.41 340.658 1319.13 339.259C1318.85 337.86 1319 336.41 1319.54 335.092C1320.09 333.773 1321.01 332.647 1322.2 331.854C1323.38 331.062 1324.78 330.639 1326.21 330.639C1328.12 330.639 1329.95 331.399 1331.31 332.751C1332.66 334.104 1333.42 335.939 1333.42 337.852Z" fill="white"/>
<path d="M670.368 508.773C669.937 510.28 669.027 511.606 667.776 512.55C666.525 513.494 665 514.005 663.432 514.005C661.864 514.005 660.34 513.494 659.088 512.55C657.837 511.606 656.927 510.28 656.496 508.773C656.189 507.699 656.136 506.569 656.341 505.472C656.545 504.374 657.001 503.339 657.673 502.447C658.346 501.556 659.216 500.833 660.215 500.335C661.214 499.837 662.316 499.578 663.432 499.578C664.548 499.578 665.65 499.837 666.649 500.335C667.648 500.833 668.518 501.556 669.191 502.447C669.863 503.339 670.319 504.374 670.523 505.472C670.728 506.569 670.674 507.699 670.368 508.773Z" fill="#3D5262"/>
<path d="M214.566 328.856C214.566 331.188 213.875 333.468 212.579 335.407C211.284 337.346 209.442 338.857 207.287 339.75C205.133 340.642 202.762 340.876 200.475 340.421C198.188 339.966 196.087 338.843 194.438 337.194C192.789 335.545 191.666 333.444 191.211 331.157C190.756 328.869 190.989 326.499 191.882 324.344C192.774 322.19 194.286 320.348 196.225 319.053C198.164 317.757 200.443 317.065 202.775 317.065C205.902 317.065 208.902 318.308 211.113 320.519C213.324 322.73 214.566 325.729 214.566 328.856Z" fill="#A8DAD2"/>
<path d="M165.574 281.832C165.574 284.164 164.883 286.444 163.587 288.383C162.291 290.322 160.45 291.833 158.295 292.725C156.141 293.618 153.77 293.851 151.483 293.396C149.196 292.941 147.095 291.818 145.446 290.169C143.797 288.52 142.674 286.419 142.219 284.132C141.764 281.845 141.997 279.474 142.89 277.32C143.782 275.165 145.293 273.324 147.232 272.028C149.171 270.733 151.451 270.041 153.783 270.041C155.332 270.041 156.865 270.346 158.295 270.939C159.726 271.531 161.026 272.4 162.121 273.495C163.216 274.589 164.084 275.889 164.677 277.32C165.269 278.75 165.574 280.284 165.574 281.832Z" fill="white"/>
<path d="M178.932 469.099C185.444 469.099 190.723 463.82 190.723 457.308C190.723 450.797 185.444 445.518 178.932 445.518C172.42 445.518 167.141 450.797 167.141 457.308C167.141 463.82 172.42 469.099 178.932 469.099Z" fill="#5F0F4E" style="mix-blend-mode:multiply"/>
<path d="M971.443 143.965C971.462 145.507 971.174 147.037 970.596 148.466C970.019 149.896 969.164 151.197 968.08 152.294C966.996 153.391 965.705 154.261 964.282 154.856C962.86 155.45 961.333 155.756 959.791 155.756C956.664 155.756 953.665 154.513 951.454 152.302C949.242 150.091 948 147.092 948 143.965C948 140.838 949.242 137.839 951.454 135.627C953.665 133.416 956.664 132.174 959.791 132.174C961.333 132.174 962.86 132.48 964.282 133.074C965.705 133.668 966.996 134.539 968.08 135.636C969.164 136.732 970.019 138.033 970.596 139.463C971.174 140.893 971.462 142.423 971.443 143.965Z" fill="#7191AA"/>
<path d="M152.972 214.138C152.972 217.485 151.979 220.757 150.12 223.54C148.26 226.323 145.617 228.492 142.525 229.773C139.432 231.054 136.03 231.389 132.747 230.736C129.464 230.083 126.449 228.471 124.082 226.105C121.715 223.738 120.103 220.722 119.45 217.439C118.797 214.157 119.132 210.754 120.413 207.662C121.694 204.569 123.863 201.926 126.646 200.067C129.429 198.207 132.701 197.214 136.048 197.214C138.276 197.196 140.485 197.621 142.547 198.465C144.608 199.309 146.481 200.555 148.056 202.13C149.632 203.705 150.877 205.578 151.721 207.64C152.565 209.701 152.99 211.91 152.972 214.138Z" fill="#A8DAD2"/>
<path d="M1021.38 60.8732C1021.38 63.9635 1020.15 66.9273 1017.97 69.1125C1015.78 71.2977 1012.82 72.5254 1009.73 72.5254C1007.38 72.5528 1005.08 71.8811 1003.12 70.5961C1001.16 69.3112 999.631 67.4712 998.721 65.3111C997.811 63.151 997.566 60.7689 998.017 58.4688C998.467 56.1687 999.593 54.0551 1001.25 52.3978C1002.91 50.7405 1005.02 49.6148 1007.32 49.1642C1009.62 48.7137 1012 48.9589 1014.16 49.8684C1016.32 50.778 1018.16 52.3107 1019.45 54.2708C1020.73 56.231 1021.41 58.5296 1021.38 60.8732Z" fill="#5F0F4E" style="mix-blend-mode:multiply"/>
<path d="M493.662 144.571L619.339 18.7547C621.766 16.4315 624.996 15.1348 628.356 15.1348C631.715 15.1348 634.945 16.4315 637.372 18.7547C639.696 21.1816 640.992 24.4116 640.992 27.7713C640.992 31.1309 639.696 34.3609 637.372 36.7879L511.695 162.465C509.268 164.788 506.038 166.085 502.678 166.085C499.319 166.085 496.089 164.788 493.662 162.465C491.315 160.078 490 156.865 490 153.518C490 150.171 491.315 146.958 493.662 144.571Z" fill="#A8DAD2"/>
<path d="M1292.66 273.571L1418.34 147.755C1420.77 145.432 1424 144.135 1427.36 144.135C1430.72 144.135 1433.95 145.432 1436.37 147.755C1438.7 150.182 1439.99 153.412 1439.99 156.771C1439.99 160.131 1438.7 163.361 1436.37 165.788L1310.69 291.465C1308.27 293.788 1305.04 295.085 1301.68 295.085C1298.32 295.085 1295.09 293.788 1292.66 291.465C1290.32 289.078 1289 285.865 1289 282.518C1289 279.171 1290.32 275.958 1292.66 273.571Z" fill="#5F0F4E" style="mix-blend-mode:multiply"/>
<path d="M26.4615 191.25L152.139 65.5721C153.312 64.3935 154.706 63.4583 156.242 62.8202C157.777 62.182 159.423 61.8535 161.086 61.8535C162.749 61.8535 164.395 62.182 165.931 62.8202C167.466 63.4583 168.861 64.3935 170.033 65.5721C172.422 67.9648 173.764 71.2077 173.764 74.5887C173.764 77.9697 172.422 81.2126 170.033 83.6053L44.9109 209.283C42.5241 211.629 39.3109 212.944 35.9637 212.944C32.6164 212.944 29.4032 211.629 27.0164 209.283C24.5526 206.964 23.1101 203.763 23.006 200.381C22.902 196.999 24.1449 193.715 26.4615 191.25Z" fill="#5F0F4E" style="mix-blend-mode:multiply"/>
<path d="M1174.96 671.866L1338.64 507.903C1340.18 506.355 1342 505.127 1344.01 504.288C1346.03 503.45 1348.18 503.019 1350.36 503.019C1352.54 503.019 1354.7 503.45 1356.71 504.288C1358.72 505.127 1360.55 506.355 1362.09 507.903C1365.14 511.038 1366.86 515.244 1366.86 519.624C1366.86 524.004 1365.14 528.211 1362.09 531.346L1197.98 695.448C1194.85 698.507 1190.64 700.219 1186.26 700.219C1181.88 700.219 1177.68 698.507 1174.54 695.448C1171.53 692.236 1169.89 687.976 1169.96 683.573C1170.04 679.169 1171.83 674.97 1174.96 671.866Z" fill="#5F0F4E" style="mix-blend-mode:multiply"/>
<path d="M391.688 173.494C391.688 170.531 392.566 167.635 394.212 165.171C395.859 162.707 398.198 160.787 400.936 159.653C403.673 158.519 406.686 158.223 409.592 158.801C412.498 159.379 415.167 160.805 417.262 162.901C419.358 164.996 420.784 167.665 421.363 170.571C421.941 173.478 421.644 176.49 420.51 179.227C419.376 181.965 417.456 184.305 414.992 185.951C412.528 187.597 409.632 188.476 406.669 188.476C402.696 188.476 398.885 186.897 396.075 184.088C393.266 181.278 391.688 177.467 391.688 173.494Z" fill="#A8DAD2"/>
<path d="M577.329 426.476L524.755 478.495C523.872 479.453 522.799 480.218 521.606 480.741C520.412 481.264 519.123 481.534 517.819 481.534C516.516 481.534 515.227 481.264 514.033 480.741C512.839 480.218 511.767 479.453 510.883 478.495C509.925 477.611 509.16 476.539 508.637 475.345C508.114 474.151 507.844 472.862 507.844 471.559C507.844 470.255 508.114 468.966 508.637 467.772C509.16 466.579 509.925 465.506 510.883 464.623L563.457 412.049C564.361 411.126 565.44 410.393 566.631 409.893C567.822 409.393 569.101 409.135 570.393 409.135C571.685 409.135 572.964 409.393 574.155 409.893C575.346 410.393 576.425 411.126 577.329 412.049C578.359 412.948 579.185 414.056 579.75 415.301C580.316 416.545 580.609 417.896 580.609 419.263C580.609 420.629 580.316 421.98 579.75 423.225C579.185 424.469 578.359 425.577 577.329 426.476Z" fill="white"/>
</g>
</svg>
