<svg width="374" height="993" viewBox="0 0 374 993" fill="none" xmlns="http://www.w3.org/2000/svg">
<g opacity="0.15">
<path d="M364.183 204.704L465.186 103.701C466.89 101.993 468.914 100.639 471.142 99.7144C473.37 98.7902 475.759 98.3145 478.171 98.3145C480.583 98.3145 482.972 98.7902 485.2 99.7144C487.428 100.639 489.452 101.993 491.156 103.701C492.863 105.405 494.218 107.428 495.142 109.657C496.066 111.885 496.542 114.273 496.542 116.685C496.542 119.097 496.066 121.486 495.142 123.714C494.218 125.942 492.863 127.966 491.156 129.67L390.152 230.673C388.448 232.381 386.424 233.735 384.196 234.659C381.968 235.584 379.58 236.059 377.168 236.059C374.755 236.059 372.367 235.584 370.139 234.659C367.911 233.735 365.887 232.381 364.183 230.673C362.476 228.969 361.121 226.945 360.197 224.717C359.273 222.489 358.797 220.101 358.797 217.689C358.797 215.276 359.273 212.888 360.197 210.66C361.121 208.432 362.476 206.408 364.183 204.704Z" fill="#5F0F4E" style="mix-blend-mode:multiply"/>
<path d="M402.476 514.057L348.77 567.763C346.929 569.578 344.448 570.596 341.863 570.596C339.278 570.596 336.797 569.578 334.956 567.763C333.141 565.923 332.123 563.442 332.123 560.856C332.123 558.271 333.141 555.79 334.956 553.95L388.663 500.243C390.503 498.428 392.984 497.41 395.569 497.41C398.154 497.41 400.636 498.428 402.476 500.243C404.291 502.084 405.309 504.565 405.309 507.15C405.309 509.735 404.291 512.216 402.476 514.057Z" fill="white"/>
<path d="M226.321 31.5835L125.318 132.697C121.849 136.092 117.188 137.994 112.333 137.994C107.479 137.994 102.818 136.092 99.3489 132.697C95.9539 129.228 94.0527 124.567 94.0527 119.713C94.0527 114.859 95.9539 110.198 99.3489 106.728L200.463 5.61437C203.914 2.22633 208.556 0.328125 213.392 0.328125C218.228 0.328125 222.871 2.22633 226.321 5.61437C228.029 7.31827 229.383 9.34218 230.308 11.5702C231.232 13.7983 231.708 16.1868 231.708 18.5989C231.708 21.0111 231.232 23.3996 230.308 25.6276C229.383 27.8557 228.029 29.8796 226.321 31.5835Z" fill="#5F0F4E" style="mix-blend-mode:multiply"/>
<path d="M135.389 82.8215L48.814 169.421C45.8569 172.354 41.8608 174 37.6961 174C33.5313 174 29.5353 172.354 26.5782 169.421C23.6455 166.463 22 162.465 22 158.3C22 154.134 23.6455 150.136 26.5782 147.179L113.219 60.5795C116.176 57.646 120.172 56 124.337 56C128.501 56 132.497 57.646 135.455 60.5795C138.379 63.5461 140.012 67.5481 140 71.714C139.988 75.8799 138.33 79.8722 135.389 82.8215Z" fill="#A8DAD2"/>
<path d="M301.512 424.958L156.085 570.385C151.117 575.311 144.405 578.075 137.409 578.075C130.413 578.075 123.701 575.311 118.733 570.385C113.807 565.418 111.043 558.705 111.043 551.709C111.043 544.713 113.807 538.001 118.733 533.034L264.161 387.606C269.128 382.68 275.84 379.916 282.836 379.916C289.832 379.916 296.545 382.68 301.512 387.606C306.438 392.574 309.202 399.286 309.202 406.282C309.202 413.278 306.438 419.99 301.512 424.958Z" fill="#5F0F4E" style="mix-blend-mode:multiply"/>
<path d="M259.083 411.475L160.732 509.826C159.079 511.484 157.116 512.799 154.954 513.696C152.792 514.593 150.475 515.055 148.134 515.055C145.794 515.055 143.476 514.593 141.315 513.696C139.153 512.799 137.189 511.484 135.537 509.826C132.183 506.47 130.299 501.919 130.299 497.173C130.299 492.428 132.183 487.877 135.537 484.52L233.777 386.39C237.134 383.036 241.685 381.152 246.43 381.152C251.175 381.152 255.727 383.036 259.083 386.39C262.397 389.724 264.257 394.233 264.257 398.933C264.257 403.633 262.397 408.142 259.083 411.475Z" fill="#A8DAD2"/>
<path d="M19.1562 316.25L-59.1933 394.489C-60.6628 395.947 -62.6488 396.764 -64.7187 396.764C-66.7885 396.764 -68.7745 395.947 -70.244 394.489C-71.7016 393.019 -72.5195 391.033 -72.5195 388.964C-72.5195 386.894 -71.7016 384.908 -70.244 383.438L7.99498 305.089C9.47818 303.657 11.459 302.857 13.5203 302.857C15.5816 302.857 17.5625 303.657 19.0457 305.089C20.525 306.562 21.3657 308.559 21.3863 310.647C21.407 312.735 20.606 314.747 19.1562 316.25Z" fill="#A8DAD2"/>
<path d="M348.021 477.257L381.173 444.105C382.31 442.991 383.837 442.367 385.428 442.367C387.019 442.367 388.546 442.991 389.682 444.105C390.796 445.241 391.42 446.768 391.42 448.359C391.42 449.95 390.796 451.477 389.682 452.614L356.53 485.766C355.394 486.879 353.867 487.503 352.276 487.503C350.685 487.503 349.157 486.879 348.021 485.766C347.457 485.21 347.008 484.548 346.702 483.818C346.396 483.087 346.238 482.303 346.238 481.511C346.238 480.719 346.396 479.935 346.702 479.205C347.008 478.474 347.457 477.812 348.021 477.257Z" fill="#7191AA"/>
<path d="M123.874 209.719L143.655 189.939C144.772 188.832 146.281 188.211 147.854 188.211C149.427 188.211 150.936 188.832 152.053 189.939C153.167 191.075 153.79 192.602 153.79 194.193C153.79 195.784 153.167 197.311 152.053 198.448L132.383 218.67C131.247 219.784 129.719 220.408 128.128 220.408C126.537 220.408 125.01 219.784 123.874 218.67C123.239 218.11 122.73 217.422 122.382 216.65C122.034 215.878 121.854 215.041 121.854 214.195C121.854 213.348 122.034 212.511 122.382 211.74C122.73 210.968 123.239 210.279 123.874 209.719Z" fill="#A8DAD2"/>
<path d="M325.094 265.248L406.095 184.246C406.983 183.382 408.172 182.898 409.411 182.898C410.649 182.898 411.838 183.382 412.726 184.246C413.59 185.133 414.073 186.323 414.073 187.561C414.073 188.8 413.59 189.989 412.726 190.876L331.724 271.878C330.824 272.717 329.639 273.183 328.409 273.183C327.178 273.183 325.994 272.717 325.094 271.878C324.23 270.991 323.746 269.801 323.746 268.563C323.746 267.324 324.23 266.135 325.094 265.248Z" fill="#A8DAD2"/>
<path d="M82.806 437.034C93.3034 437.034 101.813 428.524 101.813 418.027C101.813 407.529 93.3034 399.02 82.806 399.02C72.3087 399.02 63.7988 407.529 63.7988 418.027C63.7988 428.524 72.3087 437.034 82.806 437.034Z" fill="white"/>
<path d="M43.7803 289.286C43.7803 291.143 43.2294 292.959 42.1973 294.504C41.1652 296.049 39.6982 297.253 37.9818 297.964C36.2654 298.675 34.3768 298.861 32.5547 298.498C30.7326 298.136 29.0589 297.241 27.7453 295.928C26.4316 294.614 25.5371 292.94 25.1746 291.118C24.8122 289.296 24.9982 287.407 25.7092 285.691C26.4201 283.975 27.624 282.508 29.1687 281.476C30.7134 280.443 32.5295 279.893 34.3872 279.893C36.8784 279.893 39.2676 280.882 41.0292 282.644C42.7907 284.405 43.7803 286.794 43.7803 289.286Z" fill="#A8DAD2"/>
<path d="M4.75106 251.823C4.75106 253.681 4.20014 255.497 3.16801 257.041C2.13589 258.586 0.668914 259.79 -1.04745 260.501C-2.76381 261.212 -4.65245 261.398 -6.47454 261.035C-8.29662 260.673 -9.97032 259.778 -11.284 258.465C-12.5976 257.151 -13.4922 255.477 -13.8547 253.655C-14.2171 251.833 -14.0311 249.945 -13.3201 248.228C-12.6092 246.512 -11.4052 245.045 -9.86056 244.013C-8.31587 242.981 -6.49983 242.43 -4.64206 242.43C-3.40854 242.43 -2.18707 242.673 -1.04745 243.145C0.0921726 243.617 1.12767 244.309 1.9999 245.181C2.87213 246.053 3.56398 247.089 4.03603 248.228C4.50808 249.368 4.75106 250.589 4.75106 251.823Z" fill="white"/>
<path d="M15.3932 401.009C20.5808 401.009 24.7862 396.803 24.7862 391.616C24.7862 386.428 20.5808 382.223 15.3932 382.223C10.2055 382.223 6 386.428 6 391.616C6 396.803 10.2055 401.009 15.3932 401.009Z" fill="#5F0F4E" style="mix-blend-mode:multiply"/>
<path d="M266.118 142.477L366.238 42.247C368.171 40.3963 370.744 39.3633 373.421 39.3633C376.097 39.3633 378.67 40.3963 380.603 42.247C382.454 44.1804 383.487 46.7536 383.487 49.43C383.487 52.1064 382.454 54.6795 380.603 56.6129L280.484 156.732C278.551 158.583 275.978 159.616 273.301 159.616C270.625 159.616 268.052 158.583 266.118 156.732C264.249 154.831 263.201 152.271 263.201 149.605C263.201 146.938 264.249 144.378 266.118 142.477Z" fill="#A8DAD2"/>
<path d="M-106.071 179.664L-5.95119 79.5444C-5.01678 78.6055 -3.90606 77.8605 -2.68287 77.3521C-1.45968 76.8437 -0.148109 76.582 1.17651 76.582C2.50114 76.582 3.81271 76.8437 5.0359 77.3521C6.25909 77.8605 7.3698 78.6055 8.30422 79.5444C10.2072 81.4505 11.276 84.0339 11.276 86.7273C11.276 89.4208 10.2072 92.0042 8.30422 93.9103L-91.3731 194.03C-93.2745 195.899 -95.8343 196.947 -98.5008 196.947C-101.167 196.947 -103.727 195.899 -105.629 194.03C-107.591 192.183 -108.74 189.632 -108.823 186.938C-108.906 184.244 -107.916 181.628 -106.071 179.664Z" fill="#5F0F4E" style="mix-blend-mode:multiply"/>
<path d="M184.881 165.519C184.881 163.158 185.581 160.851 186.892 158.888C188.204 156.925 190.068 155.396 192.248 154.492C194.429 153.589 196.829 153.353 199.144 153.813C201.459 154.274 203.586 155.41 205.255 157.08C206.924 158.749 208.061 160.875 208.521 163.19C208.982 165.506 208.745 167.905 207.842 170.086C206.939 172.267 205.409 174.131 203.446 175.442C201.484 176.754 199.176 177.454 196.816 177.454C193.65 177.454 190.615 176.196 188.376 173.958C186.138 171.72 184.881 168.684 184.881 165.519Z" fill="#A8DAD2"/>
<path d="M332.77 367.053L290.888 408.493C290.185 409.256 289.33 409.866 288.379 410.283C287.428 410.699 286.401 410.914 285.363 410.914C284.325 410.914 283.298 410.699 282.347 410.283C281.396 409.866 280.541 409.256 279.838 408.493C279.074 407.789 278.465 406.935 278.048 405.984C277.631 405.033 277.416 404.006 277.416 402.968C277.416 401.929 277.631 400.902 278.048 399.951C278.465 399 279.074 398.146 279.838 397.442L321.72 355.56C322.44 354.825 323.3 354.241 324.248 353.842C325.197 353.444 326.216 353.238 327.245 353.238C328.274 353.238 329.293 353.444 330.242 353.842C331.19 354.241 332.05 354.825 332.77 355.56C333.591 356.276 334.249 357.159 334.7 358.15C335.15 359.141 335.383 360.218 335.383 361.306C335.383 362.395 335.15 363.472 334.7 364.463C334.249 365.454 333.591 366.337 332.77 367.053Z" fill="white"/>
<path d="M144.417 665.127L72.9186 736.514C71.717 737.724 70.288 738.684 68.7139 739.339C67.1397 739.994 65.4515 740.331 63.7465 740.331C62.0416 740.331 60.3535 739.994 58.7793 739.339C57.2052 738.684 55.7762 737.724 54.5745 736.514C53.365 735.313 52.4051 733.884 51.7501 732.309C51.095 730.735 50.7578 729.047 50.7578 727.342C50.7578 725.637 51.095 723.949 51.7501 722.375C52.4051 720.801 53.365 719.372 54.5745 718.17L126.625 646.672C129.08 644.282 132.371 642.945 135.797 642.945C139.223 642.945 142.514 644.282 144.969 646.672C146.147 647.919 147.066 649.386 147.676 650.989C148.285 652.592 148.573 654.3 148.521 656.014C148.47 657.728 148.081 659.416 147.377 660.979C146.672 662.543 145.667 663.952 144.417 665.127Z" fill="white"/>
<path d="M326.546 599.161L255.048 670.548C253.846 671.758 252.417 672.718 250.843 673.373C249.269 674.028 247.58 674.365 245.875 674.365C244.17 674.365 242.482 674.028 240.908 673.373C239.334 672.718 237.905 671.758 236.703 670.548C235.494 669.347 234.534 667.918 233.879 666.344C233.224 664.769 232.887 663.081 232.887 661.376C232.887 659.671 233.224 657.983 233.879 656.409C234.534 654.835 235.494 653.406 236.703 652.204L308.201 580.817C309.403 579.607 310.832 578.647 312.406 577.992C313.98 577.337 315.669 577 317.374 577C319.078 577 320.767 577.337 322.341 577.992C323.915 578.647 325.344 579.607 326.546 580.817C328.935 583.272 330.272 586.563 330.272 589.989C330.272 593.415 328.935 596.706 326.546 599.161Z" fill="#A8DAD2"/>
<path d="M144.98 905.936L63.978 986.937C63.0907 987.802 61.9012 988.285 60.6628 988.285C59.4243 988.285 58.2348 987.802 57.3475 986.937C56.4835 986.05 56 984.861 56 983.622C56 982.384 56.4835 981.194 57.3475 980.307L138.349 899.305C139.249 898.466 140.434 898 141.664 898C142.895 898 144.08 898.466 144.98 899.305C145.844 900.193 146.327 901.382 146.327 902.621C146.327 903.859 145.844 905.049 144.98 905.936Z" fill="white"/>
<path d="M39.8412 764.585C47.2871 764.585 53.3231 758.549 53.3231 751.103C53.3231 743.657 47.2871 737.621 39.8412 737.621C32.3954 737.621 26.3594 743.657 26.3594 751.103C26.3594 758.549 32.3954 764.585 39.8412 764.585Z" fill="white"/>
<path d="M215.624 705.026C223.07 705.026 229.106 698.99 229.106 691.544C229.106 684.099 223.07 678.062 215.624 678.062C208.179 678.062 202.143 684.099 202.143 691.544C202.143 698.99 208.179 705.026 215.624 705.026Z" fill="#A8DAD2"/>
<path d="M17.6757 693.971C17.6903 695.199 17.461 696.418 17.0011 697.557C16.5411 698.696 15.8597 699.733 14.9963 700.607C14.1328 701.48 13.1046 702.174 11.9711 702.647C10.8376 703.121 9.62152 703.364 8.39316 703.364C5.90196 703.364 3.51276 702.375 1.75121 700.613C-0.0103381 698.852 -1 696.462 -1 693.971C-1 691.48 -0.0103381 689.091 1.75121 687.329C3.51276 685.568 5.90196 684.578 8.39316 684.578C9.62152 684.578 10.8376 684.822 11.9711 685.295C13.1046 685.769 14.1328 686.462 14.9963 687.336C15.8597 688.21 16.5411 689.246 17.0011 690.385C17.461 691.524 17.6903 692.743 17.6757 693.971Z" fill="#7191AA"/>
<path d="M285.917 831.114L386.036 730.884C387.97 729.033 390.543 728 393.219 728C395.896 728 398.469 729.033 400.402 730.884C402.253 732.817 403.286 735.39 403.286 738.067C403.286 740.743 402.253 743.316 400.402 745.25L300.283 845.369C298.349 847.22 295.776 848.253 293.1 848.253C290.424 848.253 287.85 847.22 285.917 845.369C284.048 843.468 283 840.908 283 838.241C283 835.575 284.048 833.015 285.917 831.114Z" fill="#5F0F4E" style="mix-blend-mode:multiply"/>
<path d="M235.979 1036.51L366.378 905.891C367.6 904.658 369.055 903.68 370.657 903.012C372.26 902.344 373.979 902 375.715 902C377.452 902 379.171 902.344 380.774 903.012C382.376 903.68 383.831 904.658 385.053 905.891C387.49 908.388 388.854 911.74 388.854 915.229C388.854 918.718 387.49 922.069 385.053 924.567L254.324 1055.3C251.826 1057.73 248.475 1059.1 244.986 1059.1C241.496 1059.1 238.145 1057.73 235.648 1055.3C233.248 1052.74 231.94 1049.34 232.002 1045.84C232.064 1042.33 233.491 1038.98 235.979 1036.51Z" fill="#5F0F4E" style="mix-blend-mode:multiply"/>
</g>
</svg>
