<svg width="375" height="553" viewBox="0 0 375 553" fill="none" xmlns="http://www.w3.org/2000/svg">
<mask id="mask0_226_189" style="mask-type:alpha" maskUnits="userSpaceOnUse" x="0" y="31" width="375" height="522">
<rect y="31" width="375" height="522" fill="#13ABA3"/>
</mask>
<g mask="url(#mask0_226_189)">
<g opacity="0.2">
<path d="M-0.814674 353.435L-64.6099 417.579C-66.7988 419.721 -69.7396 420.92 -72.8022 420.92C-75.8648 420.92 -78.8056 419.721 -80.9945 417.579C-83.1365 415.39 -84.3359 412.449 -84.3359 409.387C-84.3359 406.324 -83.1365 403.383 -80.9945 401.194L-17.269 337.05C-15.0801 334.908 -12.1393 333.709 -9.07669 333.709C-6.0141 333.709 -3.07333 334.908 -0.884415 337.05C1.26691 339.23 2.47895 342.166 2.49198 345.229C2.50501 348.291 1.31802 351.237 -0.814674 353.435Z" fill="white"/>
<path d="M467.095 296.961L391.079 372.875C389.801 374.161 388.282 375.182 386.608 375.879C384.935 376.575 383.14 376.934 381.327 376.934C379.514 376.934 377.72 376.575 376.046 375.879C374.372 375.182 372.853 374.161 371.575 372.875C370.289 371.597 369.269 370.078 368.573 368.404C367.876 366.73 367.518 364.934 367.518 363.121C367.518 361.308 367.876 359.513 368.573 357.839C369.269 356.165 370.289 354.646 371.575 353.368L447.591 277.453C448.869 276.167 450.388 275.146 452.062 274.45C453.736 273.753 455.53 273.395 457.343 273.395C459.156 273.395 460.95 273.753 462.624 274.45C464.298 275.146 465.817 276.167 467.095 277.453C469.635 280.064 471.057 283.564 471.057 287.207C471.057 290.85 469.635 294.35 467.095 296.961Z" fill="#A8DAD2"/>
<path d="M272.434 335.401L238.55 369.286C237.388 370.431 235.823 371.073 234.192 371.073C232.561 371.073 230.996 370.431 229.834 369.286C228.689 368.125 228.047 366.559 228.047 364.928C228.047 363.297 228.689 361.732 229.834 360.571L263.719 326.686C264.88 325.541 266.446 324.898 268.077 324.898C269.708 324.898 271.273 325.541 272.434 326.686C273.58 327.847 274.222 329.413 274.222 331.044C274.222 332.675 273.58 334.24 272.434 335.401Z" fill="white"/>
<path d="M123.313 192.909L59.5874 256.704C57.3985 258.846 54.4577 260.046 51.3951 260.046C48.3325 260.046 45.3917 258.846 43.2028 256.704C41.0608 254.516 39.8613 251.575 39.8613 248.512C39.8613 245.45 41.0608 242.509 43.2028 240.32L106.998 176.525C109.175 174.387 112.104 173.189 115.155 173.189C118.207 173.189 121.136 174.387 123.313 176.525C124.39 177.6 125.245 178.877 125.828 180.282C126.411 181.688 126.711 183.195 126.711 184.717C126.711 186.239 126.411 187.746 125.828 189.152C125.245 190.557 124.39 191.834 123.313 192.909Z" fill="#9B2983" style="mix-blend-mode:multiply"/>
<path d="M99.7594 191.307L8.00581 283.06C4.87182 286.168 0.636738 287.912 -3.77712 287.912C-8.19098 287.912 -12.4261 286.168 -15.5601 283.06C-18.6681 279.926 -20.4121 275.691 -20.4121 271.277C-20.4121 266.863 -18.6681 262.628 -15.5601 259.494L76.2632 167.741C79.3972 164.633 83.6323 162.889 88.0462 162.889C92.46 162.889 96.6951 164.633 99.8291 167.741C102.928 170.884 104.659 175.124 104.646 179.538C104.633 183.952 102.877 188.182 99.7594 191.307Z" fill="#A8DAD2"/>
<path d="M208.738 279.187L116.984 370.941C113.85 374.049 109.615 375.793 105.201 375.793C100.788 375.793 96.5525 374.049 93.4185 370.941C90.3104 367.807 88.5664 363.572 88.5664 359.158C88.5664 354.744 90.3104 350.509 93.4185 347.375L185.172 255.622C188.306 252.513 192.541 250.77 196.955 250.77C201.369 250.77 205.604 252.513 208.738 255.622C211.846 258.756 213.59 262.991 213.59 267.405C213.59 271.818 211.846 276.053 208.738 279.187Z" fill="#9B2983" style="mix-blend-mode:multiply"/>
<path d="M4.17149 343.529L-87.5821 435.283C-90.716 438.391 -94.9512 440.135 -99.365 440.135C-103.779 440.135 -108.014 438.391 -111.148 435.283C-114.256 432.149 -116 427.914 -116 423.5C-116 419.086 -114.256 414.851 -111.148 411.717L-19.3944 319.963C-16.2604 316.855 -12.0253 315.111 -7.61147 315.111C-3.19761 315.111 1.0375 316.855 4.17149 319.963C7.27958 323.097 9.02352 327.332 9.02352 331.746C9.02352 336.16 7.27958 340.395 4.17149 343.529Z" fill="#9B2983" style="mix-blend-mode:multiply"/>
<path d="M227.117 238.243L165.064 300.295C164.022 301.341 162.783 302.17 161.419 302.736C160.055 303.302 158.593 303.594 157.116 303.594C155.639 303.594 154.177 303.302 152.813 302.736C151.449 302.17 150.211 301.341 149.168 300.295C147.052 298.177 145.863 295.306 145.863 292.312C145.863 289.318 147.052 286.447 149.168 284.329L211.15 222.416C213.268 220.3 216.14 219.111 219.133 219.111C222.127 219.111 224.999 220.3 227.117 222.416C229.207 224.519 230.38 227.364 230.38 230.329C230.38 233.295 229.207 236.14 227.117 238.243Z" fill="#A8DAD2"/>
<path d="M238.078 312.185L258.995 291.268C259.711 290.565 260.675 290.172 261.679 290.172C262.683 290.172 263.646 290.565 264.363 291.268C265.066 291.985 265.459 292.949 265.459 293.952C265.459 294.956 265.066 295.92 264.363 296.637L243.447 317.553C242.73 318.256 241.766 318.649 240.762 318.649C239.759 318.649 238.795 318.256 238.078 317.553C237.722 317.203 237.439 316.785 237.246 316.324C237.053 315.863 236.953 315.368 236.953 314.869C236.953 314.369 237.053 313.874 237.246 313.414C237.439 312.953 237.722 312.535 238.078 312.185Z" fill="#7191AA"/>
<path d="M70.7499 286.805C77.373 286.805 82.742 281.435 82.742 274.812C82.742 268.189 77.373 262.82 70.7499 262.82C64.1269 262.82 58.7578 268.189 58.7578 274.812C58.7578 281.435 64.1269 286.805 70.7499 286.805Z" fill="white"/>
<path d="M275.219 284.016C275.003 284.773 274.545 285.44 273.916 285.914C273.287 286.389 272.521 286.646 271.733 286.646C270.945 286.646 270.179 286.389 269.55 285.914C268.921 285.44 268.463 284.773 268.247 284.016C268.093 283.476 268.066 282.908 268.169 282.357C268.271 281.805 268.501 281.285 268.839 280.837C269.176 280.389 269.614 280.025 270.116 279.775C270.618 279.525 271.172 279.395 271.733 279.395C272.294 279.395 272.848 279.525 273.35 279.775C273.852 280.025 274.289 280.389 274.627 280.837C274.965 281.285 275.195 281.805 275.297 282.357C275.4 282.908 275.373 283.476 275.219 284.016Z" fill="#3D5262"/>
<path d="M21.5031 169.952C21.5031 171.124 21.1555 172.27 20.5043 173.244C19.8531 174.219 18.9275 174.978 17.8447 175.427C16.7618 175.875 15.5702 175.993 14.4206 175.764C13.271 175.536 12.215 174.971 11.3862 174.142C10.5574 173.313 9.99293 172.257 9.76427 171.108C9.5356 169.958 9.65296 168.767 10.1015 167.684C10.5501 166.601 11.3097 165.675 12.2842 165.024C13.2588 164.373 14.4046 164.025 15.5767 164.025C16.355 164.025 17.1256 164.179 17.8447 164.477C18.5637 164.774 19.217 165.211 19.7673 165.761C20.3176 166.311 20.7541 166.965 21.0519 167.684C21.3498 168.403 21.5031 169.173 21.5031 169.952Z" fill="white"/>
<path d="M152.796 239.509C156.069 239.509 158.722 236.856 158.722 233.583C158.722 230.31 156.069 227.656 152.796 227.656C149.522 227.656 146.869 230.31 146.869 233.583C146.869 236.856 149.522 239.509 152.796 239.509Z" fill="#9B2983" style="mix-blend-mode:multiply"/>
<path d="M15.1703 135.928C15.1703 137.611 14.6714 139.255 13.7367 140.654C12.8021 142.053 11.4736 143.143 9.91934 143.787C8.36506 144.431 6.65479 144.599 5.00478 144.271C3.35477 143.943 1.83914 143.132 0.64955 141.943C-0.54004 140.753 -1.35014 139.238 -1.67835 137.588C-2.00656 135.938 -1.83812 134.227 -1.19432 132.673C-0.550516 131.119 0.539721 129.79 1.93853 128.856C3.33734 127.921 4.98189 127.422 6.66423 127.422C7.78384 127.413 8.8941 127.627 9.9303 128.051C10.9665 128.475 11.9079 129.101 12.6996 129.893C13.4913 130.685 14.1175 131.626 14.5417 132.662C14.9659 133.698 15.1796 134.809 15.1703 135.928Z" fill="#A8DAD2"/>
<path d="M186.407 100.961L249.575 37.7237C250.794 36.5561 252.418 35.9043 254.106 35.9043C255.795 35.9043 257.419 36.5561 258.638 37.7237C259.806 38.9436 260.458 40.567 260.458 42.2556C260.458 43.9442 259.806 45.5677 258.638 46.7875L195.471 109.955C194.251 111.123 192.627 111.775 190.939 111.775C189.25 111.775 187.627 111.123 186.407 109.955C185.227 108.756 184.566 107.141 184.566 105.458C184.566 103.776 185.227 102.161 186.407 100.961Z" fill="#A8DAD2"/>
<path d="M318.897 248.3L409.679 157.393C411.432 155.714 413.765 154.777 416.192 154.777C418.619 154.777 420.952 155.714 422.705 157.393C424.383 159.146 425.32 161.48 425.32 163.908C425.32 166.335 424.383 168.669 422.705 170.423L331.923 261.23C330.17 262.908 327.837 263.845 325.41 263.845C322.983 263.845 320.65 262.908 318.897 261.23C317.202 259.505 316.252 257.184 316.252 254.765C316.252 252.347 317.202 250.025 318.897 248.3Z" fill="#A8DAD2"/>
<path d="M-48.4164 124.423L14.7513 61.2557C15.3409 60.6634 16.0416 60.1933 16.8134 59.8726C17.5851 59.5518 18.4126 59.3867 19.2484 59.3867C20.0841 59.3867 20.9116 59.5518 21.6833 59.8726C22.4551 60.1933 23.1559 60.6634 23.7454 61.2557C24.946 62.4584 25.6204 64.0883 25.6204 65.7876C25.6204 67.487 24.946 69.1169 23.7454 70.3195L-39.1434 133.487C-40.3431 134.667 -41.9581 135.328 -43.6405 135.328C-45.3229 135.328 -46.9379 134.667 -48.1375 133.487C-49.3759 132.322 -50.1009 130.713 -50.1532 129.013C-50.2055 127.313 -49.5808 125.663 -48.4164 124.423Z" fill="#9B2983" style="mix-blend-mode:multiply"/>
<path d="M298.892 466.095L362.06 402.928C362.649 402.335 363.35 401.865 364.122 401.544C364.894 401.224 365.721 401.059 366.557 401.059C367.393 401.059 368.22 401.224 368.992 401.544C369.764 401.865 370.464 402.335 371.054 402.928C372.255 404.13 372.929 405.76 372.929 407.46C372.929 409.159 372.255 410.789 371.054 411.991L308.165 475.159C306.965 476.339 305.35 477 303.668 477C301.986 477 300.371 476.339 299.171 475.159C297.933 473.994 297.208 472.385 297.155 470.685C297.103 468.985 297.728 467.335 298.892 466.095Z" fill="#9B2983" style="mix-blend-mode:multiply"/>
<path d="M135.152 115.501C135.152 114.011 135.594 112.556 136.421 111.317C137.249 110.079 138.425 109.114 139.801 108.544C141.177 107.974 142.691 107.825 144.151 108.115C145.612 108.406 146.954 109.123 148.007 110.176C149.06 111.229 149.777 112.571 150.068 114.032C150.358 115.492 150.209 117.006 149.639 118.382C149.069 119.758 148.104 120.934 146.866 121.762C145.627 122.589 144.172 123.031 142.682 123.031C140.685 123.031 138.77 122.237 137.358 120.825C135.946 119.413 135.152 117.498 135.152 115.501Z" fill="#A8DAD2"/>
<path d="M352.439 395.52C352.439 394.031 352.881 392.575 353.708 391.337C354.536 390.098 355.712 389.133 357.088 388.563C358.464 387.993 359.978 387.844 361.438 388.135C362.899 388.425 364.241 389.143 365.294 390.196C366.347 391.249 367.064 392.59 367.355 394.051C367.645 395.512 367.496 397.026 366.926 398.402C366.356 399.778 365.391 400.954 364.153 401.781C362.914 402.608 361.459 403.05 359.969 403.05C357.972 403.05 356.057 402.257 354.645 400.845C353.233 399.432 352.439 397.517 352.439 395.52Z" fill="#A8DAD2"/>
<path d="M208 357.53C208 356.041 208.442 354.585 209.269 353.347C210.096 352.108 211.272 351.143 212.648 350.573C214.024 350.003 215.538 349.854 216.999 350.145C218.46 350.435 219.801 351.152 220.854 352.205C221.907 353.259 222.625 354.6 222.915 356.061C223.206 357.522 223.057 359.036 222.487 360.412C221.917 361.787 220.952 362.963 219.713 363.791C218.475 364.618 217.019 365.06 215.53 365.06C213.533 365.06 211.618 364.267 210.205 362.854C208.793 361.442 208 359.527 208 357.53Z" fill="#A8DAD2"/>
</g>
</g>
<mask id="mask1_226_189" style="mask-type:alpha" maskUnits="userSpaceOnUse" x="-72" y="123" width="275" height="374">
<rect x="-72" y="123" width="275" height="373.828" fill="#C4C4C4"/>
</mask>
<g mask="url(#mask1_226_189)">
<path d="M145.004 160.799H-28.2324C-39.3212 160.799 -48.3105 169.788 -48.3105 180.877V323.77C-48.3105 334.859 -39.3212 343.848 -28.2324 343.848H145.004C156.093 343.848 165.083 334.859 165.083 323.77V180.877C165.083 169.788 156.093 160.799 145.004 160.799Z" fill="#F7C3EC" stroke="#AA158B" stroke-width="0.8" stroke-linecap="round" stroke-linejoin="round"/>
<path d="M58.4295 258.018C72.604 258.58 76.5844 277.166 95.9796 297.375C95.9796 297.375 114.135 245.838 119.108 224.943C124.081 204.048 129.306 185.403 129.306 182.172C129.306 178.942 122.28 171.664 119.481 168.681C116.682 165.698 105.495 157.862 107.359 153.178C109.224 148.494 115.006 150.756 117.055 152.059C119.104 153.362 125.263 156.907 125.263 156.907C125.263 156.907 121.534 142.36 120.788 138.073C120.042 133.787 121.345 128.931 123.21 128.185C123.21 128.185 123.026 124.641 127.5 123.71C131.975 122.78 138.319 130.611 141.118 137.512C143.917 144.413 152.682 169.033 154.173 170.34C155.665 171.647 156.784 170.152 157.157 166.607C157.53 163.062 155.665 149.076 158.648 145.159C161.632 141.241 166.111 140.495 168.532 147.023C170.954 153.551 173.011 167.554 171.884 178.917C170.757 190.28 164.795 199.447 161.996 210.253C159.197 221.059 148.588 266.206 142.601 290.281C136.613 314.356 129.918 341.398 127.492 343.074C125.066 344.75 85.5299 343.447 85.5299 343.447L36.4826 303.546C32.3765 287.557 48.7298 265.87 58.4295 258.018Z" fill="#F7EAE1"/>
<path d="M112.776 162.655C113.12 159.199 111.481 155.114 107.656 152.6C107.544 152.802 107.445 153.01 107.359 153.224C106.311 155.838 109.386 159.459 112.776 162.655Z" fill="#EDD9A6"/>
<path d="M168.536 147.061C167.133 143.29 165.038 141.941 162.947 142.247L162.289 142.494C162.909 148.171 167.317 152.914 170.409 154.004C169.961 151.646 169.335 149.325 168.536 147.061Z" fill="#EDD9A6"/>
<path d="M125.454 137.738C125.454 137.738 127.411 138.203 129.644 135.777C131.697 133.557 130.222 126.631 128.668 123.698C128.278 123.654 127.883 123.671 127.499 123.748C123.024 124.678 123.208 128.223 123.208 128.223L123.104 128.282C123.686 132.006 125.454 137.738 125.454 137.738Z" fill="#EDD9A6"/>
<path d="M120.787 138.109C120.908 138.809 121.109 139.785 121.365 140.933C123.259 138.528 123.46 132.088 123.305 130.739C123.174 129.988 122.979 129.249 122.723 128.531C121.118 129.847 120.108 134.204 120.787 138.109Z" fill="#EDD9A6"/>
<path d="M123.215 128.221C123.776 136.056 133.271 157.32 133.271 157.32" stroke="#FE7654" stroke-width="0.8" stroke-linecap="round" stroke-linejoin="round"/>
<path d="M125.262 156.943C126.753 162.168 127.688 165.897 127.688 165.897" stroke="#FE7654" stroke-width="0.8" stroke-linecap="round" stroke-linejoin="round"/>
<path d="M-7.34709 170.931C7.94196 167.964 5.89726 178.397 12.2366 178.582C18.576 178.766 19.6989 170.751 26.9726 170.935C34.2463 171.119 33.8734 175.783 35.7379 177.639C37.6024 179.495 43.7574 175.024 49.1457 180.991C54.5339 186.957 50.6373 193.112 49.1457 197.219C47.6541 201.325 42.0605 219.597 34.7868 226.686C27.5131 233.776 25.0871 236.943 17.6081 238.996C10.1291 241.049 12.1989 244.59 6.97824 249.815C1.7576 255.04 -4.02448 253.355 -6.45044 255.97C-8.8764 258.584 -10.368 261.936 -15.4043 267.701C-20.4406 273.467 -24.5425 270.873 -28.6445 271.992C-32.7464 273.111 -28.6445 277.02 -36.2911 279.639C-43.9377 282.257 -43.6193 277.213 -48.3497 278.52C-53.0801 279.827 -53.4531 287.847 -60.1653 290.83C-66.8776 293.813 -73.1541 289.648 -78.3831 289.087C-83.6122 288.525 -85.925 293.235 -95.9808 291.848C-106.037 290.461 -103.942 283.984 -110.465 280.883C-115.192 278.646 -125.637 284.113 -132.349 278.147C-139.062 272.181 -133.468 266.956 -137.574 261.362C-141.68 255.769 -147.27 250.171 -142.795 240.831C-138.32 231.492 -130.485 231.505 -126.383 228.894C-122.281 226.284 -122.277 221.805 -115.565 218.839C-108.852 215.872 -99.0856 219.505 -95.5451 216.974C-88.5814 212.001 -90.9362 203.918 -85.351 199.07C-79.7658 194.223 -73.7868 191.608 -64.8204 194.219C-55.8539 196.829 -52.1374 196.087 -48.0355 191.608C-43.9335 187.129 -43.5564 183.027 -35.7255 179.298C-27.8945 175.569 -24.9071 180.79 -20.4322 180.417C-15.9574 180.044 -13.7493 172.175 -7.34709 170.931Z" fill="#BA7E5D"/>
<path d="M46.9958 194.621C46.9958 194.621 45.0685 199.381 41.1509 200.311C37.4596 201.191 41.1048 206.29 40.1244 211.314C39.3786 215.139 34.933 214.519 34.933 214.519C34.933 214.519 30.8311 210.04 27.7221 212.902C24.6132 215.763 29.0881 223.347 32.4484 224.466C32.4484 224.466 34.3129 239.512 34.3129 245.478C34.3129 251.445 33.8143 258.66 33.8143 258.66L53.5866 262.142C53.5866 262.142 57.0684 258.815 58.3086 257.198C59.5488 255.58 56.817 250.578 56.817 250.578C56.817 250.578 53.088 238.888 53.7081 235.532C53.7081 235.532 59.9259 232.297 59.9259 225.476C59.9259 218.655 59.3352 215.902 59.3352 215.902L62.7877 212.826C63.5628 212.21 63.4957 210.627 62.5991 210.212L58.1871 208.318C58.1871 208.318 57.7681 200.885 55.3254 198.12C52.7151 195.12 46.9958 194.621 46.9958 194.621Z" fill="#F7EAE1"/>
<path d="M52.7966 208.849C52.2058 209.037 51.7617 208.69 51.4851 207.822C51.2086 206.955 51.3678 206.414 51.9628 206.226C52.5577 206.037 52.9977 206.381 53.2742 207.252C53.5507 208.124 53.3916 208.66 52.7966 208.849Z" fill="#303336"/>
<path d="M59.429 218.001C55.3229 218.123 49.8508 216.325 48.7321 217.067C47.6134 217.808 48.4849 221.575 52.7125 223.192C56.9402 224.81 59.9234 224.588 59.9234 224.588C59.9519 222.382 59.7865 220.178 59.429 218.001Z" fill="white"/>
<path d="M59.9234 224.587C59.9234 224.587 56.9402 224.805 52.7126 223.192C48.4849 221.578 47.7098 217.937 48.7321 217.066C49.3564 216.538 53.1148 217.376 54.7321 217.623C56.3495 217.87 59.429 218 59.429 218" stroke="#FE7654" stroke-width="0.8" stroke-linecap="round" stroke-linejoin="round"/>
<path d="M43.7201 219.529C42.3039 219.638 41.4994 218.637 41.3402 216.563C41.181 214.489 41.822 213.379 43.2382 213.27C44.6544 213.161 45.4589 214.162 45.6181 216.236C45.7774 218.31 45.1363 219.421 43.7201 219.529Z" fill="#FE9074"/>
<path d="M29.707 215.637C32.1917 217.128 34.316 220.857 34.316 220.857" stroke="#FE7654" stroke-width="0.8" stroke-linecap="round" stroke-linejoin="round"/>
<path d="M32.4473 224.464C34.9319 225.721 36.4235 224.091 36.6749 222.6" stroke="#FE7654" stroke-width="0.8" stroke-linecap="round" stroke-linejoin="round"/>
<path d="M53.7019 235.531C47.6097 237.27 41.3918 229.811 39.0371 227.201" stroke="#FE7654" stroke-width="0.8" stroke-linecap="round" stroke-linejoin="round"/>
<path d="M41.1499 187.536C37.4208 184.553 32.9418 185.671 28.4669 187.909C23.9921 190.146 19.1402 185.671 18.0215 184.18" stroke="#100C27" stroke-width="0.8" stroke-linecap="round" stroke-linejoin="round"/>
<path d="M11.3043 241.258C3.84209 242.377 -7.34923 239.767 -11.4512 237.906" stroke="#100C27" stroke-width="0.8" stroke-linecap="round" stroke-linejoin="round"/>
<path d="M13.9181 208.047C9.07036 207.675 5.33714 209.543 1.6081 215.51C-2.12094 221.476 -9.95608 219.239 -12.5664 218.12" stroke="#100C27" stroke-width="0.8" stroke-linecap="round" stroke-linejoin="round"/>
<path d="M23.9921 222.229C21.0089 225.212 15.4111 227.822 12.8008 227.076" stroke="#100C27" stroke-width="0.8" stroke-linecap="round" stroke-linejoin="round"/>
<path d="M34.8053 195.367C30.6992 197.609 31.0721 203.948 32.1908 206.558" stroke="#100C27" stroke-width="0.8" stroke-linecap="round" stroke-linejoin="round"/>
<path d="M48.0156 204.166C49.0422 202.112 52.5198 200.964 54.5729 201.337" stroke="#100C27" stroke-width="0.8" stroke-linecap="round" stroke-linejoin="round"/>
<path d="M23.6185 261.023C29.9579 255.425 36.4858 256.917 42.2679 256.917C47.2958 256.917 53.8321 260.646 53.8321 260.646C56.4424 258.316 56.8488 254.78 57.0038 250.762C57.0038 250.762 66.3893 253.808 70.3697 254.306C74.3502 254.805 65.8949 276.438 65.8949 276.438L56.941 343.334H-10.4414C-10.4414 343.334 -1.36183 314.738 4.22334 299.813C9.61997 285.412 16.3239 267.459 23.6185 261.023Z" fill="#F6B60D"/>
<path d="M75.5895 243.613C83.2696 234.215 96.3548 233.604 104.919 236.587C113.483 239.57 120.774 247.778 122.823 259.715C124.871 271.652 127.302 302.239 128.42 311.938C129.539 321.638 129.35 343.459 129.35 343.459L87.9456 343.832L87.3883 276.689L80.1146 288.626L74.144 298.137L61.834 274.636C61.834 274.636 62.0225 268.296 65.563 260.461C68.915 253.087 71.9862 248.025 75.5895 243.613Z" fill="#E8DACF"/>
<path d="M87.4034 276.688C87.4034 270.161 87.2148 246.471 87.2148 246.471" stroke="#FE7654" stroke-width="0.8" stroke-linecap="round" stroke-linejoin="round"/>
<path d="M87.4034 258.316C86.9341 261.769 83.578 269.692 78.8224 270.999C74.0669 272.307 72.856 271.934 72.856 271.934L67.166 284.801" stroke="#FE7654" stroke-width="0.8" stroke-linecap="round" stroke-linejoin="round"/>
<path d="M81.1534 276.314C79.7581 278.925 72.7735 292.911 71.9355 294.31" stroke="#FE7654" stroke-width="0.8" stroke-linecap="round" stroke-linejoin="round"/>
<path d="M76.4917 273.889C75.3688 276.218 70.1482 286.852 69.4023 288.134" stroke="#FE7654" stroke-width="0.8" stroke-linecap="round" stroke-linejoin="round"/>
<path d="M36.066 270.471C44.4794 264.098 56.4584 264.752 60.9374 267.982C60.9374 267.982 76.3522 303.295 80.0854 310.258C83.8187 317.222 89.7851 334.878 89.7851 334.878L93.7613 344.096H54.221C54.221 344.096 35.073 306.806 31.5954 300.328C28.1177 293.851 25.6289 288.391 25.6289 288.391C25.6289 288.391 27.8454 276.689 36.066 270.471Z" fill="#F7EAE1"/>
<path d="M-10.4448 343.334C-17.6557 362.733 -31.8135 398.293 -23.8526 418.187C-15.8917 438.081 -1.53286 456.672 40.9949 482.41C83.5227 508.149 159.616 555.152 159.616 555.152" stroke="#EDD9A6" stroke-width="0.8" stroke-linecap="round" stroke-linejoin="round"/>
<path d="M1.23694 395.683C11.8668 394.007 43.2033 392.884 55.5133 400.158C67.8233 407.432 156.788 461.708 178.052 477.374C199.316 493.04 227.849 522.139 213.859 554.05C199.869 585.96 175.81 602.167 152.313 602.167C128.816 602.167 68.3805 563.561 48.2396 549.571C28.0986 535.581 -16.1094 504.248 -16.1094 504.248C-16.1094 504.248 -11.0814 489.144 -4.91804 476.834C1.24534 464.524 5.7118 457.744 5.7118 457.744" stroke="#EDD9A6" stroke-width="0.8" stroke-linecap="round" stroke-linejoin="round"/>
<path d="M65.7687 366.215C63.9041 375.537 55.5117 400.153 55.5117 400.153" stroke="#EDD9A6" stroke-width="0.8" stroke-linecap="round" stroke-linejoin="round"/>
<path d="M54.2051 344.079C59.9243 355.27 77.0863 386.355 85.7887 393.566C94.4912 400.777 115.881 398.045 121.847 389.339C127.814 380.632 130.923 355.518 129.389 343.459" stroke="#FE7654" stroke-width="0.8" stroke-linecap="round" stroke-linejoin="round"/>
<path d="M93.7422 344.08C99.2142 354.526 106.672 371.189 106.672 371.189" stroke="#FE7654" stroke-width="0.8" stroke-linecap="round" stroke-linejoin="round"/>
<path d="M165.083 214.025V318.564C165.083 328 164.242 333.258 159.5 338C154.758 342.742 150.5 344 139.796 343.85H-23.0117" stroke="#AA158B" stroke-width="0.8" stroke-linecap="round" stroke-linejoin="round"/>
</g>
<mask id="mask2_226_189" style="mask-type:alpha" maskUnits="userSpaceOnUse" x="169" y="44" width="305" height="400">
<rect x="169.539" y="44.5859" width="304.077" height="399.241" fill="#C4C4C4"/>
</mask>
<g mask="url(#mask2_226_189)">
<path d="M251.625 81.6839C251.625 65.9983 264.86 53.3027 281.148 53.3027L492.223 53.3027C508.531 53.3027 521.751 66.0081 521.751 81.6839L521.751 219.551C521.751 235.236 508.516 247.937 492.223 247.937L281.153 247.937C264.85 247.937 251.63 235.226 251.63 219.551L251.625 81.6839Z" fill="#8AE4E0" stroke="#13ABA3" stroke-width="0.8" stroke-linecap="round" stroke-linejoin="round"/>
<path d="M314.357 139.416L224.459 131.269C224.459 131.269 221.258 118.76 221.258 113.231C221.258 107.702 224.165 96.359 223.292 94.6041C222.42 92.8493 218.64 91.6925 216.018 93.2954C213.395 94.8982 209.185 98.2412 208.749 106.824C208.312 115.407 209.185 119.039 208.165 120.348C208.165 120.348 206.126 102.315 205.548 92.7121C204.969 83.1095 206.126 69.4385 201.327 68.6935C196.529 67.9484 193.181 69.8601 192.308 73.2031C192.308 73.2031 189.98 68.5513 185.617 70.1493C181.255 71.7472 178.926 76.4039 178.201 80.6243C178.201 80.6243 175.289 78.8793 172.525 81.0606C169.76 83.2419 169.324 91.8445 169.618 98.8049C169.912 105.765 172.069 118.588 173.397 126.299C174.726 134.009 176.887 150.592 189.98 161.067C203.072 171.542 244.242 176.63 264.898 179.542C285.554 182.453 329.195 187.978 329.195 187.978L314.357 139.416Z" fill="#E8DACF"/>
<path d="M474.092 123.123C453.798 113.741 400.34 94.3204 367.174 93.0117C334.009 91.7029 318.706 110.687 314.137 118.761L304.334 158.465C304.334 158.465 310.878 170.229 318.735 183.336C325.642 194.851 369.331 237.746 379.767 247.927L492.228 247.927C500.059 247.927 507.57 244.816 513.108 239.278C518.645 233.741 521.756 226.23 521.756 218.399L521.756 149.745C508.448 141.701 487.228 129.206 474.092 123.123Z" fill="#FD633C"/>
<path d="M242.788 122.397C242.788 122.397 240.896 130.396 241.768 136.073C242.641 141.749 241.768 142.469 240.459 144.072C239.151 145.675 239.44 146.69 241.043 146.69C242.646 146.69 244.68 146.254 244.964 147.415C245.248 148.577 245.984 150.905 245.984 150.905C245.984 150.905 248.435 159.052 250.346 161.817C252.258 164.581 259.949 168.218 265.909 166.91C271.87 165.601 282.056 159.067 282.056 159.067L308.824 159.939C308.824 159.939 317.549 148.303 315.079 135.646C312.584 122.902 316.24 116.882 316.24 116.882L282.35 127.941C282.35 127.941 270.713 102.339 257.351 103.922C243.989 105.505 242.788 122.397 242.788 122.397Z" fill="#F7EAE1"/>
<path d="M244.817 123.56C237.699 125.339 228.964 119.05 227.945 111.634C226.989 104.678 232.597 99.2666 238.562 98.8303C244.527 98.3941 248.018 101.159 248.018 101.159C248.018 101.159 247.302 93.7619 252.527 90.8307C254.164 89.8644 256.055 89.4169 257.952 89.5473C259.848 89.6777 261.66 90.3798 263.149 91.561C263.149 91.561 268.11 84.2084 274.203 87.1936C280.747 90.3944 277.256 100.722 277.256 100.722C277.256 100.722 281.913 90.5415 290.06 92.2865C295.942 93.5511 293.55 101.6 293.55 101.6C293.55 101.6 300.53 97.3843 306.059 103.203C311.588 109.021 306.785 122.256 297.04 127.638C289.687 131.697 279.296 135.201 276.673 135.348C274.051 135.495 267.36 131.569 266.203 126.329C265.223 121.883 266.492 118.913 266.492 118.913C264.239 118.462 262.196 117.286 260.674 115.565C257.032 111.516 258.223 107.276 258.223 107.276C258.223 107.276 256.473 114.545 252.831 118.477C249.189 122.408 245.983 123.27 244.817 123.56Z" fill="#292F44"/>
<path d="M271.441 132.436C271.441 127.705 273.623 121.014 277.044 119.269C280.466 117.524 286.936 117.23 288.245 121.887C289.553 126.544 287.754 132.504 285.044 136.073C282.333 139.641 277.843 139.342 275.588 138.764C273.334 138.185 271.441 132.436 271.441 132.436Z" fill="#F7EAE1"/>
<path d="M249.286 137.153C248.585 137.153 248.232 136.628 248.232 135.604C248.232 134.579 248.585 134.055 249.286 134.055C249.987 134.055 250.345 134.579 250.345 135.604C250.345 136.628 249.987 137.153 249.286 137.153Z" fill="#303336"/>
<path d="M276.553 132.873C277.425 130.108 280.768 123.854 283.533 121.814" stroke="#FE7654" stroke-width="0.8" stroke-linecap="round" stroke-linejoin="round"/>
<path d="M276.928 137.745C280.531 138.725 285.658 135.343 287.403 132.068" stroke="#FE7654" stroke-width="0.8" stroke-linecap="round" stroke-linejoin="round"/>
<path d="M246.094 151.274C246.138 151.411 246.653 153.234 247.751 156.126C249.535 155.121 251.148 153.839 252.53 152.328C254.329 150.367 255.804 146.906 255.804 146.906C255.804 146.906 249.971 150.284 246.094 151.274Z" fill="white"/>
<path d="M247.751 156.126C249.535 155.121 251.148 153.839 252.53 152.328C254.329 150.367 255.804 146.906 255.804 146.906C255.804 146.906 249.971 150.284 246.094 151.274" stroke="#FEB9A7" stroke-width="0.8" stroke-linecap="round" stroke-linejoin="round"/>
<path d="M263.055 144.811C261.535 145.428 260.305 144.61 259.403 142.36C258.501 140.11 258.82 138.688 260.339 138.076C261.859 137.463 263.089 138.282 263.986 140.527C264.883 142.772 264.575 144.203 263.055 144.811Z" fill="#FE9074"/>
<path d="M243.367 126.76C246.857 124.432 251.945 124.432 255.131 125.741" stroke="#292F44" stroke-width="0.8" stroke-linecap="round" stroke-linejoin="round"/>
<path d="M282.059 159.054C287.152 155.854 285.406 140.428 285.406 140.428" stroke="#FE7654" stroke-width="0.8" stroke-linecap="round" stroke-linejoin="round"/>
<path d="M178.201 80.6504C176.162 89.8118 178.491 107.12 179.672 110.179" stroke="#FE7654" stroke-width="0.8" stroke-linecap="round" stroke-linejoin="round"/>
<path d="M192.307 73.2285C190.709 79.4832 190.273 98.1049 191.581 103.619C187.639 104.961 183.913 106.872 180.523 109.291C175.435 113.075 173.543 115.982 173.543 115.982" stroke="#FE7654" stroke-width="0.8" stroke-linecap="round" stroke-linejoin="round"/>
<path d="M208.162 120.357C203.942 130.685 198.124 128.94 195.942 143.2C193.761 157.459 199.58 162.547 199.58 162.547" stroke="#FE7654" stroke-width="0.8" stroke-linecap="round" stroke-linejoin="round"/>
<path d="M224.461 131.27C227.221 139.563 226.642 146.955 226.206 149.161" stroke="#FE7654" stroke-width="0.8" stroke-linecap="round" stroke-linejoin="round"/>
<path d="M221.258 93.4473C219.077 96.9422 217.91 104.648 221.258 105.667" stroke="#FE7654" stroke-width="0.8" stroke-linecap="round" stroke-linejoin="round"/>
<path d="M381.845 199.056C371.061 193.821 342.861 172.586 332.97 163.856C323.078 155.126 314.059 138.833 317.843 121.672" stroke="#100C27" stroke-width="0.8" stroke-linecap="round" stroke-linejoin="round"/>
<path d="M441.49 163.562C441.49 163.562 428.103 172.293 421.996 181.018C415.888 189.743 410.648 197.894 410.648 197.894C410.648 197.894 354.498 199.056 335.009 201.679C315.52 204.301 293.702 208.948 284.389 218.55C275.075 228.153 276.825 241.535 279.154 246.49C281.482 251.446 287.589 252.598 291.663 250.853C292.268 251.83 293.132 252.619 294.159 253.133C295.187 253.647 296.337 253.866 297.481 253.765C301.555 253.47 304.755 249.691 304.755 249.691C304.755 249.691 305.917 252.892 309.99 252.598C314.064 252.304 315.809 247.946 315.809 247.946L476.405 247.946C485.424 247.946 500.551 234.56 494.149 213.904C488.718 196.37 441.49 163.562 441.49 163.562Z" fill="#F7EAE1"/>
<path d="M304.755 249.682C301.265 245.898 300.682 233.972 302.716 229.585C304.75 225.198 311.882 222.021 311.882 222.021" stroke="#FE7654" stroke-width="0.8" stroke-linecap="round" stroke-linejoin="round"/>
<path d="M291.664 250.842C288.027 244.587 285.556 233.097 288.61 226.549C291.664 220 298.938 216.51 298.938 216.51" stroke="#FE7654" stroke-width="0.8" stroke-linecap="round" stroke-linejoin="round"/>
<path d="M315.81 247.937C316.83 245.315 314.648 235.57 314.648 235.57" stroke="#FE7654" stroke-width="0.8" stroke-linecap="round" stroke-linejoin="round"/>
<path d="M277.842 240.951C283.371 242.554 287.734 248.662 287.876 251.132" stroke="#FE7654" stroke-width="0.8" stroke-linecap="round" stroke-linejoin="round"/>
<path d="M288.312 242.555C294.131 242.844 298.93 248.373 299.655 252.589" stroke="#FE7654" stroke-width="0.8" stroke-linecap="round" stroke-linejoin="round"/>
<path d="M301.99 242.407C307.519 241.971 312.029 248.662 312.465 251.279" stroke="#FE7654" stroke-width="0.8" stroke-linecap="round" stroke-linejoin="round"/>
<path d="M521.749 125.309L521.749 219.55C521.749 235.235 508.514 247.936 492.221 247.936L404.014 247.936L315.807 247.936" stroke="#13ABA3" stroke-width="0.8" stroke-linecap="round" stroke-linejoin="round"/>
</g>
<mask id="mask3_226_189" style="mask-type:alpha" maskUnits="userSpaceOnUse" x="-72" y="52" width="546" height="445">
<mask id="mask4_226_189" style="mask-type:alpha" maskUnits="userSpaceOnUse" x="-72" y="123" width="275" height="374">
<rect x="-72" y="123" width="275" height="373.828" fill="#C4C4C4"/>
</mask>
<g mask="url(#mask4_226_189)">
<path d="M145.004 160.799H-28.2324C-39.3212 160.799 -48.3105 169.788 -48.3105 180.877V323.77C-48.3105 334.859 -39.3212 343.848 -28.2324 343.848H145.004C156.093 343.848 165.083 334.859 165.083 323.77V180.877C165.083 169.788 156.093 160.799 145.004 160.799Z" fill="#F7C3EC" stroke="#AA158B" stroke-width="0.8" stroke-linecap="round" stroke-linejoin="round"/>
<path d="M58.4295 258.018C72.604 258.58 76.5844 277.166 95.9796 297.375C95.9796 297.375 114.135 245.838 119.108 224.943C124.081 204.048 129.306 185.403 129.306 182.172C129.306 178.942 122.28 171.664 119.481 168.681C116.682 165.698 105.495 157.862 107.359 153.178C109.224 148.494 115.006 150.756 117.055 152.059C119.104 153.362 125.263 156.907 125.263 156.907C125.263 156.907 121.534 142.36 120.788 138.073C120.042 133.787 121.345 128.931 123.21 128.185C123.21 128.185 123.026 124.641 127.5 123.71C131.975 122.78 138.319 130.611 141.118 137.512C143.917 144.413 152.682 169.033 154.173 170.34C155.665 171.647 156.784 170.152 157.157 166.607C157.53 163.062 155.665 149.076 158.648 145.159C161.632 141.241 166.111 140.495 168.532 147.023C170.954 153.551 173.011 167.554 171.884 178.917C170.757 190.28 164.795 199.447 161.996 210.253C159.197 221.059 148.588 266.206 142.601 290.281C136.613 314.356 129.918 341.398 127.492 343.074C125.066 344.75 85.5299 343.447 85.5299 343.447L36.4826 303.546C32.3765 287.557 48.7298 265.87 58.4295 258.018Z" fill="#F7EAE1"/>
<path d="M112.776 162.655C113.12 159.199 111.481 155.114 107.656 152.6C107.544 152.802 107.445 153.01 107.359 153.224C106.311 155.838 109.386 159.459 112.776 162.655Z" fill="#EDD9A6"/>
<path d="M168.536 147.061C167.133 143.29 165.038 141.941 162.947 142.247L162.289 142.494C162.909 148.171 167.317 152.914 170.409 154.004C169.961 151.646 169.335 149.325 168.536 147.061V147.061Z" fill="#EDD9A6"/>
<path d="M125.454 137.738C125.454 137.738 127.411 138.203 129.644 135.777C131.697 133.557 130.222 126.631 128.668 123.698C128.278 123.654 127.883 123.671 127.499 123.748C123.024 124.678 123.208 128.223 123.208 128.223L123.104 128.282C123.686 132.006 125.454 137.738 125.454 137.738Z" fill="#EDD9A6"/>
<path d="M120.787 138.109C120.908 138.809 121.109 139.785 121.365 140.933C123.259 138.528 123.46 132.088 123.305 130.739C123.174 129.988 122.979 129.249 122.723 128.531C121.118 129.847 120.108 134.204 120.787 138.109Z" fill="#EDD9A6"/>
<path d="M123.215 128.221C123.776 136.056 133.271 157.32 133.271 157.32" stroke="#FE7654" stroke-width="0.8" stroke-linecap="round" stroke-linejoin="round"/>
<path d="M125.262 156.943C126.753 162.168 127.688 165.897 127.688 165.897" stroke="#FE7654" stroke-width="0.8" stroke-linecap="round" stroke-linejoin="round"/>
<path d="M-7.34709 170.931C7.94196 167.964 5.89727 178.397 12.2366 178.582C18.576 178.766 19.6989 170.751 26.9726 170.935C34.2463 171.119 33.8734 175.783 35.7379 177.639C37.6024 179.495 43.7574 175.024 49.1457 180.991C54.5339 186.957 50.6373 193.112 49.1457 197.219C47.6541 201.325 42.0605 219.597 34.7868 226.686C27.5131 233.776 25.0871 236.943 17.6081 238.996C10.1291 241.049 12.1989 244.59 6.97825 249.815C1.7576 255.04 -4.02447 253.355 -6.45044 255.97C-8.87641 258.584 -10.368 261.936 -15.4043 267.701C-20.4406 273.467 -24.5425 270.873 -28.6445 271.992C-32.7464 273.111 -28.6445 277.02 -36.2911 279.639C-43.9377 282.257 -43.6193 277.213 -48.3497 278.52C-53.0801 279.827 -53.4531 287.847 -60.1653 290.83C-66.8776 293.813 -73.1541 289.648 -78.3831 289.087C-83.6122 288.525 -85.925 293.235 -95.9808 291.848C-106.037 290.461 -103.942 283.984 -110.465 280.883C-115.192 278.646 -125.637 284.113 -132.349 278.147C-139.062 272.181 -133.468 266.956 -137.574 261.362C-141.68 255.769 -147.27 250.171 -142.795 240.831C-138.32 231.492 -130.485 231.505 -126.383 228.894C-122.281 226.284 -122.277 221.805 -115.565 218.839C-108.852 215.872 -99.0856 219.505 -95.5451 216.974C-88.5814 212.001 -90.9362 203.918 -85.351 199.07C-79.7658 194.223 -73.7868 191.608 -64.8204 194.219C-55.8539 196.829 -52.1374 196.087 -48.0355 191.608C-43.9335 187.129 -43.5564 183.027 -35.7255 179.298C-27.8945 175.569 -24.9071 180.79 -20.4322 180.417C-15.9574 180.044 -13.7493 172.175 -7.34709 170.931Z" fill="#BA7E5D"/>
<path d="M46.9958 194.621C46.9958 194.621 45.0685 199.381 41.1509 200.311C37.4596 201.191 41.1048 206.29 40.1244 211.314C39.3786 215.139 34.933 214.519 34.933 214.519C34.933 214.519 30.8311 210.04 27.7221 212.902C24.6132 215.763 29.0881 223.347 32.4484 224.466C32.4484 224.466 34.3129 239.512 34.3129 245.478C34.3129 251.445 33.8143 258.66 33.8143 258.66L53.5866 262.142C53.5866 262.142 57.0684 258.815 58.3086 257.198C59.5488 255.58 56.817 250.578 56.817 250.578C56.817 250.578 53.088 238.888 53.7081 235.532C53.7081 235.532 59.9259 232.297 59.9259 225.476C59.9259 218.655 59.3352 215.902 59.3352 215.902L62.7877 212.826C63.5628 212.21 63.4957 210.627 62.5991 210.212L58.1871 208.318C58.1871 208.318 57.7681 200.885 55.3254 198.12C52.7151 195.12 46.9958 194.621 46.9958 194.621Z" fill="#F7EAE1"/>
<path d="M52.7966 208.849C52.2058 209.037 51.7617 208.69 51.4851 207.822C51.2086 206.955 51.3678 206.414 51.9628 206.226C52.5577 206.037 52.9977 206.381 53.2742 207.252C53.5507 208.124 53.3916 208.66 52.7966 208.849Z" fill="#303336"/>
<path d="M59.429 218.001C55.3229 218.123 49.8508 216.325 48.7321 217.067C47.6134 217.808 48.4849 221.575 52.7125 223.192C56.9402 224.81 59.9234 224.588 59.9234 224.588C59.9519 222.382 59.7865 220.178 59.429 218.001V218.001Z" fill="white"/>
<path d="M59.9234 224.587C59.9234 224.587 56.9402 224.805 52.7126 223.192C48.4849 221.578 47.7098 217.937 48.7321 217.066C49.3564 216.538 53.1148 217.376 54.7321 217.623C56.3495 217.87 59.429 218 59.429 218" stroke="#FE7654" stroke-width="0.8" stroke-linecap="round" stroke-linejoin="round"/>
<path d="M43.7201 219.529C42.3039 219.638 41.4994 218.637 41.3402 216.563C41.181 214.489 41.822 213.379 43.2382 213.27C44.6544 213.161 45.4589 214.162 45.6181 216.236C45.7774 218.31 45.1363 219.421 43.7201 219.529Z" fill="#FE9074"/>
<path d="M29.707 215.637C32.1917 217.128 34.316 220.857 34.316 220.857" stroke="#FE7654" stroke-width="0.8" stroke-linecap="round" stroke-linejoin="round"/>
<path d="M32.4473 224.464C34.9319 225.721 36.4235 224.091 36.6749 222.6" stroke="#FE7654" stroke-width="0.8" stroke-linecap="round" stroke-linejoin="round"/>
<path d="M53.7019 235.531C47.6097 237.27 41.3918 229.811 39.0371 227.201" stroke="#FE7654" stroke-width="0.8" stroke-linecap="round" stroke-linejoin="round"/>
<path d="M41.1499 187.536C37.4208 184.553 32.9418 185.671 28.4669 187.909C23.9921 190.146 19.1402 185.671 18.0215 184.18" stroke="#100C27" stroke-width="0.8" stroke-linecap="round" stroke-linejoin="round"/>
<path d="M11.3043 241.258C3.84209 242.377 -7.34923 239.767 -11.4512 237.906" stroke="#100C27" stroke-width="0.8" stroke-linecap="round" stroke-linejoin="round"/>
<path d="M13.9181 208.047C9.07036 207.675 5.33714 209.543 1.6081 215.51C-2.12094 221.476 -9.95608 219.239 -12.5664 218.12" stroke="#100C27" stroke-width="0.8" stroke-linecap="round" stroke-linejoin="round"/>
<path d="M23.9921 222.229C21.0089 225.212 15.4111 227.822 12.8008 227.076" stroke="#100C27" stroke-width="0.8" stroke-linecap="round" stroke-linejoin="round"/>
<path d="M34.8053 195.367C30.6992 197.609 31.0721 203.948 32.1908 206.558" stroke="#100C27" stroke-width="0.8" stroke-linecap="round" stroke-linejoin="round"/>
<path d="M48.0156 204.166C49.0422 202.112 52.5198 200.964 54.5729 201.337" stroke="#100C27" stroke-width="0.8" stroke-linecap="round" stroke-linejoin="round"/>
<path d="M23.6185 261.023C29.9579 255.425 36.4858 256.917 42.2679 256.917C47.2958 256.917 53.8321 260.646 53.8321 260.646C56.4424 258.316 56.8488 254.78 57.0038 250.762C57.0038 250.762 66.3893 253.808 70.3697 254.306C74.3502 254.805 65.8949 276.438 65.8949 276.438L56.941 343.334H-10.4414C-10.4414 343.334 -1.36183 314.738 4.22334 299.813C9.61997 285.412 16.3239 267.459 23.6185 261.023Z" fill="#F6B60D"/>
<path d="M75.5895 243.613C83.2696 234.215 96.3548 233.604 104.919 236.587C113.483 239.57 120.774 247.778 122.823 259.715C124.871 271.652 127.302 302.239 128.42 311.938C129.539 321.638 129.35 343.459 129.35 343.459L87.9456 343.832L87.3883 276.689L80.1146 288.626L74.144 298.137L61.834 274.636C61.834 274.636 62.0225 268.296 65.563 260.461C68.915 253.087 71.9862 248.025 75.5895 243.613Z" fill="#E8DACF"/>
<path d="M87.4034 276.688C87.4034 270.161 87.2148 246.471 87.2148 246.471" stroke="#FE7654" stroke-width="0.8" stroke-linecap="round" stroke-linejoin="round"/>
<path d="M87.4034 258.316C86.9341 261.769 83.578 269.692 78.8224 270.999C74.0669 272.307 72.856 271.934 72.856 271.934L67.166 284.801" stroke="#FE7654" stroke-width="0.8" stroke-linecap="round" stroke-linejoin="round"/>
<path d="M81.1534 276.314C79.7581 278.925 72.7735 292.911 71.9355 294.31" stroke="#FE7654" stroke-width="0.8" stroke-linecap="round" stroke-linejoin="round"/>
<path d="M76.4917 273.889C75.3688 276.218 70.1482 286.852 69.4023 288.134" stroke="#FE7654" stroke-width="0.8" stroke-linecap="round" stroke-linejoin="round"/>
<path d="M36.066 270.471C44.4794 264.098 56.4584 264.752 60.9374 267.982C60.9374 267.982 76.3522 303.295 80.0854 310.258C83.8187 317.222 89.7851 334.878 89.7851 334.878L93.7613 344.096H54.221C54.221 344.096 35.073 306.806 31.5954 300.328C28.1177 293.851 25.6289 288.391 25.6289 288.391C25.6289 288.391 27.8454 276.689 36.066 270.471Z" fill="#F7EAE1"/>
<path d="M-10.4448 343.334C-17.6557 362.733 -31.8135 398.293 -23.8526 418.187C-15.8917 438.081 -1.53286 456.672 40.9949 482.41C83.5227 508.149 159.616 555.152 159.616 555.152" stroke="#EDD9A6" stroke-width="0.8" stroke-linecap="round" stroke-linejoin="round"/>
<path d="M1.23694 395.683C11.8668 394.007 43.2033 392.884 55.5133 400.158C67.8233 407.432 156.788 461.708 178.052 477.374C199.316 493.04 227.849 522.139 213.859 554.05C199.869 585.96 175.81 602.167 152.313 602.167C128.816 602.167 68.3805 563.561 48.2396 549.571C28.0986 535.581 -16.1094 504.248 -16.1094 504.248C-16.1094 504.248 -11.0814 489.144 -4.91804 476.834C1.24534 464.524 5.7118 457.744 5.7118 457.744" stroke="#EDD9A6" stroke-width="0.8" stroke-linecap="round" stroke-linejoin="round"/>
<path d="M65.7687 366.215C63.9041 375.537 55.5117 400.153 55.5117 400.153" stroke="#EDD9A6" stroke-width="0.8" stroke-linecap="round" stroke-linejoin="round"/>
<path d="M54.2051 344.079C59.9243 355.27 77.0863 386.355 85.7887 393.566C94.4912 400.777 115.881 398.045 121.847 389.339C127.814 380.632 130.923 355.518 129.389 343.459" stroke="#FE7654" stroke-width="0.8" stroke-linecap="round" stroke-linejoin="round"/>
<path d="M93.7422 344.08C99.2142 354.526 106.672 371.189 106.672 371.189" stroke="#FE7654" stroke-width="0.8" stroke-linecap="round" stroke-linejoin="round"/>
<path d="M165.083 214.025V318.564C165.083 325.27 162.418 331.702 157.676 336.444C152.934 341.186 146.503 343.85 139.796 343.85H-23.0117" stroke="#AA158B" stroke-width="0.8" stroke-linecap="round" stroke-linejoin="round"/>
</g>
<mask id="mask5_226_189" style="mask-type:alpha" maskUnits="userSpaceOnUse" x="169" y="44" width="305" height="400">
<rect x="169.539" y="44.5859" width="304.077" height="399.241" fill="#C4C4C4"/>
</mask>
<g mask="url(#mask5_226_189)">
<path d="M251.625 81.6839C251.625 65.9983 264.86 53.3027 281.148 53.3027L492.223 53.3027C508.531 53.3027 521.751 66.0081 521.751 81.6839L521.751 219.551C521.751 235.236 508.516 247.937 492.223 247.937L281.153 247.937C264.85 247.937 251.63 235.226 251.63 219.551L251.625 81.6839Z" fill="#8AE4E0" stroke="#13ABA3" stroke-width="0.8" stroke-linecap="round" stroke-linejoin="round"/>
<path d="M314.357 139.416L224.459 131.269C224.459 131.269 221.258 118.76 221.258 113.231C221.258 107.702 224.165 96.359 223.292 94.6041C222.42 92.8493 218.64 91.6925 216.018 93.2954C213.395 94.8982 209.185 98.2412 208.749 106.824C208.312 115.407 209.185 119.039 208.165 120.348C208.165 120.348 206.126 102.315 205.548 92.7121C204.969 83.1095 206.126 69.4385 201.327 68.6935C196.529 67.9484 193.181 69.8601 192.308 73.2031C192.308 73.2031 189.98 68.5513 185.617 70.1493C181.255 71.7472 178.926 76.4039 178.201 80.6243C178.201 80.6243 175.289 78.8793 172.525 81.0606C169.76 83.2419 169.324 91.8445 169.618 98.8049C169.912 105.765 172.069 118.588 173.397 126.299C174.726 134.009 176.887 150.592 189.98 161.067C203.072 171.542 244.242 176.63 264.898 179.542C285.554 182.453 329.195 187.978 329.195 187.978L314.357 139.416Z" fill="#E8DACF"/>
<path d="M474.092 123.123C453.798 113.741 400.34 94.3204 367.174 93.0117C334.009 91.7029 318.706 110.687 314.137 118.761L304.334 158.465C304.334 158.465 310.878 170.229 318.735 183.336C325.642 194.851 369.331 237.746 379.767 247.927L492.228 247.927C500.059 247.927 507.57 244.816 513.108 239.278C518.645 233.741 521.756 226.23 521.756 218.399L521.756 149.745C508.448 141.701 487.228 129.206 474.092 123.123Z" fill="#FD633C"/>
<path d="M242.788 122.397C242.788 122.397 240.896 130.396 241.768 136.073C242.641 141.749 241.768 142.469 240.459 144.072C239.151 145.675 239.44 146.69 241.043 146.69C242.646 146.69 244.68 146.254 244.964 147.415C245.248 148.577 245.984 150.905 245.984 150.905C245.984 150.905 248.435 159.052 250.346 161.817C252.258 164.581 259.949 168.218 265.909 166.91C271.87 165.601 282.056 159.067 282.056 159.067L308.824 159.939C308.824 159.939 317.549 148.303 315.079 135.646C312.584 122.902 316.24 116.882 316.24 116.882L282.35 127.941C282.35 127.941 270.713 102.339 257.351 103.922C243.989 105.505 242.788 122.397 242.788 122.397Z" fill="#F7EAE1"/>
<path d="M244.817 123.56C237.699 125.339 228.964 119.05 227.945 111.634C226.989 104.678 232.597 99.2666 238.562 98.8303C244.527 98.3941 248.018 101.159 248.018 101.159C248.018 101.159 247.302 93.7619 252.527 90.8307C254.164 89.8644 256.055 89.4169 257.952 89.5473C259.848 89.6777 261.66 90.3798 263.149 91.561C263.149 91.561 268.11 84.2084 274.203 87.1936C280.747 90.3944 277.256 100.722 277.256 100.722C277.256 100.722 281.913 90.5415 290.06 92.2865C295.942 93.5511 293.55 101.6 293.55 101.6C293.55 101.6 300.53 97.3843 306.059 103.203C311.588 109.021 306.785 122.256 297.04 127.638C289.687 131.697 279.296 135.201 276.673 135.348C274.051 135.495 267.36 131.569 266.203 126.329C265.223 121.883 266.492 118.913 266.492 118.913C264.239 118.462 262.196 117.286 260.674 115.565C257.032 111.516 258.223 107.276 258.223 107.276C258.223 107.276 256.473 114.545 252.831 118.477C249.189 122.408 245.983 123.27 244.817 123.56Z" fill="#292F44"/>
<path d="M271.441 132.436C271.441 127.705 273.623 121.014 277.044 119.269C280.466 117.524 286.936 117.23 288.245 121.887C289.553 126.544 287.754 132.504 285.044 136.073C282.333 139.641 277.843 139.342 275.588 138.764C273.334 138.185 271.441 132.436 271.441 132.436Z" fill="#F7EAE1"/>
<path d="M249.286 137.153C248.585 137.153 248.232 136.628 248.232 135.604C248.232 134.579 248.585 134.055 249.286 134.055C249.987 134.055 250.345 134.579 250.345 135.604C250.345 136.628 249.987 137.153 249.286 137.153Z" fill="#303336"/>
<path d="M276.553 132.873C277.425 130.108 280.768 123.854 283.533 121.814" stroke="#FE7654" stroke-width="0.8" stroke-linecap="round" stroke-linejoin="round"/>
<path d="M276.928 137.745C280.531 138.725 285.658 135.343 287.403 132.068" stroke="#FE7654" stroke-width="0.8" stroke-linecap="round" stroke-linejoin="round"/>
<path d="M246.094 151.274C246.138 151.411 246.653 153.234 247.751 156.126C249.535 155.121 251.148 153.839 252.53 152.328C254.329 150.367 255.804 146.906 255.804 146.906C255.804 146.906 249.971 150.284 246.094 151.274Z" fill="white"/>
<path d="M247.751 156.126C249.535 155.121 251.148 153.839 252.53 152.328C254.329 150.367 255.804 146.906 255.804 146.906C255.804 146.906 249.971 150.284 246.094 151.274" stroke="#FEB9A7" stroke-width="0.8" stroke-linecap="round" stroke-linejoin="round"/>
<path d="M263.055 144.811C261.535 145.428 260.305 144.61 259.403 142.36C258.501 140.11 258.82 138.688 260.339 138.076C261.859 137.463 263.089 138.282 263.986 140.527C264.883 142.772 264.575 144.203 263.055 144.811Z" fill="#FE9074"/>
<path d="M243.367 126.76C246.857 124.432 251.945 124.432 255.131 125.741" stroke="#292F44" stroke-width="0.8" stroke-linecap="round" stroke-linejoin="round"/>
<path d="M282.059 159.054C287.152 155.854 285.406 140.428 285.406 140.428" stroke="#FE7654" stroke-width="0.8" stroke-linecap="round" stroke-linejoin="round"/>
<path d="M178.201 80.6504C176.162 89.8118 178.491 107.12 179.672 110.179" stroke="#FE7654" stroke-width="0.8" stroke-linecap="round" stroke-linejoin="round"/>
<path d="M192.307 73.2285C190.709 79.4832 190.273 98.1049 191.581 103.619C187.639 104.961 183.913 106.872 180.523 109.291C175.435 113.075 173.543 115.982 173.543 115.982" stroke="#FE7654" stroke-width="0.8" stroke-linecap="round" stroke-linejoin="round"/>
<path d="M208.162 120.357C203.942 130.685 198.124 128.94 195.942 143.2C193.761 157.459 199.58 162.547 199.58 162.547" stroke="#FE7654" stroke-width="0.8" stroke-linecap="round" stroke-linejoin="round"/>
<path d="M224.461 131.27C227.221 139.563 226.642 146.955 226.206 149.161" stroke="#FE7654" stroke-width="0.8" stroke-linecap="round" stroke-linejoin="round"/>
<path d="M221.258 93.4473C219.077 96.9422 217.91 104.648 221.258 105.667" stroke="#FE7654" stroke-width="0.8" stroke-linecap="round" stroke-linejoin="round"/>
<path d="M381.845 199.056C371.061 193.821 342.861 172.586 332.97 163.856C323.078 155.126 314.059 138.833 317.843 121.672" stroke="#100C27" stroke-width="0.8" stroke-linecap="round" stroke-linejoin="round"/>
<path d="M441.49 163.562C441.49 163.562 428.103 172.293 421.996 181.018C415.888 189.743 410.648 197.894 410.648 197.894C410.648 197.894 354.498 199.056 335.009 201.679C315.52 204.301 293.702 208.948 284.389 218.55C275.075 228.153 276.825 241.535 279.154 246.49C281.482 251.446 287.589 252.598 291.663 250.853C292.268 251.83 293.132 252.619 294.159 253.133C295.187 253.647 296.337 253.866 297.481 253.765C301.555 253.47 304.755 249.691 304.755 249.691C304.755 249.691 305.917 252.892 309.99 252.598C314.064 252.304 315.809 247.946 315.809 247.946L476.405 247.946C485.424 247.946 500.551 234.56 494.149 213.904C488.718 196.37 441.49 163.562 441.49 163.562Z" fill="#F7EAE1"/>
<path d="M304.755 249.682C301.265 245.898 300.682 233.972 302.716 229.585C304.75 225.198 311.882 222.021 311.882 222.021" stroke="#FE7654" stroke-width="0.8" stroke-linecap="round" stroke-linejoin="round"/>
<path d="M291.664 250.842C288.027 244.587 285.556 233.097 288.61 226.549C291.664 220 298.938 216.51 298.938 216.51" stroke="#FE7654" stroke-width="0.8" stroke-linecap="round" stroke-linejoin="round"/>
<path d="M315.81 247.937C316.83 245.315 314.648 235.57 314.648 235.57" stroke="#FE7654" stroke-width="0.8" stroke-linecap="round" stroke-linejoin="round"/>
<path d="M277.842 240.951C283.371 242.554 287.734 248.662 287.876 251.132" stroke="#FE7654" stroke-width="0.8" stroke-linecap="round" stroke-linejoin="round"/>
<path d="M288.312 242.555C294.131 242.844 298.93 248.373 299.655 252.589" stroke="#FE7654" stroke-width="0.8" stroke-linecap="round" stroke-linejoin="round"/>
<path d="M301.99 242.407C307.519 241.971 312.029 248.662 312.465 251.279" stroke="#FE7654" stroke-width="0.8" stroke-linecap="round" stroke-linejoin="round"/>
<path d="M521.749 125.309L521.749 219.55C521.749 235.235 508.514 247.936 492.221 247.936L404.014 247.936L315.807 247.936" stroke="#13ABA3" stroke-width="0.8" stroke-linecap="round" stroke-linejoin="round"/>
</g>
</mask>
<g mask="url(#mask3_226_189)">
<rect y="19" width="375" height="483" fill="white" fill-opacity="0.62"/>
</g>
</svg>
