<svg width="345" height="300" viewBox="0 0 345 300" fill="none" xmlns="http://www.w3.org/2000/svg">
<path d="M117.7 53.1025C110.489 54.3179 84.6211 56.6299 79.5702 68.1886C74.5193 79.7473 77.7342 91.4615 83.3918 95.9269C89.0494 100.392 101.454 100.551 112.169 97.9311" stroke="#FE7654" stroke-width="0.6" stroke-linecap="round" stroke-linejoin="round"/>
<path d="M115.075 66.8691C107.311 67.6395 90.5538 70.1077 84.918 72.1138" stroke="#FE7654" stroke-width="0.6" stroke-linecap="round" stroke-linejoin="round"/>
<path d="M69.9261 62.9355L88.0114 74.1817L80.5275 85.1142L90.8174 99.329L73.1993 109.482C73.1993 109.482 62.1292 94.3307 61.3588 87.9269C60.6143 81.8789 69.9261 62.9355 69.9261 62.9355Z" stroke="#75ACBA" stroke-width="0.6" stroke-linecap="round" stroke-linejoin="round"/>
<path d="M283.551 46.4332C283.551 46.4332 291.898 43.5493 297.153 42.9412C302.407 42.3332 312.911 42.7833 315.546 42.638C318.181 42.4927 321.574 42.9412 321.574 45.2186C321.574 47.4961 320.182 50.38 316.628 50.8364C313.075 51.2928 303.644 52.0509 303.644 52.0509C303.644 52.0509 302.87 57.0606 300.243 60.2477C297.616 63.4349 289.272 65.4106 287.26 65.5575" stroke="#FE7654" stroke-width="0.6" stroke-linecap="round" stroke-linejoin="round"/>
<path d="M311.746 42.6123C311.746 46.2778 316.062 47.2962 317.867 47.1946C319.673 47.0929 321.58 46.2778 321.58 46.2778" stroke="#FE7654" stroke-width="0.6" stroke-linecap="round" stroke-linejoin="round"/>
<path d="M322.111 44.8642C322.111 44.8642 331.962 44.813 335.656 44.6082C339.351 44.4034 343.867 45.2227 343.867 48.9144C343.867 52.6062 341.199 53.4271 337.503 53.6304C333.807 53.8336 320.569 54.144 318.209 54.3489C315.848 54.5537 310.307 54.5537 309.383 57.7334C308.459 60.9131 310.102 63.1742 312.36 63.6799C312.36 63.6799 309.691 64.7056 309.691 67.2692C309.691 69.8328 310.922 71.9867 314.926 72.0891C318.929 72.1916 323.956 72.0891 325.495 69.3207C327.034 66.5523 326.317 64.3984 324.571 62.7597C324.571 62.7597 328.186 62.6573 328.37 59.068C328.575 55.0674 326.112 54.5553 324.983 54.1456" stroke="#FE7654" stroke-width="0.6" stroke-linecap="round" stroke-linejoin="round"/>
<path d="M284.863 75.3852C290.06 75.4833 296.31 74.4034 298.599 73.6177C300.889 72.8319 308.18 71.458 311.086 71.458" stroke="#FE7654" stroke-width="0.6" stroke-linecap="round" stroke-linejoin="round"/>
<path d="M309.776 62.9355C309.776 62.9355 303.087 67.5468 301.254 68.8357" stroke="#FE7654" stroke-width="0.6" stroke-linecap="round" stroke-linejoin="round"/>
<path d="M317.482 55.0684C319.137 55.9975 320.206 59.0353 319.244 61.0325C318.4 62.7917 312.62 63.135 310.43 62.8421" stroke="#FE7654" stroke-width="0.6" stroke-linecap="round" stroke-linejoin="round"/>
<path d="M324.203 62.9355C321.222 63.3794 312.402 64.2467 312.402 64.2467" stroke="#FE7654" stroke-width="0.6" stroke-linecap="round" stroke-linejoin="round"/>
<path d="M311.086 64.3786C313.661 64.069 317.523 64.069 318.22 67.1199C318.916 70.1709 314.788 71.7705 311.622 71.4077" stroke="#FE7654" stroke-width="0.6" stroke-linecap="round" stroke-linejoin="round"/>
<path d="M207.313 49.9761C213.468 49.3615 218.998 48.7454 225.317 44.8998C231.635 41.0541 240.242 40.8989 247.012 44.8998C253.781 48.9006 260.245 48.9006 265.63 47.9772C271.015 47.0538 277.636 44.4389 283.634 44.4389L284.865 78.4351C284.865 78.4351 274.094 81.6662 269.323 82.436C264.553 83.2057 257.167 85.0525 248.859 81.6678C240.551 78.2831 239.472 77.3597 232.702 78.1294C225.933 78.8992 225.47 83.0521 217.468 84.1291C209.466 85.2062 206.852 83.9691 206.852 83.9691" stroke="#FD3C0B" stroke-width="0.6" stroke-linecap="round" stroke-linejoin="round"/>
<path d="M115.99 117.788C113.516 112.839 107.33 102.634 95.5783 105.108C83.8262 107.582 82.2786 119.334 80.4237 132.324C78.5688 145.314 73.3097 168.817 61.2471 185.208C49.1846 201.599 39.5979 231.903 38.3672 238.706C38.3672 238.706 47.0272 260.974 78.5736 280.458C110.12 299.942 137.957 300.245 140.122 299.323C142.287 298.401 184.041 252.314 197.031 236.232C210.02 220.15 219.84 202.289 220.305 189.3C220.77 176.312 217.288 169.817 217.288 169.817C217.288 169.817 228.191 153.813 225.408 139.431C222.625 125.049 213.577 121.575 213.577 121.575C213.577 121.575 222.391 115.312 223.783 105.106C225.174 94.9009 221 82.3741 201.743 82.6057C182.486 82.8374 115.99 117.788 115.99 117.788Z" fill="#F7EAE1"/>
<path d="M97.2607 125.662C99.8925 116.409 99.572 109.101 98.7241 105.267L98.3859 104.893C97.2821 104.912 96.1828 105.038 95.1033 105.267C83.3931 107.721 81.8528 119.375 80.0048 132.257C79.6153 134.969 79.0767 138.137 78.3555 141.605C89.5912 141.504 94.6417 134.862 97.2607 125.662Z" fill="#FFD8CE"/>
<path d="M220.086 89.8973C212.545 95.4221 210.686 112.598 210.789 121.137L213.646 121.938C213.502 121.871 213.423 121.84 213.423 121.84C213.423 121.84 222.256 115.514 223.65 105.206C224.352 100.022 223.65 94.2456 220.31 89.8145L220.086 89.8973Z" fill="#FFD8CE"/>
<path d="M225.441 139.385C222.65 125.024 213.582 121.553 213.582 121.553L213.704 121.463C212.672 121.209 211.493 120.936 210.947 120.857C209.861 120.697 208.544 120.626 208.544 120.626C207.536 123.251 208.234 131.359 214.046 136.454C218.762 140.586 224.035 142.384 225.861 142.916C225.805 141.73 225.665 140.55 225.441 139.385V139.385Z" fill="#FFD8CE"/>
<path d="M213.405 121.937C210.934 120.534 204.379 120.143 200.949 121.326" stroke="#FE7654" stroke-width="0.6" stroke-linecap="round" stroke-linejoin="round"/>
<path d="M140.634 232.003C132.596 234.317 114.685 247.041 99.9883 268.788C99.9883 268.788 111.7 253.288 112.159 241.952C112.617 230.616 110.096 225.52 110.096 225.52" stroke="#FE7654" stroke-width="0.6" stroke-linecap="round" stroke-linejoin="round"/>
<path d="M180.241 235.958L108.457 228.295C105.961 228.022 103.674 226.77 102.097 224.813C100.519 222.857 99.7797 220.354 100.039 217.853L118.135 47.8163C118.408 45.3162 119.658 43.0259 121.612 41.4461C123.566 39.8664 126.065 39.1258 128.563 39.3861L200.346 47.047C202.842 47.3207 205.128 48.5725 206.705 50.5291C208.283 52.4856 209.023 54.9878 208.763 57.489L190.668 227.526C190.395 230.026 189.145 232.315 187.191 233.895C185.237 235.475 182.739 236.217 180.241 235.958V235.958Z" fill="#F6B60D"/>
<path d="M153.115 127.02L106.932 153.247L100.036 218.207C99.7902 220.593 100.494 222.98 101.995 224.847C103.496 226.713 105.672 227.908 108.047 228.169L180.838 235.96C183.215 236.207 185.593 235.5 187.452 233.992C189.312 232.485 190.501 230.3 190.761 227.915L202.914 113.415L153.115 127.02Z" fill="white"/>
<path d="M151.956 47.2963C137.112 47.9157 118.266 52.8818 118.266 52.8818L113.762 96.0067L119.482 117.348C119.482 117.348 136.337 111.78 147.471 105.749C158.606 99.718 169.427 90.9038 169.427 90.9038C169.427 90.9038 192.312 83.3268 197.106 82.8602C200.144 82.5909 203.202 82.6449 206.228 83.0211L209.476 55.3415L207.311 49.9282C207.311 49.9282 200.817 49.3104 195.869 48.3822C190.921 47.454 182.416 44.8253 173.448 45.2887C165.98 45.6731 151.956 47.2963 151.956 47.2963Z" fill="#FD3C0B"/>
<path d="M169.566 55.0684C168.941 57.8046 172.107 87.1917 172.107 87.1917" stroke="#292F44" stroke-width="0.6" stroke-linecap="round" stroke-linejoin="round"/>
<path d="M119.329 117.72C122.583 129.268 123.668 131.424 123.668 131.424L109.26 137.43L105.23 175.308C105.23 175.308 121.806 213.957 140.087 215.959C158.368 217.962 175.562 212.115 179.591 197.174C183.62 182.233 153.874 102.27 153.874 102.27C143.226 108.434 131.634 113.356 119.329 117.72Z" fill="#292F44"/>
<path d="M159.021 128.968L178.108 123.403L165.228 147.197L174.539 188.151L200.451 141.326L206.192 83.3728C206.192 83.3728 200.917 81.3632 191.141 83.8359C181.366 86.3085 167.866 90.7908 167.866 90.7908C167.866 90.7908 159.37 98.5673 153.746 102.175L159.021 128.968Z" fill="#292F44"/>
<path d="M136.319 66.8644C136.319 66.8644 134.86 74.1821 135.593 81.6028C136.325 89.0234 138.397 93.5588 138.397 93.5588L155.019 90.9855C155.019 90.9855 155.746 94.1812 158.758 94.3871C161.771 94.5929 168.835 92.737 171.329 92.1194C173.822 91.5018 175.868 89.181 175.25 85.4723C174.764 82.608 172.433 80.9241 171.394 80.7182C171.394 80.7182 174.68 79.1453 174.474 76.1571C174.268 73.1689 172.292 71.7761 169.798 71.6732C169.798 71.6732 182.443 69.7545 184.836 69.0324C187.229 68.3103 189.511 67.5849 189.095 64.3957C188.678 61.2065 183.583 61.4059 179.121 61.9205L136.319 66.8644Z" fill="#F7EAE1"/>
<path d="M178 61.624C179.361 66.1207 182.841 68.1203 187.834 67.37" stroke="#FE7654" stroke-width="0.6" stroke-linecap="round" stroke-linejoin="round"/>
<path d="M170.136 71.458C167.32 71.8629 161.613 72.7692 161.613 72.7692" stroke="#FE7654" stroke-width="0.6" stroke-linecap="round" stroke-linejoin="round"/>
<path d="M172.099 80.6399C169.493 80.5856 164.2 81.0742 162.266 81.2913" stroke="#FE7654" stroke-width="0.6" stroke-linecap="round" stroke-linejoin="round"/>
<path d="M155.059 90.4697C161.028 89.5756 166.638 88.7707 168.17 88.5029" stroke="#FE7654" stroke-width="0.6" stroke-linecap="round" stroke-linejoin="round"/>
<path d="M166.208 93.092C165.609 91.8254 162.911 90.051 160.065 90.5587C157.218 91.0665 155.719 91.5724 155.719 91.5724" stroke="#FE7654" stroke-width="0.6" stroke-linecap="round" stroke-linejoin="round"/>
<path d="M136.699 66.8691C131.456 67.1795 117.031 68.8359 117.031 68.8359" stroke="#292F44" stroke-width="0.6" stroke-linecap="round" stroke-linejoin="round"/>
<path d="M138.674 93.0918C132.253 94.5593 117.399 97.2811 113.762 97.6808" stroke="#292F44" stroke-width="0.6" stroke-linecap="round" stroke-linejoin="round"/>
<path d="M122.285 107.515C132.363 105.804 145.23 100.959 145.23 100.959" stroke="#292F44" stroke-width="0.6" stroke-linecap="round" stroke-linejoin="round"/>
<path d="M162.27 127.838C160.394 122.045 155.059 106.859 155.059 106.859" stroke="#100C27" stroke-width="0.6" stroke-linecap="round" stroke-linejoin="round"/>
<path d="M167.52 142.916C170.024 149.877 177.069 176.953 178.009 181.595" stroke="#100C27" stroke-width="0.6" stroke-linecap="round" stroke-linejoin="round"/>
<path d="M178 123.249C182.336 114.611 194.88 94.7115 197.667 91.7812" stroke="#100C27" stroke-width="0.6" stroke-linecap="round" stroke-linejoin="round"/>
<path d="M123.598 131.115C127.331 143.107 147.398 197.628 151.132 206.507" stroke="#100C27" stroke-width="0.6" stroke-linecap="round" stroke-linejoin="round"/>
<path d="M141.949 50.1546C143.215 53.4566 153.024 63.5909 155.161 63.5909C157.297 63.5909 161.885 50.9996 162.202 49.7712C162.52 48.5427 161.648 46.5459 161.648 46.5459" stroke="#292F44" stroke-width="0.6" stroke-linecap="round" stroke-linejoin="round"/>
<path d="M112.289 227.879C112.289 227.879 104.929 209.709 106.001 195.697C107.073 181.685 109.528 171.989 111.522 164.437C113.516 156.886 118.576 144.883 118.576 144.883C118.576 144.883 126.855 155.045 128.849 161.973C130.843 168.902 129.156 177.065 130.076 181.068C130.996 185.071 138.357 187.074 140.349 191.538C142.341 196.003 139.583 203.857 138.357 208.169C137.13 212.481 144.182 215.868 145.409 220.023C146.636 224.178 145.103 231.419 145.103 231.419L112.289 227.879Z" fill="#A9D2DD"/>
<path d="M124.246 159.306L113.102 169.139" stroke="#292F44" stroke-width="0.6" stroke-linecap="round" stroke-linejoin="round"/>
<path d="M125.559 171.762L111.137 183.562" stroke="#292F44" stroke-width="0.6" stroke-linecap="round" stroke-linejoin="round"/>
<path d="M126.869 184.873L109.824 199.296" stroke="#292F44" stroke-width="0.6" stroke-linecap="round" stroke-linejoin="round"/>
<path d="M136.702 193.396L113.102 212.407" stroke="#292F44" stroke-width="0.6" stroke-linecap="round" stroke-linejoin="round"/>
<path d="M134.082 213.062L115.07 225.518" stroke="#292F44" stroke-width="0.6" stroke-linecap="round" stroke-linejoin="round"/>
<path d="M139.98 222.241L128.18 230.108" stroke="#292F44" stroke-width="0.6" stroke-linecap="round" stroke-linejoin="round"/>
<path d="M157.027 232.519C157.027 232.519 157.341 230.489 159.696 228.296C162.051 226.104 163.942 226.11 163.942 222.519C163.942 218.929 163.942 212.684 167.082 208.47C170.223 204.255 175.401 203.63 176.816 200.82C178.23 198.011 178.228 190.517 181.996 187.394C185.763 184.271 191.571 181.306 192.356 181.617C193.142 181.929 187.333 205.346 184.664 215.182C181.996 225.017 179.012 234.697 179.012 234.697L157.027 232.519Z" fill="#FD633C"/>
<path d="M168.176 211.752L179.976 220.93" stroke="#292F44" stroke-width="0.6" stroke-linecap="round" stroke-linejoin="round"/>
<path d="M174.07 206.507L182.593 212.407" stroke="#292F44" stroke-width="0.6" stroke-linecap="round" stroke-linejoin="round"/>
<path d="M179.316 198.64L185.217 203.884" stroke="#292F44" stroke-width="0.6" stroke-linecap="round" stroke-linejoin="round"/>
<path d="M182.598 190.117L187.842 194.051" stroke="#292F44" stroke-width="0.6" stroke-linecap="round" stroke-linejoin="round"/>
<path d="M166.211 221.585L178.011 228.796" stroke="#292F44" stroke-width="0.6" stroke-linecap="round" stroke-linejoin="round"/>
<path d="M180.241 235.958L108.457 228.295C105.961 228.022 103.674 226.77 102.097 224.813C100.519 222.857 99.7797 220.354 100.039 217.853L118.135 47.8163C118.408 45.3162 119.658 43.0259 121.612 41.4461C123.566 39.8664 126.065 39.1258 128.563 39.3861L200.346 47.047C202.842 47.3207 205.128 48.5725 206.705 50.5291C208.283 52.4856 209.023 54.9878 208.763 57.489L190.668 227.526C190.395 230.026 189.145 232.315 187.191 233.895C185.237 235.475 182.739 236.217 180.241 235.958V235.958Z" stroke="#100C27" stroke-width="0.6" stroke-linecap="round" stroke-linejoin="round"/>
<path d="M153.937 7.60661C153.937 7.60661 156.893 2.85412 162.027 4.95805C167.161 7.06198 163.66 12.1257 164.516 12.9005C165.372 13.6753 169.57 12.043 171.048 14.9266C172.525 17.8102 168.171 20.7619 168.249 21.937C168.326 23.1122 171.669 24.5872 171.436 27.2358C171.203 29.8843 166.071 32.0644 162.416 33.071L149.973 36.9612C149.973 36.9612 147.252 39.2985 145.385 38.5205C143.517 37.7424 143.605 36.0275 142.585 35.6369C141.566 35.2463 138.853 37.4296 136.437 36.5722C134.021 35.7147 134.727 32.682 133.56 31.8975C132.394 31.1129 128.972 32.8327 127.339 29.3267C125.706 25.8207 128.972 24.6536 128.972 22.4719C128.972 20.2902 125.006 20.2124 124.305 15.9283C123.605 11.6443 129.282 8.52728 132.86 9.46092C136.437 10.3946 137.274 7.97941 138.149 5.64369C139.314 2.52831 141.959 -0.353651 147.092 0.035366C152.224 0.424383 153.937 7.60661 153.937 7.60661Z" fill="#292F44"/>
<path d="M150.947 31.0037L149.03 31.3093C149.03 31.3093 147.108 25.9782 146.006 25.698C143.28 25.0104 141.465 25.8572 140.784 27.6878C140.102 29.5185 141.919 32.2787 143.66 33.1192C145.401 33.9597 146.837 33.7321 146.837 33.7321L148.654 38.9342C148.654 38.9342 146.081 48.2688 144.718 50.5643C144.718 50.5643 153.646 61.045 154.856 60.9686C156.067 60.8922 159.926 49.7986 159.926 49.7986C159.926 49.7986 160.152 42.5302 160.683 40.924C160.683 40.924 162.73 39.6999 163.18 37.9393C163.63 36.1788 163.709 30.3653 163.709 30.3653C163.709 30.3653 165.954 29.5694 166.18 28.8865C166.407 28.2036 164.97 27.102 163.759 26.3396C162.548 25.5771 163.054 24.4516 162.599 22.1578C162.174 20.0088 159.548 19.2749 158.413 18.3564C158.413 18.3564 158.846 19.3943 155.275 20.4402C151.379 21.5831 151.133 23.7385 150.669 25.3606C150.204 26.9827 150.947 31.0037 150.947 31.0037Z" fill="#F7EAE1"/>
<path d="M157.683 27.5348C157.247 27.5348 157.027 27.3134 157.027 26.8785C157.027 26.4437 157.247 26.2236 157.683 26.2236C158.119 26.2236 158.338 26.445 158.338 26.8785C158.338 27.3121 158.119 27.5348 157.683 27.5348Z" fill="#303336"/>
<path d="M155.059 23.6012C155.966 22.9775 157.459 21.8758 159.648 22.4514" stroke="#292F44" stroke-width="0.6" stroke-linecap="round" stroke-linejoin="round"/>
<path d="M163.586 31.2032C163.586 31.2032 161.317 30.3881 159.487 31.1126C158.48 31.4974 157.428 31.6658 156.375 31.6107C156.375 31.6107 156.925 33.1993 158.901 34.0635C160.61 34.8087 163.44 34.7446 163.44 34.7446L163.586 31.2032Z" fill="white"/>
<path d="M163.583 31.4952C163.583 31.4952 161.518 31.4336 159.567 31.4952C157.942 31.5516 157.028 32.0085 157.028 32.0085C157.028 32.0085 156.937 33.3465 158.94 34.1267C160.673 34.8026 163.543 34.7444 163.543 34.7444" stroke="#FE9074" stroke-width="0.6" stroke-linecap="round" stroke-linejoin="round"/>
<path d="M153.434 32.759C152.606 32.6323 152.291 32.0225 152.5 30.9491C152.709 29.8756 153.237 29.3941 154.063 29.5208C154.89 29.6475 155.206 30.2573 154.997 31.3308C154.789 32.4042 154.26 32.8858 153.434 32.759Z" fill="#FE9074"/>
<path d="M142.605 28.1895C142.605 28.1895 145.192 30.277 146.539 30.8118" stroke="#FE7654" stroke-width="0.6" stroke-linecap="round" stroke-linejoin="round"/>
<path d="M160.963 40.81C159.251 41.716 154.167 41.3269 151.785 39.9902" stroke="#FE7654" stroke-width="0.6" stroke-linecap="round" stroke-linejoin="round"/>
<path d="M196.889 204.54C196.889 204.54 187.676 190.159 187.216 177.325C186.756 164.491 191.361 159.852 192.666 158.537C193.971 157.223 199.933 155.186 203.746 156.398C207.558 157.609 200.574 198.818 200.574 198.818L196.889 204.54Z" fill="#F7EAE1"/>
<path d="M217.124 169.893L217.188 169.796C216.522 167.818 215.15 166.017 213.989 164.306C212.878 162.679 211.707 161.08 210.264 159.731C207.43 157.082 202.887 155.634 198.988 156.121C199.247 159.213 200.622 165.784 203.533 170.883C206.817 176.635 212.408 181.687 219.967 182.25C219.328 174.015 217.124 169.893 217.124 169.893Z" fill="#FFD8CE"/>
<path d="M195.047 201.918C197.461 206.394 201.97 212.471 204.225 215.03" stroke="#FE7654" stroke-width="0.6" stroke-linecap="round" stroke-linejoin="round"/>
<path d="M38.0431 38.0236C42.2068 38.0236 45.5822 34.6482 45.5822 30.4845C45.5822 26.3207 42.2068 22.9453 38.0431 22.9453C33.8793 22.9453 30.5039 26.3207 30.5039 30.4845C30.5039 34.6482 33.8793 38.0236 38.0431 38.0236Z" stroke="#F6B60D" stroke-width="0.6" stroke-linecap="round" stroke-linejoin="round"/>
<path d="M235.699 139.639L266.511 146.85" stroke="#F6B60D" stroke-width="0.6" stroke-linecap="round" stroke-linejoin="round"/>
<path d="M242.246 97.6809L268.469 95.0586" stroke="#F6B60D" stroke-width="0.6" stroke-linecap="round" stroke-linejoin="round"/>
<path d="M196.359 6.55664L188.492 26.8795" stroke="#F6B60D" stroke-width="0.6" stroke-linecap="round" stroke-linejoin="round"/>
<path d="M231.108 17.0449L214.719 33.4344" stroke="#F6B60D" stroke-width="0.6" stroke-linecap="round" stroke-linejoin="round"/>
<path d="M8.86719 140.949C11.9704 134.739 19.1048 131.012 27.4817 134.117C35.8586 137.221 41.7536 134.427 44.8552 129.148C47.9568 123.869 53.542 121.072 60.6779 123.87C67.8139 126.667 71.8466 120.763 72.4582 117.349" stroke="#94C7D4" stroke-width="0.6" stroke-linecap="round" stroke-linejoin="round"/>
<path d="M1 89.1584C4.29486 83.9373 12.1718 81.1058 19.5969 83.8765C27.0221 86.6471 33.4823 85.477 38.019 80.1503C42.5557 74.8235 51.9432 74.9531 55.4129 78.9818" stroke="#FD3C0B" stroke-width="0.6" stroke-linecap="round" stroke-linejoin="round"/>
<path d="M240.285 166.517C240.285 170.535 242.131 177.642 248.593 179.495C255.056 181.349 257.824 177.796 263.363 181.194C268.205 184.168 264.032 191.643 269.362 195.102C274.131 198.192 279.208 195.102 284.285 197.729C291.418 201.426 290.748 209.785 290.748 209.785" stroke="#94C7D4" stroke-width="0.6" stroke-linecap="round" stroke-linejoin="round"/>
<path d="M92.1289 38.0244L101.963 43.9246" stroke="#F6B60D" stroke-width="0.6" stroke-linecap="round" stroke-linejoin="round"/>
<path d="M10.832 202.574L39.0219 182.906" stroke="#F6B60D" stroke-width="0.6" stroke-linecap="round" stroke-linejoin="round"/>
<path d="M16.0781 209.129L43.6124 189.462" stroke="#F6B60D" stroke-width="0.6" stroke-linecap="round" stroke-linejoin="round"/>
<path d="M301.704 126.47C305.087 123.087 305.087 117.601 301.704 114.217C298.32 110.834 292.834 110.834 289.451 114.217C286.067 117.601 286.067 123.087 289.451 126.47C292.834 129.854 298.32 129.854 301.704 126.47Z" stroke="#94C7D4" stroke-width="0.6" stroke-linecap="round" stroke-linejoin="round"/>
<path d="M21.3203 168.967L28.4526 154.061L44.2655 155.613L36.2042 171.761L21.3203 168.967Z" stroke="#FD3C0B" stroke-width="0.6" stroke-linecap="round" stroke-linejoin="round"/>
<path d="M235.043 209.59L250.728 206.507L257.988 221.218L242.013 224.207L235.043 209.59Z" stroke="#FE7A59" stroke-width="0.6" stroke-linecap="round" stroke-linejoin="round"/>
<path d="M107.531 30.157C109.523 30.157 111.137 28.3959 111.137 26.2235C111.137 24.0511 109.523 22.29 107.531 22.29C105.54 22.29 103.926 24.0511 103.926 26.2235C103.926 28.3959 105.54 30.157 107.531 30.157Z" stroke="#94C7D4" stroke-width="0.6" stroke-linecap="round" stroke-linejoin="round"/>
<path d="M233.07 109.481C235.182 114.263 239.898 120.599 245.341 121.979C250.784 123.359 257.754 122.091 259.714 117.438C261.674 112.785 256.597 110.626 253.832 112.97C251.066 115.314 251.081 122.104 256.529 126.879C261.977 131.654 269.75 130.993 273.716 128.711" stroke="#FD3C0B" stroke-width="0.6" stroke-linecap="round" stroke-linejoin="round"/>
<path d="M283.72 153.921C287.101 148.766 292.77 152.293 296.71 156.481C301.087 161.135 304.026 154.907 306.531 149.946C309.036 144.985 314.505 141.54 319.936 144.925C325.366 148.31 320.618 155.56 318.004 157.66C315.389 159.76 308.065 163.2 311.387 167.073C314.708 170.946 320.858 167.685 322.562 172.918C324.265 178.151 318.929 180.11 315.468 178.972C312.006 177.834 308.014 172.215 305.412 172.448C302.81 172.68 303.444 180.955 298.094 185.09C295.023 187.465 289.239 186.034 288.771 180.187C288.302 174.341 295.386 171.085 295.716 167.668C295.935 165.385 292.579 164.043 288.745 163.027C285.522 162.172 281.033 158.009 283.72 153.921Z" stroke="#FE9479" stroke-width="0.6" stroke-linecap="round" stroke-linejoin="round"/>
</svg>
