<svg width="67" height="35" viewBox="0 0 67 35" fill="none" xmlns="http://www.w3.org/2000/svg">
	<path d="M27.0599 12.0278C27.06 10.828 27.3984 9.65258 28.0364 8.63645C28.6743 7.62032 29.5859 6.80469 30.6664 6.28322C31.7469 5.76176 32.9526 5.55559 34.145 5.6884C35.3374 5.82121 36.4682 6.2876 37.4075 7.03404C38.3468 7.78047 39.0566 8.77668 39.4553 9.90827C39.854 11.0399 39.9255 12.261 39.6616 13.4313C39.3977 14.6017 38.809 15.674 37.9633 16.5249C37.1175 17.3759 36.0489 17.9711 34.8801 18.2422H43.9537C45.0623 16.366 45.6291 14.2193 45.5912 12.0405C45.5912 8.6558 44.4215 5.80148 42.082 3.47751C39.7116 1.15917 36.8271 0 33.4284 0C30.0296 0 27.1598 1.15425 24.819 3.46274C23.6806 4.54156 22.7787 5.84516 22.1706 7.29088C21.5626 8.7366 21.2615 10.2929 21.2866 11.8611C21.2866 14.2737 21.8366 16.4035 22.9367 18.2506H31.9977C30.5924 17.9243 29.3391 17.1314 28.4424 16.0013C27.5457 14.8711 27.0583 13.4705 27.0599 12.0278Z" fill="#13ABA3"/>
	<path d="M22.7303 29.24V27.4295H21.1772V25.8047H19.1684V27.4295H17.5752V29.24H19.1684V33.0952H21.1772V29.24H22.7303Z" fill="#13ABA3"/>
	<path d="M2.06161 31.0926L3.6822 33.0951H6.20592L3.72862 30.048L7.98688 25.8721H5.36609L2.06794 29.1702V25.8721H0V33.0951H2.06372L2.06161 31.0926Z" fill="#13ABA3"/>
	<path d="M15.3176 28.5245C14.9615 28.1686 14.5373 27.8884 14.0702 27.7006C13.6032 27.5127 13.103 27.4212 12.5997 27.4314C12.0987 27.4213 11.6008 27.5125 11.1359 27.6996C10.6711 27.8867 10.2488 28.1658 9.89453 28.5203C9.53754 28.859 9.25475 29.2681 9.06406 29.7218C8.87336 30.1755 8.77892 30.6638 8.78671 31.1558C8.77499 31.8344 8.9424 32.504 9.27204 33.0972H11.9329C11.4872 32.9394 11.1116 32.6291 10.8725 32.2213C10.6333 31.8134 10.5461 31.3341 10.6261 30.8681C10.7062 30.4021 10.9484 29.9794 11.3099 29.6746C11.6714 29.3699 12.129 29.2028 12.6018 29.2028C13.0747 29.2028 13.5323 29.3699 13.8938 29.6746C14.2553 29.9794 14.4975 30.4021 14.5775 30.8681C14.6576 31.3341 14.5703 31.8134 14.3312 32.2213C14.0921 32.6291 13.7165 32.9394 13.2708 33.0972H15.9401C16.2636 32.5232 16.4289 31.8737 16.4191 31.2149C16.4298 30.7149 16.3376 30.218 16.1481 29.7552C15.9586 29.2923 15.6759 28.8734 15.3176 28.5245Z" fill="#13ABA3"/>
	<path d="M33.6292 30.673V34.9946H35.5473V30.7089C35.5281 30.3054 35.6124 29.9037 35.7921 29.542H33.7431C33.6634 29.9136 33.6251 30.293 33.6292 30.673Z" fill="#13ABA3"/>
	<path d="M40.0715 29.1896C39.9174 28.7987 39.6679 28.4527 39.3457 28.1831C38.7865 27.6977 37.8116 27.4551 36.9549 27.4551C36.6071 27.4556 36.2604 27.4938 35.9209 27.569V29.3563C36.0495 29.2116 36.2096 29.0983 36.3888 29.0251C36.5681 28.952 36.7617 28.9209 36.9549 28.9343C37.8918 28.9343 38.3595 29.5265 38.3581 30.711V34.9967H40.2783V30.673C40.3016 30.17 40.2314 29.6671 40.0715 29.1896Z" fill="#13ABA3"/>
	<path d="M29.9057 31.2111C29.9067 31.5583 29.8175 31.8998 29.6468 32.2022C29.4762 32.5045 29.2299 32.7574 28.9322 32.936C28.6344 33.1146 28.2954 33.2128 27.9483 33.221C27.6012 33.2291 27.258 33.1471 26.9521 32.9827C26.6463 32.8184 26.3884 32.5774 26.2037 32.2834C26.019 31.9895 25.9138 31.6526 25.8984 31.3057C25.883 30.9589 25.9579 30.614 26.1159 30.3048C26.2739 29.9956 26.5094 29.7328 26.7995 29.542H24.4488C24.2054 30.0443 24.0811 30.596 24.0859 31.1541C24.0696 31.6614 24.1577 32.1666 24.3446 32.6385C24.5315 33.1104 24.8134 33.5388 25.1726 33.8973C25.5218 34.257 25.9417 34.5406 26.4058 34.7301C26.8699 34.9197 27.3682 35.0112 27.8694 34.9988C28.3755 35.0107 28.879 34.9212 29.3501 34.7356C29.8212 34.5501 30.2504 34.2723 30.6126 33.9184C30.9744 33.5704 31.2599 33.151 31.451 32.6867C31.6421 32.2225 31.7345 31.7236 31.7225 31.2217C31.7289 30.6434 31.6018 30.0715 31.3511 29.5504H29.0088C29.2836 29.7319 29.5092 29.9785 29.6657 30.2682C29.8221 30.5579 29.9046 30.8818 29.9057 31.2111Z" fill="#13ABA3"/>
	<path d="M58.3843 29.1896C58.2302 28.7982 57.9798 28.452 57.6563 28.1831C57.0992 27.6977 56.1244 27.4551 55.2676 27.4551C54.4109 27.4551 53.4276 27.6977 52.8705 28.1831C52.5518 28.4532 52.3065 28.7994 52.1573 29.1896C52.0073 29.6673 51.9361 30.1662 51.9463 30.6667V33.0659H53.8665V30.7089C53.8665 29.523 54.3328 29.0208 55.2697 29.0208C56.0906 29.0208 56.5506 29.3901 56.6519 30.3059H58.5827C58.5778 29.9255 58.5108 29.5484 58.3843 29.1896Z" fill="#13ABA3"/>
	<path d="M44.1029 31.2107C44.1019 30.8466 44.2001 30.4892 44.387 30.1768C44.5739 29.8644 44.8425 29.6089 45.1638 29.4377C45.4851 29.2665 45.847 29.1861 46.2105 29.2052C46.5741 29.2243 46.9255 29.3422 47.2271 29.5461C47.5287 29.75 47.769 30.0323 47.9221 30.3625C48.0753 30.6928 48.1355 31.0586 48.0963 31.4205C48.0571 31.7825 47.92 32.1269 47.6997 32.4167C47.4795 32.7066 47.1843 32.9309 46.8461 33.0655H49.8509V27.4462H47.9244V27.9315C47.3393 27.5973 46.6758 27.4247 46.002 27.4314C45.501 27.4213 45.0031 27.5125 44.5382 27.6996C44.0734 27.8867 43.6511 28.1658 43.2968 28.5203C42.9398 28.859 42.6571 29.2681 42.4664 29.7218C42.2757 30.1755 42.1812 30.6638 42.189 31.1558C42.1779 31.8225 42.3385 32.4809 42.6554 33.0676H45.369C44.9963 32.9205 44.6763 32.6649 44.4505 32.3338C44.2248 32.0027 44.1037 31.6114 44.1029 31.2107Z" fill="#13ABA3"/>
	<path d="M64.9549 31.7384C64.9549 32.9243 64.4871 33.5173 63.5516 33.5173C62.6161 33.5173 62.1484 32.9243 62.1484 31.7384V29.2822H60.2282V31.7764C60.2072 32.2776 60.2788 32.7783 60.4392 33.2535C60.5945 33.6443 60.8447 33.9902 61.1672 34.26C61.7243 34.7454 62.6991 34.988 63.5559 34.988C64.4126 34.988 65.3938 34.7454 65.953 34.26C66.2708 33.9891 66.5159 33.6432 66.6662 33.2535C66.816 32.7758 66.8872 32.277 66.8772 31.7764V29.2822H64.957L64.9549 31.7384Z" fill="#13ABA3"/>
	</svg>
