<svg width="289" height="151" viewBox="0 0 289 151" fill="none" xmlns="http://www.w3.org/2000/svg">
<path d="M116.744 51.8915C116.745 46.7153 118.205 41.6441 120.957 37.2602C123.709 32.8763 127.642 29.3575 132.304 27.1077C136.965 24.8579 142.167 23.9685 147.311 24.5415C152.456 25.1144 157.334 27.1266 161.387 30.3469C165.439 33.5673 168.501 37.8652 170.222 42.7472C171.942 47.6292 172.25 52.8974 171.112 57.9468C169.973 62.9963 167.433 67.6222 163.784 71.2935C160.136 74.9648 155.525 77.5327 150.483 78.7021H189.629C194.412 70.608 196.857 61.3464 196.694 51.9462C196.694 37.3437 191.647 25.0293 181.554 15.003C171.327 5.00101 158.883 0 144.219 0C129.556 0 117.175 4.97977 107.076 14.9393C102.165 19.5937 98.2737 25.2178 95.6503 31.455C93.0269 37.6923 91.7281 44.4067 91.8363 51.1723C91.8363 61.581 94.2094 70.7697 98.9555 78.7386H138.047C131.984 77.3307 126.577 73.9099 122.709 69.0342C118.84 64.1585 116.737 58.1157 116.744 51.8915Z" fill="#13ABA3"/>
<path d="M98.0687 126.15V118.339H91.3683V111.329H82.7015V118.339H75.8281V126.15H82.7015V142.783H91.3683V126.15H98.0687Z" fill="#13ABA3"/>
<path d="M8.89439 134.143L15.8861 142.782H26.7742L16.0864 129.636L34.4578 111.62H23.1509L8.9217 125.849V111.62H0V142.782H8.90349L8.89439 134.143Z" fill="#13ABA3"/>
<path d="M66.081 123.063C64.5449 121.528 62.7145 120.319 60.6995 119.509C58.6846 118.698 56.5267 118.303 54.3554 118.347C52.1938 118.304 50.0457 118.697 48.0401 119.504C46.0345 120.312 44.2127 121.516 42.6843 123.045C41.1441 124.506 39.9241 126.272 39.1014 128.229C38.2787 130.186 37.8712 132.293 37.9048 134.416C37.8543 137.343 38.5765 140.232 39.9987 142.791H51.4786C49.5556 142.11 47.9351 140.772 46.9034 139.012C45.8718 137.252 45.4954 135.185 45.8407 133.174C46.186 131.164 47.2309 129.34 48.7906 128.025C50.3503 126.711 52.3246 125.99 54.3645 125.99C56.4044 125.99 58.3786 126.711 59.9383 128.025C61.4981 129.34 62.5429 131.164 62.8882 133.174C63.2335 135.185 62.8571 137.252 61.8255 139.012C60.7938 140.772 59.1733 142.11 57.2504 142.791H68.7666C70.1624 140.315 70.8756 137.513 70.8332 134.671C70.8795 132.513 70.4815 130.37 69.6639 128.373C68.8464 126.376 67.6268 124.569 66.081 123.063Z" fill="#13ABA3"/>
<path d="M145.087 132.333V150.977H153.363V132.487C153.28 130.747 153.643 129.014 154.419 127.453H145.579C145.235 129.056 145.07 130.693 145.087 132.333Z" fill="#13ABA3"/>
<path d="M172.886 125.933C172.221 124.246 171.144 122.753 169.754 121.59C167.341 119.496 163.135 118.449 159.439 118.449C157.939 118.452 156.443 118.617 154.979 118.941V126.652C155.533 126.028 156.224 125.539 156.997 125.223C157.771 124.908 158.606 124.773 159.439 124.831C163.481 124.831 165.499 127.386 165.493 132.497V150.986H173.778V132.333C173.878 130.163 173.576 127.993 172.886 125.933Z" fill="#13ABA3"/>
<path d="M129.023 134.654C129.027 136.152 128.642 137.625 127.906 138.93C127.17 140.234 126.107 141.325 124.823 142.096C123.538 142.866 122.076 143.29 120.578 143.325C119.081 143.36 117.6 143.006 116.28 142.297C114.961 141.588 113.848 140.549 113.051 139.28C112.254 138.012 111.8 136.559 111.734 135.062C111.668 133.566 111.991 132.078 112.673 130.744C113.354 129.41 114.37 128.276 115.622 127.453H105.48C104.43 129.62 103.894 132 103.914 134.408C103.844 136.597 104.224 138.776 105.031 140.812C105.837 142.848 107.053 144.696 108.603 146.243C110.109 147.795 111.921 149.018 113.923 149.836C115.925 150.654 118.075 151.049 120.238 150.995C122.421 151.046 124.593 150.66 126.626 149.86C128.658 149.059 130.51 147.861 132.072 146.334C133.634 144.833 134.865 143.023 135.69 141.02C136.514 139.017 136.913 136.865 136.861 134.7C136.889 132.205 136.34 129.738 135.259 127.489H125.154C126.339 128.272 127.312 129.336 127.987 130.586C128.662 131.836 129.018 133.234 129.023 134.654Z" fill="#13ABA3"/>
<path d="M251.887 125.933C251.222 124.244 250.142 122.751 248.746 121.59C246.343 119.496 242.137 118.449 238.441 118.449C234.745 118.449 230.502 119.496 228.099 121.59C226.724 122.756 225.666 124.249 225.022 125.933C224.375 127.994 224.068 130.146 224.112 132.305V142.656H232.396V132.487C232.396 127.371 234.408 125.204 238.45 125.204C241.991 125.204 243.976 126.798 244.413 130.749H252.743C252.722 129.107 252.433 127.481 251.887 125.933Z" fill="#13ABA3"/>
<path d="M190.269 134.652C190.265 133.082 190.689 131.54 191.495 130.192C192.301 128.844 193.46 127.742 194.846 127.003C196.232 126.264 197.794 125.918 199.362 126C200.93 126.083 202.447 126.591 203.748 127.471C205.049 128.35 206.086 129.568 206.746 130.993C207.407 132.418 207.667 133.996 207.498 135.558C207.329 137.119 206.737 138.605 205.787 139.855C204.837 141.106 203.563 142.074 202.104 142.655H215.068V118.411H206.756V120.505C204.232 119.063 201.37 118.318 198.463 118.347C196.301 118.304 194.153 118.697 192.147 119.504C190.142 120.312 188.32 121.516 186.792 123.045C185.251 124.506 184.031 126.272 183.209 128.229C182.386 130.186 181.979 132.293 182.012 134.416C181.964 137.292 182.657 140.132 184.024 142.664H195.731C194.123 142.029 192.743 140.926 191.769 139.498C190.795 138.069 190.273 136.381 190.269 134.652Z" fill="#13ABA3"/>
<path d="M280.234 136.929C280.234 142.045 278.216 144.604 274.18 144.604C270.144 144.604 268.126 142.045 268.126 136.929V126.332H259.842V137.093C259.751 139.255 260.06 141.415 260.752 143.466C261.422 145.151 262.501 146.644 263.893 147.808C266.296 149.902 270.502 150.949 274.198 150.949C277.894 150.949 282.128 149.902 284.54 147.808C285.911 146.639 286.969 145.147 287.617 143.466C288.263 141.405 288.571 139.252 288.528 137.093V126.332H280.243L280.234 136.929Z" fill="#13ABA3"/>
</svg>
