<svg width="981" height="428" viewBox="0 0 981 428" fill="none" xmlns="http://www.w3.org/2000/svg">
<mask id="mask0_512_10933" style="mask-type:alpha" maskUnits="userSpaceOnUse" x="0" y="0" width="981" height="429">
<path d="M0 15.7207C0 7.43642 6.71573 0.720703 15 0.720703H966C974.284 0.720703 981 7.43643 981 15.7207V413.001C981 421.285 974.284 428.001 966 428.001H15C6.7157 428.001 0 421.285 0 413.001V15.7207Z" fill="#C4C4C4"/>
</mask>
<g mask="url(#mask0_512_10933)">
<path d="M508.116 372.213C692.685 339.678 889.017 337.177 984.929 363.925L984.998 470.951L219.104 470.421L227.743 366.117C346.412 380.384 391.755 376.501 508.116 372.213Z" fill="#AA158B"/>
<path d="M619.026 363.118C381.112 303.299 125.397 285.402 -1.82275 316.498L-1.7265 470.271L985.059 470.909L984.995 374.906C829.137 386.563 770.351 377.721 619.026 363.118Z" fill="#535353"/>
</g>
<path d="M125.757 356.738C134.151 356.142 133.812 351.502 142.206 350.906C150.6 350.31 150.938 354.933 159.332 354.337C167.726 353.741 167.388 349.101 175.781 348.505C184.175 347.909 184.514 352.533 192.891 351.937C201.285 351.341 200.947 346.701 209.341 346.105C217.735 345.508 218.073 350.132 226.467 349.536C234.861 348.94 234.522 344.3 242.916 343.704C251.31 343.108 251.648 347.732 260.042 347.136C268.436 346.54 268.098 341.9 276.491 341.303C284.885 340.707 285.224 345.331 293.617 344.735C302.011 344.139 301.673 339.499 310.067 338.903C318.461 338.307 318.799 342.931 327.193 342.335C335.586 341.738 335.248 337.099 343.642 336.502C352.036 335.906 352.374 340.53 360.768 339.934" stroke="#F6B60D" stroke-width="0.6" stroke-miterlimit="10" stroke-linecap="round" stroke-linejoin="round"/>
<path d="M207.727 158.75L125.818 274.523" stroke="#F6B60D" stroke-width="0.6" stroke-miterlimit="10" stroke-linecap="round" stroke-linejoin="round"/>
<path d="M221.37 158.75L139.462 274.523" stroke="#F6B60D" stroke-width="0.6" stroke-miterlimit="10" stroke-linecap="round" stroke-linejoin="round"/>
<path d="M235.022 158.75L153.113 274.523" stroke="#F6B60D" stroke-width="0.6" stroke-miterlimit="10" stroke-linecap="round" stroke-linejoin="round"/>
<path d="M248.665 158.75L166.772 274.523" stroke="#F6B60D" stroke-width="0.6" stroke-miterlimit="10" stroke-linecap="round" stroke-linejoin="round"/>
<path d="M262.327 158.75L180.419 274.523" stroke="#F6B60D" stroke-width="0.6" stroke-miterlimit="10" stroke-linecap="round" stroke-linejoin="round"/>
<path d="M275.975 158.75L194.066 274.523" stroke="#F6B60D" stroke-width="0.6" stroke-miterlimit="10" stroke-linecap="round" stroke-linejoin="round"/>
<path d="M289.618 158.75L207.726 274.523" stroke="#F6B60D" stroke-width="0.6" stroke-miterlimit="10" stroke-linecap="round" stroke-linejoin="round"/>
<path d="M303.265 158.75L221.373 274.523" stroke="#F6B60D" stroke-width="0.6" stroke-miterlimit="10" stroke-linecap="round" stroke-linejoin="round"/>
<path d="M316.929 158.75L235.021 274.523" stroke="#F6B60D" stroke-width="0.6" stroke-miterlimit="10" stroke-linecap="round" stroke-linejoin="round"/>
<path d="M330.573 158.75L248.665 274.523" stroke="#F6B60D" stroke-width="0.6" stroke-miterlimit="10" stroke-linecap="round" stroke-linejoin="round"/>
<path d="M344.218 158.75L262.326 274.523" stroke="#F6B60D" stroke-width="0.6" stroke-miterlimit="10" stroke-linecap="round" stroke-linejoin="round"/>
<path d="M357.862 158.75L275.97 274.523" stroke="#F6B60D" stroke-width="0.6" stroke-miterlimit="10" stroke-linecap="round" stroke-linejoin="round"/>
<path d="M371.527 158.75L289.619 274.523" stroke="#F6B60D" stroke-width="0.6" stroke-miterlimit="10" stroke-linecap="round" stroke-linejoin="round"/>
<path d="M385.173 158.75L303.265 274.523" stroke="#F6B60D" stroke-width="0.6" stroke-miterlimit="10" stroke-linecap="round" stroke-linejoin="round"/>
<path d="M398.818 158.75L316.926 274.523" stroke="#F6B60D" stroke-width="0.6" stroke-miterlimit="10" stroke-linecap="round" stroke-linejoin="round"/>
<path d="M131.704 314.624C130.608 314.495 129.496 314.527 128.417 314.688C125.259 315.139 120.184 314.463 116.898 310.644C114.658 308.034 115.27 305.022 116.189 302.943C116.882 301.38 116.72 299.592 115.802 298.158C114.384 295.967 112.918 292.391 114.497 288.153C115.705 284.915 117.977 283.401 119.588 282.531C121.328 281.596 122.279 279.679 122.021 277.713C121.731 275.426 121.763 272.477 123.084 269.835C125.71 264.583 129.11 263.955 131.124 265.05C132.348 265.711 132.799 267.306 132.815 268.981C132.831 270.302 133.911 271.382 135.232 271.366C136.279 271.35 137.423 271.656 138.39 272.703C139.646 274.072 139.55 275.973 139.131 277.568C138.744 279.067 139.34 280.646 140.613 281.499C141.596 282.144 142.627 283.223 143.32 284.996C144.174 287.154 143.674 289.249 142.949 290.796C142.353 292.068 142.691 293.583 143.722 294.517C145.044 295.693 146.397 298.062 146.397 302.766C146.397 311.885 139.598 314.672 136.344 314.817C134.652 314.898 132.944 314.769 131.704 314.624Z" stroke="#F6B60D" stroke-width="0.6" stroke-miterlimit="10" stroke-linecap="round" stroke-linejoin="round"/>
<path d="M133.588 323.001L132.363 314.575" stroke="#F6B60D" stroke-width="0.6" stroke-miterlimit="10" stroke-linecap="round" stroke-linejoin="round"/>
<path d="M128.883 314.688L126.949 325.708" stroke="#F6B60D" stroke-width="0.6" stroke-miterlimit="10" stroke-linecap="round" stroke-linejoin="round"/>
<path d="M123.242 288.283C120.729 289.765 119.843 296.322 122.211 298.272" stroke="#F6B60D" stroke-width="0.6" stroke-miterlimit="10" stroke-linecap="round" stroke-linejoin="round"/>
<path d="M129.722 275.813C132.815 275.603 134.974 277.569 134.668 279.937" stroke="#F6B60D" stroke-width="0.6" stroke-miterlimit="10" stroke-linecap="round" stroke-linejoin="round"/>
<path d="M130.236 290.86C130.961 293.647 137.551 294.356 137.97 290.344" stroke="#F6B60D" stroke-width="0.6" stroke-miterlimit="10" stroke-linecap="round" stroke-linejoin="round"/>
<path d="M135.7 300.124C138.181 301.365 138.374 307.229 133.541 308.163" stroke="#F6B60D" stroke-width="0.6" stroke-miterlimit="10" stroke-linecap="round" stroke-linejoin="round"/>
<path d="M127.872 303.845C123.232 303.845 121.992 308.179 123.136 310.129" stroke="#F6B60D" stroke-width="0.6" stroke-miterlimit="10" stroke-linecap="round" stroke-linejoin="round"/>
<path d="M173.299 322.615V312.272L182.595 300.124H204.715L214.221 312.272V323.05" stroke="#94C7D4" stroke-width="0.6" stroke-miterlimit="10" stroke-linecap="round" stroke-linejoin="round"/>
<path d="M214.222 312.272H191.683" stroke="#94C7D4" stroke-width="0.6" stroke-miterlimit="10" stroke-linecap="round" stroke-linejoin="round"/>
<path d="M182.595 300.124L191.681 312.272" stroke="#94C7D4" stroke-width="0.6" stroke-miterlimit="10" stroke-linecap="round" stroke-linejoin="round"/>
<path d="M191.683 312.272V327.561" stroke="#94C7D4" stroke-width="0.6" stroke-miterlimit="10" stroke-linecap="round" stroke-linejoin="round"/>
<path d="M102.222 322.631C110.535 322.856 110.744 327.561 119.477 327.561C128.418 327.561 128.418 322.615 137.36 322.615C146.301 322.615 146.301 327.561 155.243 327.561C164.185 327.561 164.185 322.615 173.126 322.615C182.068 322.615 182.068 327.561 191.009 327.561C195.214 327.561 199.613 325.176 199.613 325.176C201.9 323.92 204.14 322.615 208.715 322.615C217.657 322.615 217.657 327.561 226.599 327.561C235.54 327.561 235.54 322.615 244.482 322.615C253.423 322.615 253.423 327.561 262.365 327.561C271.307 327.561 271.307 322.615 280.248 322.615C289.19 322.615 289.19 327.561 298.131 327.561C307.073 327.561 307.073 322.615 316.015 322.615C324.956 322.615 324.956 327.561 333.898 327.561C342.839 327.561 342.839 322.615 351.781 322.615C360.723 322.615 360.723 327.561 369.664 327.561C378.606 327.561 378.606 322.615 387.547 322.615" stroke="#75ACBA" stroke-width="0.6" stroke-miterlimit="10" stroke-linecap="round" stroke-linejoin="round"/>
<path d="M268.568 313.496V288.201L284.003 272.751L299.453 288.201V314.269" stroke="#94C7D4" stroke-width="0.6" stroke-miterlimit="10" stroke-linecap="round" stroke-linejoin="round"/>
<path d="M284.181 294.936C285.818 294.936 287.146 293.688 287.146 292.149C287.146 290.609 285.818 289.361 284.181 289.361C282.544 289.361 281.217 290.609 281.217 292.149C281.217 293.688 282.544 294.936 284.181 294.936Z" stroke="#FD3C0B" stroke-width="0.6" stroke-miterlimit="10" stroke-linecap="round" stroke-linejoin="round"/>
<path d="M309.505 297.965C309.424 296.885 314.612 295.032 317.705 294.259C320.799 293.486 324.279 292.245 325.052 295.338C325.825 298.432 328.451 319.457 328.29 323.855C328.129 328.253 327.436 337.759 321.105 339.08C314.773 340.401 314 340.079 313.291 339.628C312.598 339.16 312.985 337.147 313.065 336.067C313.146 334.988 318.318 333.747 318.318 333.747C318.318 333.747 316.851 327.48 316.851 325.402C316.851 323.307 315.611 321.148 314.838 320.617C314.064 320.069 313.13 315.896 312.824 314.511C312.518 313.109 309.505 297.965 309.505 297.965Z" fill="#FD3C0B"/>
<path d="M325.036 295.339C324.52 293.309 322.845 293.148 320.879 293.486C319.317 297.272 319.623 300.349 324.408 314.35C325.535 317.652 325.02 326.723 324.101 330.573C323.167 334.44 321.943 335.745 319.381 336.293C317.577 336.679 314.548 336.873 312.953 336.937C312.84 338.001 312.743 339.257 313.275 339.612C313.968 340.079 314.741 340.385 321.089 339.064C327.42 337.743 328.129 328.237 328.274 323.839C328.435 319.457 325.809 298.432 325.036 295.339Z" fill="#F6B60D"/>
<path d="M316.383 322.776C318.316 322.55 320.862 321.696 320.862 321.696" stroke="#292F44" stroke-width="0.6" stroke-miterlimit="10" stroke-linecap="round" stroke-linejoin="round"/>
<path d="M316.838 325.402C318.82 325.273 320.527 325.063 321.091 324.854" stroke="#292F44" stroke-width="0.6" stroke-miterlimit="10" stroke-linecap="round" stroke-linejoin="round"/>
<path d="M317.126 328.012C318.979 328.012 320.477 327.706 321.138 327.593" stroke="#292F44" stroke-width="0.6" stroke-miterlimit="10" stroke-linecap="round" stroke-linejoin="round"/>
<path d="M317.735 330.831C319.121 330.879 320.313 330.622 320.925 330.525" stroke="#292F44" stroke-width="0.6" stroke-miterlimit="10" stroke-linecap="round" stroke-linejoin="round"/>
<path d="M318.109 332.958C319.302 333.055 320.381 333.006 320.945 332.861" stroke="#292F44" stroke-width="0.6" stroke-miterlimit="10" stroke-linecap="round" stroke-linejoin="round"/>
<path d="M146.347 338.613C145.268 338.774 144.027 342.012 142.4 342.947C140.773 343.881 134.94 345.428 131.895 346.894C128.867 348.344 128.883 349.375 128.802 350.519C128.786 350.825 128.77 351.115 128.786 351.373C128.802 352.001 129.35 352.485 129.978 352.436L167.92 349.295C168.5 349.246 168.935 348.763 168.935 348.183C168.935 346.926 168.838 344.735 168.387 343.027C167.694 340.482 167.227 336.615 166.067 336.921C164.891 337.228 146.347 338.613 146.347 338.613Z" fill="#FD3C0B"/>
<path d="M168.21 342.174C160.912 342.979 156.884 347.345 148.957 348.28C144.833 348.763 133.636 349.214 128.915 349.601C128.835 349.907 128.803 350.197 128.786 350.519C128.77 350.825 128.754 351.115 128.77 351.373C128.786 352.002 129.334 352.485 129.963 352.437L167.904 349.295C168.484 349.247 168.919 348.763 168.919 348.183C168.919 347.265 168.919 344.607 168.21 342.174Z" fill="#F6B60D"/>
<path d="M143.996 341.352C145.188 341.964 147.138 343.833 147.605 344.96" stroke="#292F44" stroke-width="0.6" stroke-miterlimit="10" stroke-linecap="round" stroke-linejoin="round"/>
<path d="M142.772 342.738C144.48 344.027 145.092 344.961 145.254 345.879" stroke="#292F44" stroke-width="0.6" stroke-miterlimit="10" stroke-linecap="round" stroke-linejoin="round"/>
<path d="M141.064 343.624C141.789 344.187 142.514 345.219 142.917 346.556" stroke="#292F44" stroke-width="0.6" stroke-miterlimit="10" stroke-linecap="round" stroke-linejoin="round"/>
<path d="M139.13 344.284C140.113 345.106 140.596 346.25 140.757 347.12" stroke="#292F44" stroke-width="0.6" stroke-miterlimit="10" stroke-linecap="round" stroke-linejoin="round"/>
<path d="M137.099 345.009C137.711 345.783 138.291 346.862 138.388 347.49" stroke="#292F44" stroke-width="0.6" stroke-miterlimit="10" stroke-linecap="round" stroke-linejoin="round"/>
<path d="M165.133 286.43L165.262 290.925L141.45 292.487C142.916 281 147.443 273.041 151.423 267.983C155.644 262.618 163.377 259.121 168.017 258.509L170.386 286.124L165.133 286.43Z" fill="#F7EAE1"/>
<path d="M257.695 313.238L240.971 318.265L239.328 311.562L211.295 315.171C212.117 323.614 213.969 336.083 223.153 341.964C232.32 347.844 241.084 347.732 249.333 344.751C252.571 343.575 259.225 341.175 266.604 338.484C265.315 329.559 262.898 320.681 257.695 313.238Z" fill="#F7EAE1"/>
<path d="M166.987 257.671C166.987 257.671 174.608 256.221 183.469 255.915C192.33 255.609 231.689 261.071 231.689 261.071L232.511 262.199C232.511 262.199 235.298 273.541 236.522 281.258C237.763 288.991 240.341 310.322 240.856 311.965C240.856 311.965 232.511 315.155 224.987 316.186C217.463 317.218 209.424 317.008 209.424 317.008L206.121 291.456C206.121 291.456 195.101 292.487 186.852 293.212C178.603 293.937 170.161 294.549 170.161 294.549C170.161 294.549 168.405 286.816 167.68 276.827C166.987 266.838 166.987 257.671 166.987 257.671Z" fill="#292F44"/>
<path d="M206.133 291.472C205.15 285.753 203.346 273.847 203.346 273.847" stroke="#100C27" stroke-width="0.6" stroke-miterlimit="10" stroke-linecap="round" stroke-linejoin="round"/>
<path d="M226.805 264.116C228.045 270.608 232.83 297.143 233.555 304.973" stroke="#100C27" stroke-width="0.6" stroke-miterlimit="10" stroke-linecap="round" stroke-linejoin="round"/>
<path d="M228.189 272.929C224.789 273.444 214.897 273.444 213.447 266.436" stroke="#100C27" stroke-width="0.6" stroke-miterlimit="10" stroke-linecap="round" stroke-linejoin="round"/>
<path d="M208.824 307.954C218.297 308.469 234.827 306.004 239.032 303.104" stroke="#100C27" stroke-width="0.6" stroke-miterlimit="10" stroke-linecap="round" stroke-linejoin="round"/>
<path d="M174.813 257.156C175.12 263.439 177.295 286.945 178.116 293.116" stroke="#100C27" stroke-width="0.6" stroke-miterlimit="10" stroke-linecap="round" stroke-linejoin="round"/>
<path d="M230.461 251.388C230.558 253.45 231.395 257.978 231.395 257.978L220.263 260.765L223.662 254.578L230.461 251.388Z" fill="#D93309"/>
<path d="M220.365 258.912C223.668 259.121 231.498 256.85 231.498 256.85L232.529 262.215C232.529 262.215 226.552 264.18 221.815 265.098C217.079 266.033 215.017 265.92 215.017 265.92L220.365 258.912Z" fill="#100C27"/>
<path d="M199.548 216.862C202.432 215.009 209.955 212.738 211.921 212.641C211.921 212.641 216.142 209.145 217.898 209.032C219.654 208.935 226.969 208.823 227.694 208.935C228.419 209.032 230.996 213.366 230.996 213.366C230.996 213.366 240.276 216.765 243.466 223.049C246.656 229.332 245.432 237.162 240.486 243.864C235.54 250.566 221.426 259.943 221.426 259.943C221.426 259.943 220.814 262.424 219.461 263.552C218.124 264.679 216.883 264.583 216.883 264.583C216.883 264.583 215.643 266.951 213.999 267.37C212.356 267.789 211.115 266.951 210.084 266.242C209.053 265.517 198.549 247.376 198.549 247.376L199.548 216.862Z" fill="#FD3C0B"/>
<path d="M228.917 223.145C225.728 225.513 208.312 241.173 208.312 241.173" stroke="#292F44" stroke-width="0.6" stroke-miterlimit="10" stroke-linecap="round" stroke-linejoin="round"/>
<path d="M200.449 246.023C201.061 244.782 203.462 243.236 204.928 242.317C206.394 241.383 207.78 240.545 211.034 242.479C214.272 244.412 217.914 248.278 219.38 251.903C220.846 255.528 221.619 257.784 221.394 259.943" stroke="#292F44" stroke-width="0.6" stroke-miterlimit="10" stroke-linecap="round" stroke-linejoin="round"/>
<path d="M206.248 243.477C209.261 244.718 214.432 249.277 215.834 253.836C217.236 258.396 217.381 261.715 217.155 263.648" stroke="#292F44" stroke-width="0.6" stroke-miterlimit="10" stroke-linecap="round" stroke-linejoin="round"/>
<path d="M205.703 219.359C204.624 222.372 200.918 233.263 200.918 233.263" stroke="#292F44" stroke-width="0.6" stroke-miterlimit="10" stroke-linecap="round" stroke-linejoin="round"/>
<path d="M220.618 216.04C221.859 217.506 222.777 219.907 223.47 219.826C224.163 219.746 229.028 215.815 230.575 213.881" stroke="#292F44" stroke-width="0.6" stroke-miterlimit="10" stroke-linecap="round" stroke-linejoin="round"/>
<path d="M212.112 213.253C211.951 216.266 212.032 217.812 212.032 217.812L216.285 216.04" stroke="#292F44" stroke-width="0.6" stroke-miterlimit="10" stroke-linecap="round" stroke-linejoin="round"/>
<path d="M155.339 204.698C154.92 208.001 158.319 211.094 161.525 211.916C164.715 212.737 165.747 213.156 165.747 213.156C165.747 213.156 164.812 229.332 165.134 239.127C165.44 248.923 168.115 253.869 172.658 255.931C177.185 257.993 184.194 257.381 184.194 257.381L183.581 216.056C183.581 216.056 183.791 208.839 179.876 206.164C175.961 203.49 171.53 202.861 171.53 202.861L155.339 204.698Z" fill="#E8DACF"/>
<path d="M163.264 205.842C167.694 206.148 173.156 207.082 175.524 208.935C177.892 210.788 177.377 214.397 177.377 214.397" stroke="#FE7654" stroke-width="0.6" stroke-miterlimit="10" stroke-linecap="round" stroke-linejoin="round"/>
<path d="M206.778 175.86C208.051 174.41 209.952 174.7 211.644 175.634C213.352 176.569 215.269 176.327 216.364 175.409C217.444 174.474 219.844 173.395 222.084 174.941C224.323 176.488 225.483 177.342 228.029 177.036C230.574 176.73 232.427 177.503 233.055 179.05C233.668 180.596 233.055 182.062 234.521 183.303C235.988 184.544 237.003 184.544 236.229 186.702C235.456 188.861 235.456 191.101 235.456 191.101C235.456 191.101 233.297 195.966 232.604 197.593C231.912 199.221 229.817 202.233 228.125 202.378C226.418 202.539 218.845 190.633 218.845 190.633C218.845 190.633 218.153 189.554 218.926 187.927C219.699 186.3 220.005 185.607 220.005 185.607C220.005 185.607 218.233 185.446 217.154 184.447C216.074 183.448 214.447 182.9 212.675 183.512C210.903 184.125 209.582 183.899 207.954 183.045C206.311 182.191 204.007 179.017 206.778 175.86Z" fill="#292F44"/>
<path d="M229.85 196.257C229.85 196.257 233.909 186.864 232.556 185.43C231.203 183.996 229.737 185.269 227.965 183.771C226.192 182.256 224.533 182.965 221.778 183.352C219.039 183.738 220.457 181.338 217.251 179.984C214.045 178.631 213.465 180.645 209.824 180.484C207.085 180.371 206.166 179.05 205.796 177.407C204.749 180.001 206.585 182.337 207.939 183.046C209.566 183.899 210.871 184.125 212.659 183.513C214.431 182.901 216.059 183.432 217.138 184.447C218.217 185.446 219.99 185.607 219.99 185.607C219.99 185.607 219.683 186.3 218.91 187.927C218.137 189.554 218.83 190.634 218.83 190.634C218.83 190.634 219.522 191.713 220.537 193.228L227.497 196.853L229.85 196.257Z" fill="#100C27"/>
<path d="M220.845 186.525C220.233 187.46 218.686 189.313 218.058 191.004C217.446 192.712 216.817 195.403 216.044 197.271C215.271 199.124 214.111 201.605 215.19 203.216C216.27 204.844 218.042 204.763 218.042 204.763C218.042 204.763 216.882 209.242 216.415 210.257C216.415 210.257 216.576 218.071 217.736 218.135C218.896 218.216 219.669 215.815 220.281 215.284C220.893 214.736 227.821 209.838 227.821 209.838C227.821 209.838 229.062 202.491 229.368 201.573C229.674 200.639 230.254 198.286 230.254 198.286C230.254 198.286 232.961 198.286 235.119 195.58C237.278 192.873 236.892 191.101 235.506 190.408C234.121 189.715 232.284 190.811 231.559 191.729C230.399 193.195 229.899 196.095 228.739 196.095C227.579 196.095 228.739 193.083 229.239 191.89C229.787 190.569 228.884 188.024 228.884 188.024C228.884 188.024 226.597 188.491 224.051 187.943C221.554 187.363 220.845 186.525 220.845 186.525Z" fill="#F7EAE1"/>
<path d="M234.574 192.196C233.027 193.131 231.642 195.515 230.562 196.256" stroke="#FE7654" stroke-width="0.6" stroke-miterlimit="10" stroke-linecap="round" stroke-linejoin="round"/>
<path d="M223.278 193.243C223.053 193.936 222.892 194.983 223.746 195.209C224.599 195.434 226.146 194.435 226.678 193.936" stroke="#FE7654" stroke-width="0.6" stroke-miterlimit="10" stroke-linecap="round" stroke-linejoin="round"/>
<path d="M217.332 198.415C218.073 198.689 221.15 198.576 222.085 198.641" stroke="#FE7654" stroke-width="0.6" stroke-miterlimit="10" stroke-linecap="round" stroke-linejoin="round"/>
<path d="M223.279 191.229C224.713 191.31 227.178 191.584 227.645 191.648" stroke="#292F44" stroke-miterlimit="10" stroke-linecap="round" stroke-linejoin="round"/>
<path d="M218.527 190.118C219.655 190.199 221.701 190.891 221.701 190.891" stroke="#292F44" stroke-width="0.6" stroke-miterlimit="10" stroke-linecap="round" stroke-linejoin="round"/>
<path d="M218.072 204.763C220.698 205.15 222.825 205.343 224.597 204.07C226.369 202.797 228.303 199.35 228.303 199.35" stroke="#FE7654" stroke-width="0.6" stroke-miterlimit="10" stroke-linecap="round" stroke-linejoin="round"/>
<path d="M155.852 205.971L219.877 196.353C221.214 196.272 220.973 191.874 219.635 191.954L154.934 189.312L155.852 205.971Z" fill="#292F44"/>
<path d="M155.979 208.323L139.611 212.045L138.145 185.027L154.819 186.96C157.429 186.799 158.589 208.178 155.979 208.323Z" fill="#292F44"/>
<path d="M139.61 212.061C136.018 212.254 135.196 207.678 134.793 198.705C134.39 189.731 134.906 185.155 138.386 184.978C141.801 184.785 142.8 189.36 143.203 198.334C143.606 207.308 143.364 211.851 139.61 212.061Z" fill="#F8C642"/>
<path d="M139.541 210.385C137.431 210.514 136.899 206.486 136.545 198.624C136.19 190.761 136.432 186.766 138.478 186.653C140.476 186.54 141.12 190.552 141.475 198.414C141.829 206.276 141.749 210.256 139.541 210.385Z" fill="#292F44"/>
<path d="M156.369 189.957C156.772 191.568 157.884 200.783 157.191 205.165" stroke="#100C27" stroke-width="0.6" stroke-miterlimit="10" stroke-linecap="round" stroke-linejoin="round"/>
<path d="M169.141 190.488C170.381 192.76 171.106 199.446 170.172 203.264" stroke="#100C27" stroke-width="0.6" stroke-miterlimit="10" stroke-linecap="round" stroke-linejoin="round"/>
<path d="M178.119 191.004C179.247 193.791 179.666 198.737 179.15 202.024" stroke="#100C27" stroke-width="0.6" stroke-miterlimit="10" stroke-linecap="round" stroke-linejoin="round"/>
<path d="M215.108 192.245C215.93 193.276 215.93 195.225 215.624 196.466" stroke="#100C27" stroke-width="0.6" stroke-miterlimit="10" stroke-linecap="round" stroke-linejoin="round"/>
<path d="M138.757 194.516C137.871 194.549 137.098 194.661 136.405 194.823C136.421 195.966 136.47 197.239 136.534 198.641C136.599 200.139 136.679 201.492 136.76 202.701C137.453 202.797 138.226 202.846 139.096 202.797C140.046 202.765 140.884 202.636 141.593 202.459C141.561 201.251 141.512 199.898 141.448 198.415C141.384 197.046 141.319 195.789 141.222 194.645C140.514 194.516 139.692 194.468 138.757 194.516Z" fill="white"/>
<path d="M137.947 200.429C137.125 200.429 136.706 199.816 136.706 198.624C136.706 197.432 137.125 196.82 137.947 196.82C138.768 196.82 139.187 197.432 139.187 198.624C139.187 199.816 138.768 200.429 137.947 200.429Z" fill="#303336"/>
<path d="M140.049 209.129C138.164 209.242 137.68 205.633 137.358 198.592C137.036 191.536 137.262 187.959 139.082 187.862" stroke="white" stroke-width="0.6" stroke-miterlimit="10" stroke-linecap="round" stroke-linejoin="round"/>
<path d="M221.475 192.664C220.621 193.662 217.721 196.337 217.721 196.756C217.721 197.175 220.766 197.03 220.766 197.03C221.99 195.741 222.022 194.259 221.475 192.664Z" fill="#F7EAE1"/>
<path d="M221.475 192.664C220.621 193.662 217.721 196.337 217.721 196.756C217.721 197.175 220.766 197.03 220.766 197.03" stroke="#FE7654" stroke-width="0.6" stroke-miterlimit="10" stroke-linecap="round" stroke-linejoin="round"/>
<path d="M224.075 199.059C223.462 198.785 223.366 198.189 223.752 197.303C224.155 196.417 224.655 196.094 225.267 196.368C225.879 196.642 225.976 197.238 225.589 198.124C225.186 199.027 224.671 199.333 224.075 199.059Z" fill="#FE9074"/>
<path d="M184.499 194.291C184.692 190.666 185.32 188.829 187.479 188.733C189.638 188.636 190.46 189.345 190.573 190.585C190.573 190.585 191.604 188.523 194.069 188.733C196.55 188.942 197.049 189.973 196.952 190.795C196.952 190.795 197.162 187.911 197.468 185.945C197.774 183.98 198.402 183.158 200.142 183.271C201.899 183.368 202.511 184.399 202.511 186.155C202.511 187.911 202.607 193.888 202.511 195.322C202.414 196.772 202.414 198.979 202.414 198.979L209.777 197.851C209.777 197.851 208.279 200.784 207.811 202.846C207.344 204.908 207.296 211.143 202.559 212.126L200.964 248.085L202.93 246.748C202.93 246.748 207.666 248.81 209.422 254.369C211.178 259.927 211.388 265.711 211.388 265.711C211.388 265.711 204.38 269.207 195.422 269.014C186.464 268.804 180.487 262.005 180.278 249.954C180.068 237.903 182.13 219.762 182.549 213.576C182.952 207.389 184.402 196.256 184.499 194.291Z" fill="#F7EAE1"/>
<path d="M190.573 190.585C190.573 193.469 190.363 195.531 190.363 195.531" stroke="#FE7654" stroke-width="0.6" stroke-miterlimit="10" stroke-linecap="round" stroke-linejoin="round"/>
<path d="M196.968 190.794C196.872 192.551 196.662 195.128 196.662 195.128" stroke="#FE7654" stroke-width="0.6" stroke-miterlimit="10" stroke-linecap="round" stroke-linejoin="round"/>
<path d="M202.432 198.979C202.335 200.993 202.013 205.005 202.013 205.005" stroke="#FE7654" stroke-width="0.6" stroke-miterlimit="10" stroke-linecap="round" stroke-linejoin="round"/>
<path d="M200.979 248.085C200.979 253.128 200.673 258.799 200.561 261.989" stroke="#FE7654" stroke-width="0.6" stroke-miterlimit="10" stroke-linecap="round" stroke-linejoin="round"/>
<path d="M165.134 286.429C165.23 282.724 164.828 275.409 164.924 273.347" stroke="#FE7654" stroke-width="0.6" stroke-miterlimit="10" stroke-linecap="round" stroke-linejoin="round"/>
<path d="M166.564 337.743C166.564 337.743 163.181 338.371 160.603 340.127C158.025 341.883 155.705 343.849 154.578 343.946C153.45 344.042 151.951 341.4 149.938 340.272C147.94 339.161 145.958 339.273 145.958 339.273C145.958 339.273 144.105 331.959 142.768 320.311C141.431 308.663 140.706 300.22 141.222 294.549C141.286 293.84 141.367 293.148 141.447 292.471L165.259 290.908L166.564 337.743Z" fill="#94C7D4"/>
<path d="M315.176 319.602C315.176 319.602 317.061 316.75 317.158 313.335C317.255 309.919 316.997 306.842 316.997 306.842C316.997 306.842 314.242 304.039 313.307 302.073C312.373 300.107 311.148 297.127 311.148 297.127L255.952 313.737C257.16 316.073 260.012 321.954 261.059 327.319C261.994 332.136 262.574 337.211 262.848 339.821C274.979 335.423 290.607 329.703 295.891 327.625C303.737 324.548 315.176 319.602 315.176 319.602Z" fill="#94C7D4"/>
<path d="M265.939 310.757L263.667 311.434C266.535 316.605 270.144 327.432 270.885 336.921C271.642 336.647 272.383 336.373 273.14 336.099C272.286 326.9 268.968 316.428 265.939 310.757Z" fill="white"/>
<path d="M141.141 302.524C147.006 302.057 159.653 301.058 165.517 300.607L165.453 298.287C159.685 298.738 147.022 299.721 141.061 300.204C141.077 300.945 141.109 301.719 141.141 302.524Z" fill="white"/>
<path d="M129.786 191.214C124.937 190.086 121.344 189.361 114.336 189.361C109.277 189.361 100.835 190.392 100.835 190.392C100.835 190.392 103.928 192.97 106.506 194.822C109.083 196.675 111.355 197.916 111.355 197.916C111.355 197.916 107.021 200.397 104.653 202.25C102.285 204.102 98.6757 206.165 98.7724 206.986C98.8691 207.808 104.025 207.921 106.296 208.114C108.568 208.323 111.758 208.211 111.758 208.211C111.758 208.211 109.067 211.513 107.617 213.672C106.167 215.831 103.187 219.859 103.912 220.471C104.637 221.083 114.03 219.472 118.444 218.506C126.999 216.653 134.007 213.463 134.007 213.463" stroke="#F6B60D" stroke-width="0.6" stroke-miterlimit="10" stroke-linecap="round" stroke-linejoin="round"/>
<path d="M112.466 193.373C116.993 193.679 123.18 194.5 124.936 195.129" stroke="#F6B60D" stroke-width="0.6" stroke-miterlimit="10" stroke-linecap="round" stroke-linejoin="round"/>
<path d="M112.581 215.009C116.705 213.672 126.904 209.854 128.869 208.936" stroke="#F6B60D" stroke-width="0.6" stroke-miterlimit="10" stroke-linecap="round" stroke-linejoin="round"/>
<path d="M110.099 203.877C115.56 203.055 126.58 202.427 126.58 202.427" stroke="#F6B60D" stroke-width="0.6" stroke-miterlimit="10" stroke-linecap="round" stroke-linejoin="round"/>
<path d="M305.787 289.071C304.852 288.91 304.627 289.684 304.24 290.844C303.853 292.004 301.92 297.256 302.307 297.723C302.693 298.19 336.317 297.723 337.396 297.723C338.476 297.723 337.622 293.325 336.317 292.165C334.996 291.005 329.824 291.472 328.439 290.537C327.053 289.603 324.733 287.75 323.573 287.686C322.413 287.605 305.787 289.071 305.787 289.071Z" fill="#FD3C0B"/>
<path d="M302.318 297.739C302.705 298.207 336.328 297.739 337.408 297.739C338.052 297.739 338.004 296.16 337.585 294.646C323.923 295.597 310.583 296.402 302.962 294.646C302.495 296.128 302.125 297.514 302.318 297.739Z" fill="#F9CA51"/>
<path d="M234.684 338.162C235.682 337.469 245.51 338.774 247.282 338.774C249.055 338.774 249.828 338.613 250.456 339.322C251.068 340.014 254.371 341.368 256.949 341.722C260.542 342.206 263.361 343.833 264.134 346.717C264.279 347.281 263.861 347.828 263.281 347.828H233.54C232.621 347.828 231.929 347.023 232.057 346.121L234.684 338.162Z" fill="#FD3C0B"/>
<path d="M232.043 346.104C231.914 347.007 232.607 347.812 233.525 347.812H263.266C263.846 347.812 264.265 347.264 264.12 346.7C263.91 345.895 263.636 345.218 263.073 344.654C251.102 345.669 240.114 346.12 232.526 344.654L232.043 346.104Z" fill="#F6B60D"/>
<path d="M272.175 259.089C272.175 259.089 268.695 270.689 266.149 278.326C264.586 283.03 260.671 294.453 257.675 303.362C253.663 303.346 246.59 303.282 239.034 303.12C240.049 297.707 241.37 290.683 242.417 286.526C244.125 279.727 249.377 256.85 249.377 256.85L272.175 259.089Z" fill="#F9EEE7"/>
<path d="M291.028 192.083C292.655 197.029 293.573 206.615 293.573 206.615L310.039 205.004C310.474 204.956 310.844 205.326 310.812 205.761C310.377 210.788 308.025 236.582 305.93 237.838C303.61 239.224 280.588 242.172 280.588 242.172C280.588 242.172 275.803 258.863 275.175 259.491C274.562 260.104 265.895 260.877 258.177 260.104C250.444 259.33 245.031 258.251 245.192 257.171C245.353 256.092 249.204 238.16 255.39 221.921C261.577 205.697 267.763 193.162 267.763 193.162L291.028 192.083Z" fill="#292F44"/>
<path d="M267.534 199.269C272.786 198.802 283.532 198.19 287.48 197.883C291.427 197.577 292.426 197.497 292.426 197.497C292.426 197.497 292.071 195.483 291.846 194.403C291.62 193.324 291.153 191.729 291.153 191.729C291.153 191.729 285.933 192.116 281.921 192.341C277.91 192.567 271.804 192.921 271.804 192.921L267.534 199.269Z" fill="#F6B60D"/>
<path d="M289.867 197.465L284.567 197.819C284.132 197.851 283.745 197.513 283.713 197.078L283.455 193.163C283.423 192.728 283.761 192.341 284.196 192.309L289.497 191.955C289.932 191.923 290.319 192.261 290.351 192.696L290.609 196.611C290.641 197.046 290.302 197.433 289.867 197.465Z" stroke="#292F44" stroke-width="0.6" stroke-miterlimit="10"/>
<path d="M293.041 166.499C291.188 163.486 288.562 156.832 288.482 153.207C288.401 149.582 289.561 146.553 289.561 146.553C289.561 146.553 291.784 139.11 292.735 137.547C293.782 135.807 295.828 135.26 296.988 137.048C296.988 137.048 297.375 135.324 299.389 135.195C301.129 135.082 301.548 136.323 301.548 136.323C301.548 136.323 302.627 135.131 304.399 136.049C307.847 137.854 299.614 148.809 299.373 150.42C299.147 152.047 302.079 157.767 305.092 161.698C305.092 161.698 302.998 163.792 299.598 165.097C296.199 166.402 293.041 166.499 293.041 166.499Z" fill="#E8DACF"/>
<path d="M308.779 137.419C319.686 136.146 372.724 126.077 383.695 125.625C383.695 125.625 377.976 131.957 374.109 135.518C374.109 135.518 390.8 143.396 391.106 144.798C391.413 146.183 373.481 151.758 373.481 151.758C373.481 151.758 383.373 161.182 383.373 162.89C383.373 162.89 362.832 160.151 344.417 157.171C328.854 154.641 301.658 149.083 301.658 149.083" stroke="#F6B60D" stroke-width="0.6" stroke-miterlimit="10" stroke-linecap="round" stroke-linejoin="round"/>
<path d="M311.746 150.114L283.246 144.943C282.086 144.943 282.086 141.334 283.246 141.334L311.746 136.162V150.114Z" fill="#292F44"/>
<path d="M316.979 143.129C316.987 139.285 314.707 136.164 311.886 136.159C309.065 136.153 306.773 139.265 306.765 143.108C306.757 146.952 309.038 150.073 311.858 150.079C314.679 150.084 316.972 146.973 316.979 143.129Z" fill="#F8C642"/>
<path d="M311.844 149.019C308.96 149.019 307.51 147.022 307.51 143.107C307.51 139.192 308.992 137.21 311.86 137.21C314.744 137.21 316.194 139.208 316.194 143.123C316.178 147.038 314.711 149.035 311.844 149.019Z" stroke="#292F44" stroke-width="0.6" stroke-miterlimit="10"/>
<path d="M315.664 143.126C315.667 141.578 313.967 140.32 311.867 140.315C309.767 140.311 308.062 141.563 308.059 143.111C308.056 144.659 309.756 145.918 311.856 145.922C313.956 145.926 315.661 144.675 315.664 143.126Z" fill="white"/>
<path d="M306.767 137.983C305.478 139.884 305.429 143.026 305.526 144.476C305.623 145.926 306.203 147.666 307.024 148.648" stroke="#100C27" stroke-width="0.6" stroke-miterlimit="10" stroke-linecap="round" stroke-linejoin="round"/>
<path d="M313.076 144.507C312.255 144.507 311.836 143.895 311.836 142.703C311.836 141.511 312.255 140.898 313.076 140.898C313.898 140.898 314.317 141.511 314.317 142.703C314.317 143.895 313.898 144.507 313.076 144.507Z" fill="#303336"/>
<path d="M284.773 163.873C287.013 164.872 297.598 175.086 297.598 175.086L293.038 166.515L305.089 161.73C305.089 161.73 313.741 172.395 316.367 179.114C318.993 185.832 317.833 192.486 312.194 195.338C306.556 198.189 298.291 194.403 294.424 191.713C290.557 189.006 286.932 185.445 286.932 185.445L281.761 168.98L284.773 163.873Z" fill="#FD3C0B"/>
<path d="M283.373 167.354C286.466 171.526 290.413 177.632 290.413 177.632L287.626 181.725C287.626 181.725 290.107 187.75 291.025 192.084L271.016 193.324L283.373 167.354Z" fill="#FD4E21"/>
<path d="M269.472 160.941C266.539 162.02 257.34 163.261 249.913 175.312C242.486 187.363 239.795 198.882 247.979 203.99C256.18 209.097 263.752 205.842 269.923 197.191C276.109 188.539 282.908 172.847 282.908 172.847L269.472 160.941Z" fill="#FD633C"/>
<path d="M276.962 139.61C277.783 137.757 279.056 133.729 274.948 130.717C271.951 128.509 267.859 130.104 265.7 129.992C263.541 129.895 263.444 126.866 261.962 123.837C260.496 120.824 256.323 119.793 252.811 120.728C249.315 121.662 245.706 121.243 243.225 117.747C240.744 114.251 236.523 113.623 233.43 114.348C230.336 115.073 228.065 116.829 225.487 120.534C222.909 124.24 219.204 124.546 216.014 123.515C212.824 122.484 209.827 119.503 205.187 120.937C200.547 122.387 199.725 125.368 199.113 128.042C198.501 130.717 198.598 132.988 196.439 134.019C194.28 135.05 189.124 134.116 187.368 138.45C185.612 142.784 187.465 147.826 192.733 149.164C197.985 150.501 202.11 147.198 205.815 150.291C209.521 153.385 205.912 156.365 211.486 160.603C217.045 164.824 222.716 161.634 225.197 159.99C227.678 158.347 230.868 158.75 233.752 161.537C236.636 164.324 240.97 166.483 244.466 163.696C247.962 160.909 249.508 160.296 252.199 161.215C254.873 162.149 258.482 163.277 260.641 159.974C262.8 156.671 264.041 155.447 266.715 155.753C269.389 156.059 270.839 155.656 270.839 155.656L276.962 139.61Z" fill="#FD633C"/>
<path d="M261.656 134.342C260.19 131.329 256.017 130.298 252.505 131.232C249.009 132.167 245.4 131.748 242.919 128.252C240.438 124.756 236.217 124.127 233.124 124.852C230.03 125.577 227.759 127.333 225.181 131.039C222.603 134.744 218.898 135.05 215.708 134.019C212.518 132.988 209.521 130.008 204.881 131.442C200.241 132.892 199.419 135.872 198.807 138.547C198.195 141.221 198.292 143.493 196.133 144.524C194.441 145.329 190.945 144.943 188.657 146.779C189.64 147.875 191.009 148.713 192.733 149.164C197.986 150.501 202.11 147.198 205.815 150.291C209.521 153.385 205.912 156.365 211.486 160.603C217.045 164.824 222.716 161.634 225.197 159.99C227.678 158.347 230.868 158.75 233.752 161.537C236.636 164.324 240.97 166.483 244.466 163.696C247.962 160.909 249.508 160.296 252.199 161.215C254.873 162.149 258.482 163.277 260.641 159.974C262.8 156.671 264.041 155.447 266.715 155.753C269.389 156.059 270.839 155.656 270.839 155.656L275.898 142.365C275.544 141.978 275.125 141.592 274.625 141.221C271.629 139.014 267.537 140.609 265.378 140.496C263.235 140.399 263.138 137.387 261.656 134.342Z" fill="#FD3C0B"/>
<path d="M267.292 142.767C267.292 142.767 265.278 141.221 263.893 142.461C262.507 143.702 262.346 145.249 263.732 146.634C265.117 148.02 266.583 148.181 266.583 148.181L267.824 150.662C267.824 150.662 268.13 155.527 268.211 157.622C268.291 159.716 268.372 161.488 267.985 161.956C267.598 162.423 266.438 162.503 266.438 162.503C266.438 162.503 269.757 165.355 272.238 165.822C274.719 166.29 277.571 165.049 277.571 165.049C277.571 165.049 277.652 150.13 278.038 147.891C278.425 145.651 278.038 141.624 277.184 139.932C276.33 138.224 274.252 136.613 274.252 136.613C274.252 136.613 272.705 136.065 271.4 136.613C270.079 137.161 271.239 138.079 270.079 140.48C268.919 142.848 267.292 142.767 267.292 142.767Z" fill="#E8DACF"/>
<path d="M264.668 143.959C266.166 144.733 267.085 145.925 267.085 145.925" stroke="#FE7654" stroke-width="0.6" stroke-miterlimit="10" stroke-linecap="round" stroke-linejoin="round"/>
<path d="M269.359 151.226C270.229 152.257 273.065 153.336 275.337 152.514" stroke="#FE7654" stroke-width="0.6" stroke-miterlimit="10" stroke-linecap="round" stroke-linejoin="round"/>
<path d="M272.451 147.15C273.74 147.617 274.932 147.827 274.932 147.827" stroke="#FE7654" stroke-width="0.6" stroke-miterlimit="10" stroke-linecap="round" stroke-linejoin="round"/>
<path d="M271.11 140.512C271.884 139.948 273.334 139.642 274.155 140.045" stroke="#292F44" stroke-width="0.6" stroke-miterlimit="10" stroke-linecap="round" stroke-linejoin="round"/>
<path d="M301.462 150.113L272.962 144.942C271.802 144.942 271.802 141.333 272.962 141.333L301.462 136.161V150.113Z" fill="#292F44"/>
<path d="M306.691 143.127C306.699 139.283 304.418 136.163 301.598 136.157C298.777 136.152 296.484 139.263 296.477 143.107C296.469 146.951 298.749 150.071 301.57 150.077C304.391 150.083 306.683 146.971 306.691 143.127Z" fill="#F8C642"/>
<path d="M305.923 143.127C305.929 139.87 303.994 137.226 301.6 137.222C299.207 137.217 297.261 139.853 297.255 143.11C297.248 146.366 299.184 149.01 301.577 149.015C303.971 149.02 305.916 146.384 305.923 143.127Z" fill="#F8C642"/>
<path d="M305.923 143.127C305.929 139.87 303.994 137.226 301.6 137.222C299.207 137.217 297.261 139.853 297.255 143.11C297.248 146.366 299.184 149.01 301.577 149.015C303.971 149.02 305.916 146.384 305.923 143.127Z" stroke="#292F44" stroke-width="0.6" stroke-miterlimit="10" stroke-linecap="round" stroke-linejoin="round"/>
<path d="M305.4 143.122C305.4 144.975 304.111 145.909 301.598 145.909C299.069 145.909 297.796 144.959 297.796 143.106C297.796 141.253 299.085 140.319 301.598 140.319C304.128 140.335 305.4 141.269 305.4 143.122Z" fill="white"/>
<path d="M303.349 144.733C302.527 144.733 302.108 144.121 302.108 142.928C302.108 141.736 302.527 141.124 303.349 141.124C304.171 141.124 304.59 141.736 304.59 142.928C304.573 144.121 304.154 144.733 303.349 144.733Z" fill="#303336"/>
<path d="M296.519 137.934C295.23 139.835 295.181 142.977 295.278 144.427C295.375 145.877 295.955 147.617 296.776 148.6" stroke="#100C27" stroke-width="0.6" stroke-miterlimit="10" stroke-linecap="round" stroke-linejoin="round"/>
<path d="M291.99 138.24C290.782 140.012 290.734 142.945 290.83 144.298C290.927 145.651 291.459 147.279 292.216 148.197" stroke="#100C27" stroke-width="0.6" stroke-miterlimit="10" stroke-linecap="round" stroke-linejoin="round"/>
<path d="M269.051 166.886C269.051 166.886 271.935 159.877 273.014 157.203C274.094 154.528 274.609 152.869 274.609 152.869C274.609 152.869 272.756 149.679 274.4 145.909C276.043 142.155 278.878 139.11 280.425 137.918C281.972 136.726 283.663 137.709 283.663 137.709C283.663 137.709 284.598 136.935 285.935 136.984C287.272 137.032 287.272 138.176 287.272 138.176C287.272 138.176 288.561 137.048 289.641 137.241C291.332 137.564 290.93 138.176 290.93 138.176C290.93 138.176 289.85 139.513 288.771 142.187C287.691 144.862 287.015 146.666 287.482 150.63C287.949 154.593 286.66 159.023 285.726 162.681C284.791 166.338 282.326 172.831 282.326 172.831C282.326 172.831 278.621 172.831 274.384 170.768C270.195 168.738 269.051 166.886 269.051 166.886Z" fill="#F7EAE1"/>
<path d="M283.681 137.725C281.667 139.013 280.539 141.124 280.539 141.124" stroke="#FE7654" stroke-width="0.6" stroke-miterlimit="10" stroke-linecap="round" stroke-linejoin="round"/>
<path d="M287.288 138.192C285.693 139.271 283.985 141.849 283.985 141.849" stroke="#FE7654" stroke-width="0.6" stroke-miterlimit="10" stroke-linecap="round" stroke-linejoin="round"/>
<path d="M335.266 143.283L378.846 144.524" stroke="#F6B60D" stroke-width="0.6" stroke-miterlimit="10" stroke-linecap="round" stroke-linejoin="round"/>
<path d="M322.588 139.787L359.176 135.872" stroke="#F6B60D" stroke-width="0.6" stroke-miterlimit="10" stroke-linecap="round" stroke-linejoin="round"/>
<path d="M322.685 146.795L360.207 151.838" stroke="#F6B60D" stroke-width="0.6" stroke-miterlimit="10" stroke-linecap="round" stroke-linejoin="round"/>
<path d="M270.435 146.684C269.71 146.684 269.356 146.136 269.372 145.089C269.388 144.041 269.758 143.51 270.467 143.51C271.192 143.51 271.547 144.058 271.53 145.105C271.514 146.152 271.144 146.684 270.435 146.684Z" fill="#FE9074"/>
<path d="M339.326 238.306C337.731 243.703 336.201 248.987 334.96 253.047L314.29 253.418C316.578 245.797 319.236 236.678 320.541 232.586C320.541 232.586 308.941 235.132 306.396 235.518C306.396 235.518 303.931 233.36 305.316 222.001C306.702 210.643 310.262 206.003 310.262 206.003C314.902 205.697 329.434 203.538 335.927 210.949C342.42 218.36 342.114 228.865 339.326 238.306Z" fill="#F9EEE7"/>
<path d="M254.324 320.149C253.937 322.55 251.923 321.841 251.23 323.549C250.538 325.241 253.164 326.787 252.938 328.495C252.713 330.203 250.844 330.042 250.232 332.2C249.619 334.359 251.698 335.213 250.924 336.84C250.151 338.468 248.765 339.708 248.765 339.708C248.765 339.708 244.335 341.883 241.709 341.819C239.34 341.77 234.701 339.338 234.701 339.338C234.701 339.338 234.781 338.532 234.701 338.145C234.62 337.759 233.315 337.678 233.154 335.68C232.993 333.667 235.007 333.586 235.313 332.055C235.619 330.509 233.073 330.734 232.912 327.722C232.751 324.709 235.458 325.321 235.925 323.549C236.392 321.777 234.153 322.308 233.992 319.843C233.831 317.362 235.844 316.911 236.779 315.896C237.713 314.897 237.004 312.803 237.633 310.322C237.874 309.355 238.39 306.568 239.05 303.104C246.607 303.265 253.679 303.33 257.691 303.346C255.822 308.92 254.308 313.496 253.953 314.801C253.003 318.216 254.694 317.749 254.324 320.149Z" fill="#FD633C"/>
<path d="M332.832 270.915C331.753 274.475 327.419 272.929 327.274 276.022C327.113 279.115 329.546 279.164 328.515 282.048C327.629 284.513 325.341 283.691 324.761 285.141C324.036 286.945 324.713 286.575 324.245 288.589C324.245 288.589 321.055 289.41 319.654 290.345C318.268 291.279 314.418 293.277 312.339 292.971C310.245 292.665 305.895 289.62 305.895 289.62C305.895 289.62 306.958 286.22 306.878 285.222C306.797 284.223 303.575 283.385 304.252 281.049C305.057 278.197 307.812 278.954 307.877 276.57C307.957 274.169 303.784 273.332 305.025 269.852C306.265 266.372 309.359 268.079 310.519 265.453C311.018 264.309 312.549 259.315 314.305 253.435L334.975 253.064C334.057 256.109 333.316 258.461 332.849 259.653C331.769 262.441 329.143 263.214 330.384 265.212C331.608 267.209 333.928 267.354 332.832 270.915Z" fill="#FD633C"/>
<path d="M293.589 206.615C294.056 212.544 293.75 220.068 293.637 222.436" stroke="#100C27" stroke-width="0.6" stroke-miterlimit="10"/>
<path d="M280.604 242.156C282.505 235.406 285.195 226.029 285.195 226.029" stroke="#100C27" stroke-width="0.6" stroke-miterlimit="10"/>
<path d="M302.285 206.052C299.611 211.932 298.37 216.459 297.758 223.887C297.146 231.314 298.693 237.082 299.724 238.934" stroke="#100C27" stroke-width="0.6" stroke-miterlimit="10"/>
<path d="M247.156 249.632C251.893 251.485 262.091 252.516 267.247 252.725C272.402 252.935 277.139 252.306 277.139 252.306" stroke="#100C27" stroke-width="0.6" stroke-miterlimit="10"/>
<path d="M277.041 199.043C275.398 204.296 271.37 213.576 263.54 214.816" stroke="#100C27" stroke-width="0.6" stroke-miterlimit="10"/>
<path d="M269.614 199.446C267.456 203.458 263.637 214.897 261.478 221.712C259.32 228.511 254.373 247.989 253.648 251.082" stroke="#100C27" stroke-width="0.6" stroke-miterlimit="10"/>
<path d="M287.482 197.883C287.482 197.883 287.869 207.695 287.354 218.215" stroke="#100C27" stroke-width="0.6" stroke-miterlimit="10"/>
<path d="M320.556 232.587C329.191 230.992 334.331 230.363 334.331 230.363" stroke="#FE7654" stroke-width="0.6" stroke-miterlimit="10" stroke-linecap="round" stroke-linejoin="round"/>
<path d="M263.332 273.847C261.785 277.553 262.607 280.759 262.607 281.065" stroke="#FE7654" stroke-width="0.6" stroke-miterlimit="10" stroke-linecap="round" stroke-linejoin="round"/>
<path d="M313.308 258.912C322.169 258.605 332.27 258.299 332.27 258.299" stroke="#292F44" stroke-width="0.6" stroke-miterlimit="10" stroke-linecap="round" stroke-linejoin="round"/>
<path d="M238.502 308.469C242.111 308.775 251.069 309.291 255.096 308.985" stroke="#292F44" stroke-width="0.6" stroke-miterlimit="10" stroke-linecap="round" stroke-linejoin="round"/>
<path d="M238.714 322.808C243.66 323.42 249.54 323.114 249.54 323.114" stroke="#292F44" stroke-width="0.6" stroke-miterlimit="10" stroke-linecap="round" stroke-linejoin="round"/>
<path d="M236.957 332.587C241.081 333.619 248.186 333.312 248.186 333.312" stroke="#292F44" stroke-width="0.6" stroke-miterlimit="10" stroke-linecap="round" stroke-linejoin="round"/>
<path d="M238.714 315.59C242.935 316.315 248.3 316.718 251.393 316.525" stroke="#292F44" stroke-width="0.6" stroke-miterlimit="10" stroke-linecap="round" stroke-linejoin="round"/>
<path d="M313.113 265.195C316.609 265.614 325.487 265.614 327.952 265.405" stroke="#292F44" stroke-width="0.6" stroke-miterlimit="10" stroke-linecap="round" stroke-linejoin="round"/>
<path d="M309.507 275.7C312.085 276.215 323.523 276.634 325.07 276.425" stroke="#292F44" stroke-width="0.6" stroke-miterlimit="10" stroke-linecap="round" stroke-linejoin="round"/>
<path d="M308.474 285.608C312.598 286.43 320.428 286.542 322.893 286.123" stroke="#292F44" stroke-width="0.6" stroke-miterlimit="10" stroke-linecap="round" stroke-linejoin="round"/>
<path d="M269.049 166.886C265.489 172.96 252.503 194.097 250.038 198.931" stroke="#292F44" stroke-width="0.6" stroke-miterlimit="10" stroke-linecap="round" stroke-linejoin="round"/>
<path d="M297.601 175.086C301.048 181.74 304.867 190.086 305.801 191.632" stroke="#292F44" stroke-width="0.6" stroke-miterlimit="10" stroke-linecap="round" stroke-linejoin="round"/>
<path d="M296.616 171.316C299.291 170.591 306.814 167.498 308.152 166.676" stroke="#292F44" stroke-width="0.6" stroke-miterlimit="10" stroke-linecap="round" stroke-linejoin="round"/>
<path d="M266.424 172.348C269.211 175.135 277.041 178.422 279.828 178.422" stroke="#292F44" stroke-width="0.6" stroke-miterlimit="10" stroke-linecap="round" stroke-linejoin="round"/>
<path d="M260.56 170.076C262.106 172.235 263.234 176.053 263.234 176.053" stroke="#292F44" stroke-width="0.6" stroke-miterlimit="10" stroke-linecap="round" stroke-linejoin="round"/>
<path d="M284.391 168.738C285.325 170.446 290.497 177.003 290.416 177.632C290.336 178.244 287.629 181.724 287.629 181.724C287.629 181.724 289.562 186.203 290.029 187.91" stroke="#292F44" stroke-width="0.6" stroke-miterlimit="10" stroke-linecap="round" stroke-linejoin="round"/>
<path d="M196.969 139.368C200.674 140.302 202.736 138.127 203.155 134.631C203.574 131.135 206.345 127.107 210.26 128.235C214.175 129.363 215.11 131.022 218.509 130.201" stroke="#292F44" stroke-width="0.6" stroke-miterlimit="10" stroke-linecap="round" stroke-linejoin="round"/>
<path d="M207.891 146.683C213.868 147.408 212.563 151.774 213.352 154.819C214.383 158.83 218.588 158.347 220.973 155.946C224.372 152.547 229.318 153.788 231.074 155.125" stroke="#292F44" stroke-width="0.6" stroke-miterlimit="10" stroke-linecap="round" stroke-linejoin="round"/>
<path d="M216.446 139.884C218.927 137.918 223.97 138.434 226.242 141.527C228.513 144.62 232.428 143.17 234.587 140.915C236.746 138.643 241.386 139.368 242.723 141.946" stroke="#292F44" stroke-width="0.6" stroke-miterlimit="10" stroke-linecap="round" stroke-linejoin="round"/>
<path d="M232.317 122.774C233.767 120.808 238.601 119.987 241.903 124.53C245.206 129.057 249.846 127.833 251.796 126.898C253.761 125.964 257.048 126.383 258.385 129.057" stroke="#292F44" stroke-width="0.6" stroke-miterlimit="10" stroke-linecap="round" stroke-linejoin="round"/>
<path d="M245.917 135.872C247.464 135.05 250.251 135.147 252.313 137.419C254.375 139.69 257.372 139.143 259.321 137.725C263.027 135.05 266.12 138.965 266.12 138.965" stroke="#292F44" stroke-width="0.6" stroke-miterlimit="10" stroke-linecap="round" stroke-linejoin="round"/>
<path d="M241.484 157.815C242.612 156.268 247.462 152.563 252.311 155.447C255.871 157.573 257.354 151.113 261.478 151.435" stroke="#292F44" stroke-width="0.6" stroke-miterlimit="10" stroke-linecap="round" stroke-linejoin="round"/>
<path d="M225.212 132.167C226.549 130.926 229.949 130.523 232.011 132.779C234.073 135.051 238.085 133.391 239.228 131.232" stroke="#292F44" stroke-width="0.6" stroke-miterlimit="10" stroke-linecap="round" stroke-linejoin="round"/>
<path d="M229.948 150.404C232.526 148.551 235.104 149.792 236.747 151.016C238.39 152.257 242.112 150.71 242.418 150.082" stroke="#292F44" stroke-width="0.6" stroke-miterlimit="10" stroke-linecap="round" stroke-linejoin="round"/>
<path d="M191.297 141.028C190.476 142.478 192.941 147.424 197.887 145.764C202.833 144.121 204.283 140.303 209.019 141.543" stroke="#292F44" stroke-width="0.6" stroke-miterlimit="10" stroke-linecap="round" stroke-linejoin="round"/>
<path d="M249.12 147.102C251.086 145.555 253.132 146.683 254.791 147.714C256.435 148.745 258.609 146.683 258.609 146.683" stroke="#292F44" stroke-width="0.6" stroke-miterlimit="10" stroke-linecap="round" stroke-linejoin="round"/>
<path d="M264.476 131.958C265.926 133.408 268.697 134.02 270.356 133.198C271.999 132.376 274.996 132.683 275.093 134.954" stroke="#292F44" stroke-width="0.6" stroke-miterlimit="10" stroke-linecap="round" stroke-linejoin="round"/>
<path d="M325.94 288.942C325.215 289.812 324.296 291.472 323.926 292.503" stroke="#292F44" stroke-width="0.6" stroke-miterlimit="10" stroke-linecap="round" stroke-linejoin="round"/>
<path d="M327.533 289.925C327.066 290.602 326.454 291.988 326.244 292.97" stroke="#292F44" stroke-width="0.6" stroke-miterlimit="10" stroke-linecap="round" stroke-linejoin="round"/>
<path d="M329.179 290.908C328.663 291.73 328.196 293.277 328.196 293.277" stroke="#292F44" stroke-width="0.6" stroke-miterlimit="10" stroke-linecap="round" stroke-linejoin="round"/>
<path d="M251.587 340.111C250.394 341.4 249.879 342.947 249.879 342.947" stroke="#292F44" stroke-width="0.6" stroke-miterlimit="10" stroke-linecap="round" stroke-linejoin="round"/>
<path d="M253.294 340.788C252.682 341.722 252.473 342.431 252.215 343.204" stroke="#292F44" stroke-width="0.6" stroke-miterlimit="10" stroke-linecap="round" stroke-linejoin="round"/>
<path d="M255.146 341.4C254.727 342.012 254.421 343.365 254.421 343.365" stroke="#292F44" stroke-width="0.6" stroke-miterlimit="10" stroke-linecap="round" stroke-linejoin="round"/>
<path d="M343.705 278.906C344.624 274.217 347.314 274.781 349.377 273.347C351.439 271.897 349.795 265.727 353.71 264.792C357.625 263.858 358.963 267.064 358.238 270.157C357.513 273.251 355.966 275.103 357.303 276.344C358.64 277.584 362.346 276.553 363.28 280.678C364.215 284.802 360.493 285.012 360.606 287.38C360.719 289.748 366.067 291.085 365.858 297.788C365.649 304.49 361.524 304.377 360.815 306.343C360.106 308.308 361.846 311.708 357.835 313.866C354.951 315.413 352.583 312.932 351.133 312.11C349.683 311.289 346.493 313.351 343.915 312.11C341.337 310.87 340.242 306.713 342.674 304.377C345.155 302.009 343.915 300.672 343.19 299.431C342.465 298.19 340.515 296.128 341.643 292.842C342.997 288.927 346.17 289.345 346.799 286.558C347.427 283.739 342.884 283.127 343.705 278.906Z" stroke="#FD3C0B" stroke-width="0.6" stroke-miterlimit="10" stroke-linecap="round" stroke-linejoin="round"/>
<path d="M348.556 312.191L346.284 323.42" stroke="#FD3C0B" stroke-width="0.6" stroke-miterlimit="10" stroke-linecap="round" stroke-linejoin="round"/>
<path d="M354.934 314.253C355.546 316.412 356.69 322.905 356.69 322.905" stroke="#FD3C0B" stroke-width="0.6" stroke-miterlimit="10" stroke-linecap="round" stroke-linejoin="round"/>
<path d="M351.229 304.039C351.745 305.891 353.082 307.857 355.354 308.469" stroke="#FD3C0B" stroke-width="0.6" stroke-miterlimit="10" stroke-linecap="round" stroke-linejoin="round"/>
<path d="M359.383 292.922C361.026 295.081 359.48 299.721 357.111 300.14" stroke="#FD3C0B" stroke-width="0.6" stroke-miterlimit="10" stroke-linecap="round" stroke-linejoin="round"/>
<path d="M349.685 289.829C346.801 291.376 346.285 296.322 348.444 297.965" stroke="#FD3C0B" stroke-width="0.6" stroke-miterlimit="10" stroke-linecap="round" stroke-linejoin="round"/>
<path d="M354.115 278.793C355.565 279.405 357.209 283.948 354.631 285.801" stroke="#FD3C0B" stroke-width="0.6" stroke-miterlimit="10" stroke-linecap="round" stroke-linejoin="round"/>
<path d="M352.679 271.785C352.889 273.541 352.067 276.827 349.07 278.068" stroke="#FD3C0B" stroke-width="0.6" stroke-miterlimit="10" stroke-linecap="round" stroke-linejoin="round"/>
<path d="M169.454 166.886H192.122" stroke="#94C7D4" stroke-width="0.6" stroke-miterlimit="10" stroke-linecap="round" stroke-linejoin="round"/>
<path d="M168.956 179.71H183.263" stroke="#94C7D4" stroke-width="0.6" stroke-miterlimit="10" stroke-linecap="round" stroke-linejoin="round"/>
<path d="M374.807 208.629H352.139" stroke="#94C7D4" stroke-width="0.6" stroke-miterlimit="10" stroke-linecap="round" stroke-linejoin="round"/>
<path d="M375.309 221.438H361.002" stroke="#94C7D4" stroke-width="0.6" stroke-miterlimit="10" stroke-linecap="round" stroke-linejoin="round"/>
<path d="M98.2389 154.335C98.2389 154.335 98.11 148.455 101.558 146.489C105.006 144.524 108.453 147.472 108.453 147.472C108.453 147.472 109.146 142.623 113.867 141.141C118.587 139.658 122.132 142.252 123.018 143.928C123.904 145.603 123.904 147.665 123.904 147.665C123.904 147.665 126.546 145.523 128.624 147.037C130.783 148.616 130.01 153.465 125.611 153.997C121.31 154.529 98.2389 154.335 98.2389 154.335Z" fill="white" stroke="#94C7D4" stroke-width="0.6" stroke-miterlimit="10" stroke-linecap="round" stroke-linejoin="round"/>
<path d="M167.897 145.902C168.537 141.904 165.814 138.145 161.817 137.506C157.819 136.867 154.06 139.589 153.421 143.587C152.782 147.584 155.504 151.343 159.502 151.982C163.499 152.621 167.258 149.899 167.897 145.902Z" stroke="#F6B60D" stroke-width="0.6" stroke-miterlimit="10" stroke-linecap="round" stroke-linejoin="round"/>
<path d="M156.176 130.346L158.012 135.663" stroke="#F6B60D" stroke-width="0.6" stroke-miterlimit="10" stroke-linecap="round" stroke-linejoin="round"/>
<path d="M146.396 138.499L151.39 140.77" stroke="#F6B60D" stroke-width="0.6" stroke-miterlimit="10" stroke-linecap="round" stroke-linejoin="round"/>
<path d="M145.525 150.533L151.068 148.052" stroke="#F6B60D" stroke-width="0.6" stroke-miterlimit="10" stroke-linecap="round" stroke-linejoin="round"/>
<path d="M156.933 157.929L158.125 153.691" stroke="#F6B60D" stroke-width="0.6" stroke-miterlimit="10" stroke-linecap="round" stroke-linejoin="round"/>
<path d="M166.584 152.063L169.951 156.945" stroke="#F6B60D" stroke-width="0.6" stroke-miterlimit="10" stroke-linecap="round" stroke-linejoin="round"/>
<path d="M170.498 145.652L176.137 146.522" stroke="#F6B60D" stroke-width="0.6" stroke-miterlimit="10" stroke-linecap="round" stroke-linejoin="round"/>
<path d="M170.063 139.353L175.928 136.533" stroke="#F6B60D" stroke-width="0.6" stroke-miterlimit="10" stroke-linecap="round" stroke-linejoin="round"/>
<path d="M164.956 135.776L166.922 130.572" stroke="#F6B60D" stroke-width="0.6" stroke-miterlimit="10" stroke-linecap="round" stroke-linejoin="round"/>
<path d="M80.6957 271.059C75.4274 270.399 75.4758 265.565 77.5219 263.793C79.568 262.021 82.468 263.229 83.1124 264.067C83.1124 264.067 82.0007 259.218 85.529 256.334C89.0735 253.45 93.9229 255.222 95.2279 259.314C95.2279 259.314 97.0967 254.465 102.027 255.206C106.973 255.947 106.876 261.554 106.506 262.472C106.506 262.472 110.614 260.136 113.691 262.939C116.768 265.743 115.56 270.399 115.56 270.399C115.56 270.399 85.9157 271.72 80.6957 271.059Z" fill="white" stroke="#94C7D4" stroke-width="0.6" stroke-miterlimit="10" stroke-linecap="round" stroke-linejoin="round"/>
<path d="M388.48 189.36L386.483 188.442C386.483 188.442 385.806 185.123 382.278 184.801C378.749 184.479 373.626 184.318 373.626 184.318C373.626 184.318 373.465 177.019 373.143 173.185C372.821 169.334 371.66 169.318 370.533 169.383C369.808 169.415 368.97 170.188 368.97 173.475C368.97 173.475 369.244 168.787 366.843 168.787C363.959 168.787 364.604 173.717 364.604 173.717C364.604 173.717 364.475 170.623 362.961 170.559C361.204 170.478 361.511 173.04 361.446 176.729C361.366 180.419 361.688 183.947 361.688 183.947C361.688 183.947 356.001 183.979 354.39 183.979C352.795 183.979 349.862 182.69 349.862 182.69C349.862 182.69 349.83 186.493 351.699 189.747C353.455 192.792 356.871 193.308 362.155 193.63C367.439 193.952 378.024 193.952 381.472 193.549C384.92 193.146 386.515 190.263 386.515 190.263L388.48 189.36Z" stroke="#FD3C0B" stroke-width="0.6" stroke-miterlimit="10" stroke-linecap="round" stroke-linejoin="round"/>
<path d="M373.608 184.302C373.689 186.106 373.721 188.104 373.721 188.104" stroke="#FD3C0B" stroke-width="0.6" stroke-miterlimit="10" stroke-linecap="round" stroke-linejoin="round"/>
<path d="M361.671 183.915C361.703 185.671 361.913 188.007 361.913 188.007" stroke="#FD3C0B" stroke-width="0.6" stroke-miterlimit="10" stroke-linecap="round" stroke-linejoin="round"/>
<path d="M384.172 190.032C384.921 189.283 384.921 188.069 384.172 187.321C383.424 186.572 382.21 186.572 381.461 187.321C380.712 188.069 380.712 189.283 381.461 190.032C382.21 190.781 383.424 190.781 384.172 190.032Z" stroke="#FD3C0B" stroke-width="0.6" stroke-miterlimit="10" stroke-linecap="round" stroke-linejoin="round"/>
<path d="M386.174 273.238C387.202 270.755 386.023 267.909 383.541 266.881C381.058 265.852 378.212 267.031 377.183 269.514C376.155 271.997 377.334 274.843 379.817 275.871C382.299 276.9 385.145 275.721 386.174 273.238Z" stroke="#FD3C0B" stroke-width="0.6" stroke-miterlimit="10" stroke-linecap="round" stroke-linejoin="round"/>
<path d="M376.189 246.381C377.037 242.386 372.975 238.14 367.118 236.898C361.26 235.655 355.824 237.886 354.977 241.882C354.129 245.877 358.191 250.123 364.049 251.365C369.906 252.608 375.342 250.376 376.189 246.381Z" stroke="#F9CC56" stroke-width="0.6" stroke-miterlimit="10" stroke-linecap="round" stroke-linejoin="round"/>
<path d="M138.195 247.729C142.329 246.399 144.944 243.034 144.037 240.213C143.129 237.393 139.042 236.184 134.909 237.514C130.775 238.844 128.16 242.209 129.067 245.03C129.975 247.851 134.061 249.059 138.195 247.729Z" stroke="#FE7654" stroke-width="0.6" stroke-miterlimit="10" stroke-linecap="round" stroke-linejoin="round"/>
</svg>
