<svg width="102" height="54" viewBox="0 0 102 54" fill="none" xmlns="http://www.w3.org/2000/svg">
<path d="M41.2644 18.344C41.2645 16.5142 41.7806 14.7215 42.7535 13.1718C43.7265 11.622 45.1167 10.3781 46.7647 9.58277C48.4126 8.78746 50.2515 8.47303 52.07 8.67558C53.8886 8.87813 55.6132 9.58945 57.0458 10.7279C58.4784 11.8663 59.5609 13.3856 60.169 15.1114C60.7771 16.8373 60.8861 18.6996 60.4836 20.4846C60.0811 22.2696 59.1833 23.9049 57.8934 25.2028C56.6035 26.5006 54.9737 27.4083 53.1912 27.8218H67.0297C68.7204 24.9604 69.5849 21.6864 69.527 18.3633C69.527 13.2013 67.743 8.84804 64.1751 5.30367C60.5599 1.76789 56.1606 0 50.977 0C45.7935 0 41.4167 1.76038 37.8466 5.28115C36.1103 6.92649 34.7349 8.91466 33.8075 11.1196C32.8801 13.3245 32.421 15.6981 32.4592 18.0898C32.4592 21.7693 33.2981 25.0176 34.9759 27.8346H48.7951C46.6518 27.337 44.7404 26.1277 43.3728 24.4041C42.0051 22.6805 41.2619 20.5443 41.2644 18.344Z" fill="white"/>
<path d="M34.6669 44.5948V41.8335H32.2982V39.3555H29.2345V41.8335H26.8047V44.5948H29.2345V50.4745H32.2982V44.5948H34.6669Z" fill="white"/>
<path d="M3.14423 47.4209L5.61584 50.475H9.46487L5.68665 45.8279L12.1811 39.459H8.18401L3.15388 44.4891V39.459H0V50.475H3.14745L3.14423 47.4209Z" fill="white"/>
<path d="M23.3637 43.5042C22.8207 42.9614 22.1736 42.534 21.4613 42.2476C20.749 41.9611 19.9862 41.8215 19.2186 41.8371C18.4545 41.8216 17.6951 41.9607 16.9861 42.2461C16.2771 42.5314 15.6331 42.9572 15.0928 43.4977C14.5483 44.0143 14.117 44.6383 13.8262 45.3302C13.5354 46.0221 13.3913 46.7669 13.4032 47.5173C13.3854 48.5522 13.6407 49.5734 14.1434 50.4781H18.2016C17.5218 50.2375 16.949 49.7643 16.5843 49.1422C16.2196 48.5201 16.0865 47.7892 16.2086 47.0785C16.3307 46.3677 16.7 45.7231 17.2514 45.2583C17.8028 44.7936 18.5007 44.5387 19.2218 44.5387C19.9429 44.5387 20.6408 44.7936 21.1922 45.2583C21.7436 45.7231 22.113 46.3677 22.235 47.0785C22.3571 47.7892 22.224 48.5201 21.8593 49.1422C21.4946 49.7643 20.9218 50.2375 20.242 50.4781H24.3131C24.8065 49.6028 25.0586 48.6121 25.0436 47.6074C25.06 46.8448 24.9193 46.087 24.6303 45.3811C24.3413 44.6752 23.9102 44.0363 23.3637 43.5042Z" fill="white"/>
<path d="M51.2934 46.7806V53.3716H54.2188V46.8354C54.1895 46.22 54.318 45.6074 54.5921 45.0557H51.4672C51.3455 45.6224 51.2872 46.201 51.2934 46.7806Z" fill="white"/>
<path d="M61.1115 44.5185C60.8765 43.9223 60.4959 43.3946 60.0045 42.9833C59.1516 42.2431 57.6648 41.873 56.3582 41.873C55.8278 41.8739 55.2991 41.9322 54.7812 42.0468V44.7727C54.9774 44.552 55.2215 44.3792 55.4949 44.2676C55.7683 44.156 56.0636 44.1086 56.3582 44.129C57.7871 44.129 58.5005 45.0323 58.4983 46.8388V53.3751H61.4269V46.7809C61.4624 46.0137 61.3554 45.2467 61.1115 44.5185Z" fill="white"/>
<path d="M45.6093 47.6013C45.6108 48.1308 45.4748 48.6516 45.2145 49.1128C44.9543 49.5739 44.5787 49.9596 44.1246 50.2319C43.6705 50.5043 43.1535 50.6541 42.6241 50.6666C42.0948 50.6791 41.5712 50.5539 41.1048 50.3032C40.6384 50.0526 40.245 49.6851 39.9633 49.2367C39.6816 48.7884 39.5211 48.2746 39.4976 47.7456C39.4742 47.2166 39.5885 46.6906 39.8294 46.219C40.0704 45.7475 40.4296 45.3466 40.872 45.0557H37.2869C36.9156 45.8217 36.7261 46.6631 36.7334 47.5144C36.7086 48.2881 36.8429 49.0586 37.128 49.7782C37.413 50.4979 37.8429 51.1513 38.3908 51.6981C38.9234 52.2467 39.5637 52.6792 40.2715 52.9683C40.9793 53.2574 41.7393 53.3969 42.5037 53.3781C43.2757 53.3961 44.0435 53.2596 44.762 52.9767C45.4804 52.6937 46.1351 52.2699 46.6874 51.7303C47.2393 51.1996 47.6748 50.5598 47.9662 49.8518C48.2576 49.1438 48.3986 48.3828 48.3802 47.6174C48.39 46.7355 48.1962 45.8633 47.8138 45.0685H44.2416C44.6606 45.3453 45.0047 45.7214 45.2433 46.1633C45.4819 46.6051 45.6076 47.0991 45.6093 47.6013Z" fill="white"/>
<path d="M89.043 44.5184C88.8079 43.9215 88.426 43.3935 87.9327 42.9833C87.0831 42.2431 85.5963 41.873 84.2897 41.873C82.983 41.873 81.4833 42.2431 80.6337 42.9833C80.1477 43.3953 79.7735 43.9233 79.5459 44.5184C79.3172 45.247 79.2085 46.0078 79.2241 46.7712V50.4304H82.1527V46.8356C82.1527 45.0269 82.864 44.261 84.2929 44.261C85.5448 44.261 86.2463 44.8242 86.4008 46.2209H89.3455C89.338 45.6407 89.2358 45.0657 89.043 44.5184Z" fill="white"/>
<path d="M67.2596 47.601C67.258 47.0458 67.4078 46.5006 67.6929 46.0242C67.978 45.5477 68.3876 45.158 68.8776 44.8969C69.3676 44.6358 69.9195 44.5133 70.474 44.5424C71.0284 44.5715 71.5645 44.7513 72.0244 45.0623C72.4844 45.3733 72.8509 45.8038 73.0844 46.3075C73.318 46.8112 73.4099 47.369 73.3501 47.921C73.2903 48.473 73.0812 48.9983 72.7453 49.4403C72.4093 49.8824 71.9592 50.2245 71.4433 50.4298H76.0261V41.8596H73.0879V42.5998C72.1956 42.09 71.1837 41.8268 70.156 41.8371C69.3919 41.8216 68.6326 41.9607 67.9236 42.2461C67.2146 42.5314 66.5706 42.9572 66.0302 43.4977C65.4858 44.0143 65.0545 44.6383 64.7637 45.3302C64.4728 46.0221 64.3288 46.7669 64.3407 47.5173C64.3237 48.5341 64.5686 49.5382 65.0519 50.4331H69.1906C68.6221 50.2087 68.1341 49.8188 67.7898 49.3138C67.4455 48.8089 67.2608 48.2122 67.2596 47.601Z" fill="white"/>
<path d="M99.0659 48.4062C99.0659 50.2149 98.3525 51.1192 96.9257 51.1192C95.499 51.1192 94.7856 50.2149 94.7856 48.4062V44.6602H91.857V48.4641C91.8251 49.2284 91.9342 49.9921 92.1788 50.7169C92.4157 51.3129 92.7973 51.8404 93.2891 52.252C94.1387 52.9922 95.6256 53.3623 96.9322 53.3623C98.2388 53.3623 99.7353 52.9922 100.588 52.252C101.073 51.8388 101.447 51.3112 101.676 50.7169C101.904 49.9883 102.013 49.2275 101.998 48.4641V44.6602H99.0691L99.0659 48.4062Z" fill="white"/>
</svg>
